<svg width="65" height="65" viewBox="0 0 65 65" fill="none" xmlns="http://www.w3.org/2000/svg">
<g clip-path="url(#clip0_156_141)">
<path d="M22.1231 19.8712C21.0625 18.8106 21.0625 17.0913 22.1231 16.0307C22.9736 15.1802 24.248 15.0135 25.2665 15.5275C26.243 13.8076 27.8026 12.4872 29.7034 11.813C30.5969 11.4961 31.5306 11.3353 32.4785 11.3353C34.0045 11.3353 35.4996 11.7555 36.8022 12.5504C37.1889 12.7863 37.5941 13.0233 38.0153 13.2608V6.04876C38.0153 4.88626 37.4974 3.79828 36.5947 3.0642C35.6901 2.32859 34.5187 2.04204 33.3818 2.28058C29.465 3.09961 24.3603 3.5504 19.0078 3.5504C13.6552 3.5504 8.55048 3.09961 4.6337 2.28058C4.36996 2.2254 4.10427 2.19824 3.84074 2.19824C2.96653 2.19824 2.11405 2.49696 1.42016 3.06159C0.517487 3.79524 0 4.88409 0 6.04876V26.1725C0 35.8314 7.24199 43.8307 16.5811 45.0258C16.4036 41.9383 16.8433 38.8166 17.9113 35.8153L18.6517 33.7345C17.2871 33.8177 15.9465 34.3782 14.9061 35.4186C13.8457 36.479 12.126 36.479 11.0656 35.4186C10.005 34.358 10.005 32.6387 11.0656 31.5781C13.6476 28.9961 17.184 27.9379 20.5496 28.4006L23.2517 20.8063C22.8515 20.533 22.4733 20.2214 22.1231 19.8712ZM15.6311 19.8712C14.1592 21.3431 12.202 22.1539 10.1203 22.1539C8.03843 22.1539 6.08123 21.3433 4.60937 19.8712C3.54876 18.8106 3.54876 17.0913 4.60937 16.0307C5.66976 14.9703 7.3895 14.9703 8.4499 16.0307C9.37125 16.9521 10.8698 16.9516 11.7908 16.0307C12.8511 14.9703 14.5709 14.9703 15.6313 16.0307C16.6917 17.0913 16.6917 18.8108 15.6311 19.8712Z" fill="#3A52D6"/>
<path d="M64.4238 27.7484C63.8053 26.7308 62.761 26.043 61.5813 25.8818C57.7742 25.3619 52.8601 24.124 47.635 22.2648C42.41 20.4056 37.8184 18.2614 34.5386 16.2596C33.9108 15.8764 33.1969 15.6807 32.4784 15.6807C32.0331 15.6807 31.5858 15.7558 31.156 15.9083C30.0331 16.3068 29.1502 17.1903 28.7509 18.3129L22.0049 37.2722C18.4657 47.2189 23.6601 58.1515 33.6068 61.6905C35.725 62.4441 37.8879 62.8017 40.0146 62.8017C47.8744 62.8017 55.2396 57.9171 58.0252 50.0885L64.7712 31.1292C65.1703 30.0076 65.0423 28.7658 64.4238 27.7484ZM28.5962 32.822C27.9525 31.4675 28.5289 29.8475 29.8836 29.204C31.7639 28.3104 33.8797 28.2029 35.8408 28.9007C37.8019 29.5987 39.3741 31.0184 40.2675 32.8987C40.9112 34.2533 40.3348 35.8733 38.98 36.5168C38.604 36.6956 38.2071 36.7803 37.8167 36.7803C36.8008 36.7803 35.8269 36.2079 35.362 35.2294C35.0911 34.6595 34.6146 34.2289 34.02 34.0176C33.4256 33.8057 32.7843 33.8388 32.2145 34.1095C30.8599 34.7536 29.2397 34.1768 28.5962 32.822ZM45.234 52.7036C43.6826 53.4407 42.0446 53.7898 40.4317 53.7898C36.2282 53.7898 32.1901 51.4216 30.2697 47.379C29.626 46.0245 30.2023 44.4047 31.5571 43.761C32.9116 43.117 34.5317 43.6936 35.1751 45.0484C36.5477 47.9371 40.0144 49.1707 42.9033 47.7981C44.2581 47.1544 45.8779 47.7307 46.5214 49.0855C47.1651 50.4401 46.5885 52.0599 45.234 52.7036ZM55.4805 42.3877C55.1045 42.5665 54.7076 42.6512 54.3172 42.6512C53.3013 42.6512 52.3274 42.0788 51.8625 41.1003C51.3033 39.9237 49.8914 39.4212 48.7148 39.9804C47.3606 40.6245 45.7404 40.048 45.0967 38.693C44.453 37.3384 45.0293 35.7184 46.3841 35.0749C50.265 33.2307 54.9239 34.8879 56.7682 38.7697C57.4117 40.1242 56.8351 41.7442 55.4805 42.3877Z" fill="#3A52D6"/>
</g>
<defs>
<clipPath id="clip0_156_141">
<rect width="65" height="65" fill="white"/>
</clipPath>
</defs>
</svg>
