<svg width="83" height="83" viewBox="0 0 83 83" fill="none" xmlns="http://www.w3.org/2000/svg">
<circle cx="41.5" cy="41.5" r="40.5" transform="matrix(-1 0 0 1 83 0)" fill="#030E21" stroke="#232D3E" stroke-width="2"/>
<g clip-path="url(#clip0_32_92)">
<path d="M41.5003 55.0717C37.901 55.0717 34.4491 53.6418 31.9039 51.0967C29.3588 48.5516 27.929 45.0997 27.929 41.5003C27.929 37.901 29.3588 34.4491 31.9039 31.9039C34.4491 29.3588 37.901 27.929 41.5003 27.929C45.0997 27.929 48.5516 29.3588 51.0967 31.9039C53.6418 34.4491 55.0717 37.901 55.0717 41.5003C55.0717 45.0997 53.6418 48.5516 51.0967 51.0967C48.5516 53.6418 45.0997 55.0717 41.5003 55.0717ZM41.5003 57.0104C45.6139 57.0104 49.5589 55.3763 52.4676 52.4676C55.3763 49.5589 57.0104 45.6139 57.0104 41.5003C57.0104 37.3868 55.3763 33.4417 52.4676 30.533C49.5589 27.6243 45.6139 25.9902 41.5003 25.9902C37.3868 25.9902 33.4417 27.6243 30.533 30.533C27.6243 33.4417 25.9902 37.3868 25.9902 41.5003C25.9902 45.6139 27.6243 49.5589 30.533 52.4676C33.4417 55.3763 37.3868 57.0104 41.5003 57.0104Z" fill="#CCCCCC"/>
<path d="M43.3029 38.7633L38.8631 39.3197L38.7042 40.0564L39.5766 40.2173C40.1466 40.3531 40.259 40.5586 40.135 41.1266L38.7042 47.8502C38.328 49.5893 38.9077 50.4075 40.2707 50.4075C41.3273 50.4075 42.5545 49.9189 43.111 49.2481L43.2816 48.4416C42.8938 48.7828 42.3277 48.9185 41.9516 48.9185C41.4184 48.9185 41.2245 48.5443 41.3622 47.8851L43.3029 38.7633ZM43.4386 34.7151C43.4386 35.2293 43.2343 35.7225 42.8708 36.086C42.5072 36.4496 42.014 36.6539 41.4998 36.6539C40.9857 36.6539 40.4925 36.4496 40.1289 36.086C39.7653 35.7225 39.5611 35.2293 39.5611 34.7151C39.5611 34.2009 39.7653 33.7078 40.1289 33.3442C40.4925 32.9806 40.9857 32.7764 41.4998 32.7764C42.014 32.7764 42.5072 32.9806 42.8708 33.3442C43.2343 33.7078 43.4386 34.2009 43.4386 34.7151Z" fill="#CCCCCC"/>
</g>
<defs>
<clipPath id="clip0_32_92">
<rect width="31.0202" height="31.0202" fill="white" transform="translate(25.9902 25.9902)"/>
</clipPath>
</defs>
</svg>
