<svg width="66" height="66" viewBox="0 0 66 66" fill="none" xmlns="http://www.w3.org/2000/svg">
<path d="M54.2112 32.6576V0H50.0117V3.83496C38.6136 5.39795 27.3866 5.39795 15.9885 3.83496V0H11.789V32.6576C11.0679 33.2619 10.6006 34.1562 10.6006 35.1713C10.6006 36.99 12.073 38.4645 13.8917 38.4645C14.9572 38.4645 15.8937 37.9509 16.4941 37.1673H49.5062C50.1064 37.9508 51.043 38.4645 52.1085 38.4645C53.9273 38.4645 55.3996 36.99 55.3996 35.1713C55.3996 34.1562 54.9323 33.2618 54.2112 32.6576ZM50.0117 22.9212V32.6536C49.8244 32.8087 49.6552 32.982 49.5062 33.1753H16.4941C16.345 32.982 16.1758 32.8087 15.9885 32.6536V22.9212C27.3605 24.2988 38.6398 24.2988 50.0117 22.9212Z" fill="#3A52D6"/>
<path d="M46.1404 59.4132C45.9792 59.4132 45.8281 59.4394 45.6731 59.4615L45.4898 59.2762L37.4915 51.284L36.1742 49.9688L33.4229 52.7181L42.8673 62.1584L42.8995 62.1885C42.8713 62.3578 42.8472 62.529 42.8472 62.7082C42.8472 64.525 44.3216 65.9993 46.1383 65.9993C47.957 65.9993 49.4315 64.5248 49.4315 62.7082C49.4315 60.8876 47.957 59.4132 46.1404 59.4132Z" fill="#3A52D6"/>
<path d="M29.3382 48.6338L29.8235 49.1213L32.5769 46.3719L32.0854 45.8825L29.3321 43.1331L24.613 38.418H19.1123L26.5807 45.8865L29.3382 48.6338Z" fill="#3A52D6"/>
<path d="M23.1325 62.159L34.011 51.2866L36.6617 48.6339L39.4171 45.8865L46.8876 38.418H41.3869L36.6678 43.1331L33.9145 45.8824L28.5084 51.2844L20.5102 59.2765L20.3248 59.4619C20.1717 59.4397 20.0207 59.4136 19.8596 59.4136C18.0428 59.4136 16.5664 60.888 16.5664 62.7088C16.5664 64.5256 18.0428 65.9999 19.8616 65.9999C21.6784 65.9999 23.1527 64.5255 23.1527 62.7088C23.1527 62.5295 23.1285 62.3583 23.1004 62.1892L23.1325 62.159ZM33.0583 48.5171C33.5639 48.5171 33.9747 48.9281 33.9747 49.4316C33.9747 49.9392 33.5637 50.35 33.0583 50.35C32.5528 50.35 32.1419 49.9391 32.1419 49.4316C32.1419 48.9281 32.5527 48.5171 33.0583 48.5171Z" fill="#3A52D6"/>
</svg>
