<svg width="739" height="129" viewBox="0 0 739 129" fill="none" xmlns="http://www.w3.org/2000/svg">
<path d="M282.9 53.9551H267.035C266.745 51.9025 266.153 50.0794 265.26 48.4856C264.366 46.8677 263.219 45.4913 261.819 44.3564C260.418 43.2214 258.8 42.3521 256.965 41.7484C255.154 41.1447 253.186 40.8429 251.061 40.8429C247.222 40.8429 243.877 41.7967 241.028 43.7044C238.178 45.5879 235.969 48.3407 234.399 51.9629C232.83 55.5609 232.045 59.9316 232.045 65.0751C232.045 70.3635 232.83 74.8066 234.399 78.4047C235.993 82.0027 238.214 84.7193 241.064 86.5545C243.913 88.3897 247.21 89.3074 250.952 89.3074C253.053 89.3074 254.997 89.0297 256.784 88.4743C258.595 87.9189 260.201 87.1099 261.602 86.0474C263.002 84.9608 264.161 83.6447 265.079 82.0993C266.021 80.5538 266.673 78.791 267.035 76.8109L282.9 76.8833C282.489 80.2882 281.463 83.5723 279.821 86.7356C278.203 89.8748 276.018 92.688 273.265 95.1752C270.536 97.6383 267.276 99.5943 263.485 101.043C259.718 102.468 255.456 103.18 250.699 103.18C244.082 103.18 238.166 101.683 232.95 98.6887C227.759 95.6944 223.653 91.3599 220.635 85.6852C217.641 80.0105 216.143 73.1404 216.143 65.0751C216.143 56.9856 217.665 50.1035 220.707 44.4288C223.75 38.7541 227.879 34.4316 233.095 31.4615C238.311 28.4672 244.179 26.97 250.699 26.97C254.997 26.97 258.982 27.5737 262.652 28.7811C266.347 29.9885 269.619 31.7512 272.468 34.0694C275.317 36.3635 277.636 39.1767 279.423 42.5091C281.234 45.8414 282.393 49.6568 282.9 53.9551ZM291.817 102.166V46.5297H307.247V102.166H291.817ZM299.568 39.3578C297.274 39.3578 295.306 38.5971 293.664 37.0758C292.046 35.5304 291.237 33.6831 291.237 31.5339C291.237 29.4089 292.046 27.5858 293.664 26.0645C295.306 24.519 297.274 23.7463 299.568 23.7463C301.862 23.7463 303.818 24.519 305.436 26.0645C307.078 27.5858 307.899 29.4089 307.899 31.5339C307.899 33.6831 307.078 35.5304 305.436 37.0758C303.818 38.5971 301.862 39.3578 299.568 39.3578ZM332.998 70.0012V102.166H317.568V46.5297H332.274V56.3457H332.926C334.157 53.1099 336.222 50.5502 339.12 48.6667C342.017 46.7591 345.531 45.8052 349.66 45.8052C353.524 45.8052 356.892 46.6504 359.766 48.3407C362.64 50.0311 364.873 52.4458 366.467 55.585C368.061 58.7001 368.858 62.4189 368.858 66.7413V102.166H353.427V69.4941C353.451 66.0893 352.582 63.4331 350.819 61.5254C349.057 59.5936 346.63 58.6277 343.539 58.6277C341.462 58.6277 339.627 59.0744 338.033 59.9679C336.464 60.8613 335.232 62.1653 334.339 63.8798C333.469 65.5701 333.022 67.6106 332.998 70.0012ZM404.334 103.253C398.611 103.253 393.685 102.094 389.556 99.7754C385.451 97.4331 382.287 94.1248 380.066 89.8507C377.844 85.5524 376.733 80.4693 376.733 74.6014C376.733 68.8784 377.844 63.8556 380.066 59.5332C382.287 55.2108 385.414 51.8422 389.447 49.4274C393.504 47.0126 398.261 45.8052 403.718 45.8052C407.389 45.8052 410.806 46.3968 413.969 47.5801C417.157 48.7392 419.934 50.4899 422.3 52.8322C424.691 55.1745 426.55 58.1206 427.878 61.6703C429.206 65.1958 429.87 69.3251 429.87 74.0581V78.296H382.891V68.7335H415.346C415.346 66.5119 414.863 64.5439 413.897 62.8294C412.931 61.1149 411.591 59.7747 409.876 58.8088C408.186 57.8187 406.218 57.3237 403.972 57.3237C401.63 57.3237 399.553 57.867 397.742 58.9537C395.955 60.0162 394.554 61.4529 393.54 63.264C392.526 65.051 392.007 67.0431 391.983 69.2406V78.3322C391.983 81.085 392.49 83.4636 393.504 85.4679C394.542 87.4721 396.003 89.0176 397.887 90.1042C399.77 91.1909 402.004 91.7342 404.588 91.7342C406.302 91.7342 407.872 91.4927 409.297 91.0098C410.721 90.5268 411.941 89.8024 412.955 88.8365C413.969 87.8706 414.742 86.6873 415.273 85.2868L429.544 86.2285C428.82 89.6575 427.335 92.6518 425.089 95.2115C422.868 97.747 419.994 99.7271 416.468 101.152C412.967 102.552 408.922 103.253 404.334 103.253Z" fill="white"/>
<path d="M438.19 27.9842H457.532L477.961 77.8251H478.83L499.259 27.9842H518.602V102.166H503.389V53.8826H502.773L483.575 101.804H473.216L454.019 53.7015H453.403V102.166H438.19V27.9842ZM545.059 103.216C541.509 103.216 538.346 102.601 535.569 101.369C532.792 100.113 530.595 98.2662 528.977 95.8272C527.383 93.3642 526.586 90.2974 526.586 86.627C526.586 83.536 527.154 80.9402 528.288 78.8393C529.423 76.7385 530.969 75.0481 532.925 73.7683C534.881 72.4885 537.102 71.5225 539.59 70.8706C542.101 70.2186 544.733 69.7598 547.486 69.4941C550.722 69.1561 553.33 68.8422 555.31 68.5524C557.29 68.2385 558.727 67.7797 559.62 67.176C560.514 66.5723 560.96 65.6788 560.96 64.4956V64.2782C560.96 61.9842 560.236 60.2093 558.787 58.9537C557.362 57.698 555.334 57.0701 552.702 57.0701C549.925 57.0701 547.715 57.6859 546.073 58.9174C544.431 60.1248 543.345 61.6461 542.813 63.4814L528.542 62.3223C529.266 58.9416 530.691 56.0197 532.816 53.5566C534.941 51.0694 537.682 49.1617 541.038 47.8336C544.419 46.4814 548.331 45.8052 552.774 45.8052C555.865 45.8052 558.823 46.1674 561.649 46.8919C564.498 47.6163 567.021 48.7392 569.219 50.2605C571.44 51.7818 573.191 53.7377 574.471 56.1284C575.751 58.4948 576.391 61.3322 576.391 64.6404V102.166H561.757V94.4508H561.323C560.429 96.1895 559.234 97.7228 557.737 99.051C556.239 100.355 554.44 101.381 552.34 102.13C550.239 102.854 547.812 103.216 545.059 103.216ZM549.478 92.5673C551.748 92.5673 553.752 92.1206 555.491 91.2271C557.229 90.3095 558.594 89.0779 559.584 87.5325C560.574 85.987 561.069 84.2363 561.069 82.2804V76.3762C560.586 76.6902 559.922 76.9799 559.077 77.2456C558.256 77.487 557.326 77.7164 556.288 77.9338C555.249 78.127 554.211 78.3081 553.173 78.4771C552.134 78.622 551.193 78.7548 550.347 78.8755C548.536 79.1412 546.955 79.5637 545.602 80.1433C544.25 80.7228 543.2 81.5076 542.451 82.4977C541.703 83.4636 541.328 84.671 541.328 86.1199C541.328 88.2207 542.089 89.8265 543.61 90.9373C545.156 92.024 547.112 92.5673 549.478 92.5673ZM615.915 46.5297V58.1206H582.41V46.5297H615.915ZM590.017 33.2001H605.447V85.0694C605.447 86.4941 605.664 87.6049 606.099 88.4018C606.534 89.1745 607.137 89.7179 607.91 90.0318C608.707 90.3457 609.625 90.5027 610.663 90.5027C611.387 90.5027 612.112 90.4423 612.836 90.3216C613.561 90.1767 614.116 90.068 614.502 89.9956L616.929 101.478C616.156 101.719 615.07 101.997 613.669 102.311C612.269 102.649 610.566 102.854 608.562 102.927C604.843 103.072 601.583 102.577 598.782 101.442C596.005 100.307 593.844 98.5439 592.299 96.1532C590.753 93.7626 589.992 90.7441 590.017 87.0978V33.2001ZM648.467 103.253C642.768 103.253 637.866 102.045 633.761 99.6305C629.68 97.1916 626.54 93.8109 624.343 89.4885C622.17 85.166 621.083 80.1916 621.083 74.5652C621.083 68.8663 622.182 63.8677 624.379 59.5694C626.601 55.247 629.752 51.8784 633.833 49.4636C637.914 47.0247 642.768 45.8052 648.394 45.8052C653.248 45.8052 657.498 46.6866 661.144 48.4494C664.79 50.2122 667.676 52.6873 669.801 55.8748C671.926 59.0623 673.097 62.8052 673.315 67.1035H658.754C658.343 64.3265 657.256 62.0929 655.494 60.4025C653.755 58.688 651.473 57.8308 648.648 57.8308C646.257 57.8308 644.168 58.4828 642.381 59.7868C640.619 61.0666 639.242 62.938 638.252 65.4011C637.262 67.8642 636.767 70.8464 636.767 74.3478C636.767 77.8975 637.25 80.916 638.216 83.4032C639.206 85.8904 640.594 87.786 642.381 89.09C644.168 90.394 646.257 91.046 648.648 91.046C650.411 91.046 651.992 90.6838 653.393 89.9593C654.817 89.2349 655.989 88.1845 656.906 86.8081C657.848 85.4075 658.464 83.7292 658.754 81.7733H673.315C673.073 86.0233 671.914 89.7662 669.837 93.002C667.785 96.2136 664.947 98.725 661.325 100.536C657.703 102.347 653.417 103.253 648.467 103.253ZM696.584 70.0012V102.166H681.154V27.9842H696.15V56.3457H696.802C698.057 53.0616 700.086 50.4899 702.887 48.6305C705.688 46.747 709.202 45.8052 713.428 45.8052C717.291 45.8052 720.66 46.6504 723.533 48.3407C726.431 50.0069 728.677 52.4096 730.271 55.5488C731.888 58.6639 732.685 62.3947 732.661 66.7413V102.166H717.231V69.4941C717.255 66.0652 716.386 63.3968 714.623 61.4892C712.884 59.5815 710.445 58.6277 707.306 58.6277C705.205 58.6277 703.346 59.0744 701.728 59.9679C700.134 60.8613 698.879 62.1653 697.961 63.8798C697.067 65.5701 696.609 67.6106 696.584 70.0012Z" fill="#3A52D6"/>
<rect width="168" height="129" rx="30" fill="#3A52D6"/>
<path d="M110.071 68.7828L63.9392 92.7807C60.0242 94.8152 55 92.3518 55 88.2503V40.2543C55 36.1593 60.017 33.6893 63.9392 35.7303L110.071 59.7283C110.962 60.1841 111.702 60.8429 112.217 61.638C112.732 62.4331 113.003 63.3361 113.003 64.2555C113.003 65.1749 112.732 66.0779 112.217 66.873C111.702 67.6681 110.962 68.3269 110.071 68.7828Z" fill="white"/>
</svg>
