<svg width="114" height="114" viewBox="0 0 114 114" fill="none" xmlns="http://www.w3.org/2000/svg">
<g clip-path="url(#clip0_78_160)">
<path d="M65.9669 0.336304L65.9221 25.4185L65.8773 50.5007L63.817 44.6781V44.6631L61.1445 100.501C63.7722 107.906 65.1756 111.863 65.1905 111.878C65.2055 111.892 66.6985 111.982 68.505 112.072C73.9693 112.34 80.7475 112.923 85.8983 113.565C87.0927 113.714 88.1079 113.789 88.1826 113.729C88.2572 113.669 88.2721 88.139 88.2572 56.9803L88.2124 0.336304H65.9669Z" fill="#B1060F" stroke="black" stroke-width="1.04771"/>
<path d="M25.731 0.261635V56.9654C25.731 88.1539 25.7608 113.699 25.8056 113.744C25.8504 113.789 27.7764 113.594 30.1054 113.341C32.4345 113.087 35.6444 112.758 37.2419 112.624C39.6904 112.415 47.0359 111.952 47.872 111.937C48.1258 111.937 48.1407 110.668 48.1706 87.915L48.2154 63.8928L49.992 68.9093C50.2608 69.6856 50.3503 69.9245 50.6191 70.6859L53.2915 14.8631C52.7242 13.2656 53.0228 14.1016 52.3808 12.2802C50.201 6.11415 48.3497 0.903617 48.2751 0.664739L48.1258 0.246704H25.731V0.261635Z" fill="#B1060F" stroke="black" stroke-width="1.04771"/>
<path d="M65.9669 0.336304L65.9221 25.4185L65.8773 50.5007L63.817 44.6781V44.6631L61.1445 100.501C63.7722 107.906 65.1756 111.863 65.1905 111.878C65.2055 111.892 66.6985 111.982 68.505 112.072C73.9693 112.34 80.7475 112.923 85.8983 113.565C87.0927 113.714 88.1079 113.789 88.1826 113.729C88.2572 113.669 88.2721 88.139 88.2572 56.9803L88.2124 0.336304H65.9669Z" fill="#B1060F" stroke="black" stroke-width="1.04771"/>
<path d="M25.731 0.261635V56.9654C25.731 88.1539 25.7608 113.699 25.8056 113.744C25.8504 113.789 27.7764 113.594 30.1054 113.341C32.4345 113.087 35.6444 112.758 37.2419 112.624C39.6904 112.415 47.0359 111.952 47.872 111.937C48.1258 111.937 48.1407 110.668 48.1706 87.915L48.2154 63.8928L49.992 68.9093C50.2608 69.6856 50.3503 69.9245 50.6191 70.6859L53.2915 14.8631C52.7242 13.2656 53.0228 14.1016 52.3808 12.2802C50.201 6.11415 48.3497 0.903617 48.2751 0.664739L48.1258 0.246704H25.731V0.261635Z" fill="#B1060F" stroke="black" stroke-width="1.04771"/>
<path d="M25.731 0.261635V32.0922L48.1557 91.5729C48.1557 90.2142 48.1557 89.4677 48.1706 87.915L48.2154 63.8928L49.992 68.9093C59.8458 96.858 65.1459 111.848 65.1757 111.878C65.1907 111.892 66.6836 111.982 68.4902 112.072C73.9545 112.34 80.7327 112.923 85.8835 113.565C87.0779 113.714 88.0931 113.789 88.1678 113.729C88.2126 113.684 88.2424 101.173 88.2424 83.5107L65.9371 19.342L65.9222 25.4185L65.8774 50.5007L63.8171 44.6781C61.8016 38.9898 60.4579 35.1827 52.351 12.2802C50.1712 6.11415 48.3199 0.903618 48.2452 0.664739L48.0959 0.246704H25.731V0.261635Z" fill="url(#paint0_radial_78_160)"/>
<path d="M25.731 0.261635L48.2004 63.9376V63.9078L49.9771 68.9242C59.8458 96.858 65.1459 111.848 65.1757 111.878C65.1907 111.892 66.6837 111.982 68.4902 112.072C73.9545 112.34 80.7327 112.923 85.8835 113.565C87.063 113.714 88.0931 113.789 88.1528 113.729L65.8774 50.4858V50.5007L63.8171 44.6781C61.8016 38.9898 60.4579 35.1827 52.351 12.2802C50.1712 6.11415 48.3199 0.903618 48.2452 0.664739L48.0959 0.246704H36.9134L25.731 0.261635Z" fill="#E50914"/>
</g>
<defs>
<radialGradient id="paint0_radial_78_160" cx="0" cy="0" r="1" gradientTransform="matrix(3.89307 -1.34815 -49.379 -142.61 55.9401 56.3399)" gradientUnits="userSpaceOnUse">
<stop/>
<stop offset="1" stop-opacity="0"/>
</radialGradient>
<clipPath id="clip0_78_160">
<rect width="114" height="114" fill="white"/>
</clipPath>
</defs>
</svg>
