<svg width="56" height="56" viewBox="0 0 56 56" fill="none" xmlns="http://www.w3.org/2000/svg">
<g clip-path="url(#clip0_90_1020)">
<path d="M28 56C43.464 56 56 43.464 56 28C56 12.536 43.464 0 28 0C12.536 0 0 12.536 0 28C0 43.464 12.536 56 28 56Z" fill="#6DA544"/>
<path d="M28 10.9565L51.1304 28L28 45.0435L4.86963 28L28 10.9565Z" fill="#FFDA44"/>
<path d="M28.0001 37.739C33.3788 37.739 37.7391 33.3787 37.7391 27.9999C37.7391 22.6212 33.3788 18.2609 28.0001 18.2609C22.6213 18.2609 18.261 22.6212 18.261 27.9999C18.261 33.3787 22.6213 37.739 28.0001 37.739Z" fill="#F0F0F0"/>
<path d="M23.1303 27.3912C21.4368 27.3912 19.8024 27.6488 18.2639 28.1268C18.3321 33.4468 22.6637 37.7391 27.9999 37.7391C31.2996 37.7391 34.2137 36.0966 35.9754 33.5863C32.9614 29.8132 28.3238 27.3912 23.1303 27.3912Z" fill="#0052B4"/>
<path d="M37.5585 29.8659C37.6758 29.2617 37.7391 28.6384 37.7391 27.9999C37.7391 22.6211 33.3787 18.2609 28 18.2609C23.9866 18.2609 20.5413 20.6891 19.0503 24.1561C20.3683 23.883 21.7328 23.7391 23.1305 23.7391C28.7871 23.739 33.9043 26.0904 37.5585 29.8659Z" fill="#0052B4"/>
</g>
<defs>
<clipPath id="clip0_90_1020">
<rect width="56" height="56" fill="white"/>
</clipPath>
</defs>
</svg>
