<svg width="56" height="56" viewBox="0 0 56 56" fill="none" xmlns="http://www.w3.org/2000/svg">
<g clip-path="url(#clip0_90_909)">
<path d="M28 56C36.959 56 44.928 51.7889 50.053 45.2426H35.3058C33.4021 51.5886 32.3396 56 28 56Z" fill="#C42126"/>
<path d="M26.3399 55.9518C26.3344 55.9518 26.3294 55.9509 26.324 55.9509C26.3294 55.9509 26.3349 55.9518 26.3399 55.9518Z" fill="#C42126"/>
<path d="M35.3058 10.7574H50.0533C44.9279 4.212 36.9587 0 28 0C32.3396 0 33.4021 4.41133 35.3058 10.7574Z" fill="#C42126"/>
<path d="M26.324 0.0499774C26.3294 0.0499774 26.3344 0.0491274 26.3399 0.0491274C26.3349 0.049006 26.3294 0.049006 26.324 0.0499774Z" fill="#C42126"/>
<path d="M50.0535 10.7574H35.3057C38.282 20.6776 38.282 35.3238 35.3057 45.2425H50.0522C53.7748 40.4889 55.9999 34.5067 55.9999 28.0002C56.0004 21.4942 53.7751 15.5115 50.0535 10.7574Z" fill="#FFC40C"/>
<path d="M27.9999 56C27.4429 56 26.8893 55.9837 26.3394 55.9518C26.8971 55.9828 27.4517 56 27.9999 56Z" fill="#C42126"/>
<path d="M26.3394 0.0490634C26.8892 0.0163151 27.4429 0 27.9999 0C27.4517 0 26.8971 0.0180884 26.3394 0.0490634Z" fill="#C42126"/>
<path d="M37.3653 45.2426H5.94775C10.7504 51.3777 18.0523 55.4619 26.3237 55.9509C26.329 55.9509 26.3339 55.9517 26.3392 55.9517C26.8892 55.9835 27.4427 56 27.9998 56C32.3395 56 35.4612 51.5886 37.3653 45.2426Z" fill="#D32030"/>
<path d="M5.94775 10.7574H37.3655C35.4612 4.41133 32.3395 0 27.9999 0C27.4428 0 26.8893 0.0163151 26.3393 0.0490634C26.334 0.0490634 26.3292 0.049891 26.3238 0.049891C18.0523 0.538515 10.7504 4.62319 5.94775 10.7574Z" fill="#D32030"/>
<path d="M0 28.0002C0 34.5067 2.22511 40.4889 5.94766 45.2425H37.3654C40.3417 35.3233 40.3417 20.677 37.3654 10.7574H5.94766C2.22511 15.5115 0 21.4942 0 28.0002Z" fill="#FFD034"/>
</g>
<defs>
<clipPath id="clip0_90_909">
<rect width="56" height="56" fill="white"/>
</clipPath>
</defs>
</svg>
