<svg width="56" height="56" viewBox="0 0 56 56" fill="none" xmlns="http://www.w3.org/2000/svg">
<path d="M1.6626 28.0001C1.6626 39.4626 9.0126 49.1751 19.1626 52.7626V3.23755C9.0126 6.82505 1.6626 16.5376 1.6626 28.0001Z" fill="#3145A9"/>
<path d="M54.1626 28.0001C54.1626 16.5376 46.9001 6.82505 36.6626 3.23755V52.7626C46.9001 49.1751 54.1626 39.4626 54.1626 28.0001Z" fill="#ED4C5C"/>
<path d="M19.1626 52.7625C21.8751 53.725 24.8501 54.25 27.9126 54.25C30.9751 54.25 33.9501 53.725 36.6626 52.7625V3.2375C33.9501 2.275 31.0626 1.75 27.9126 1.75C24.7626 1.75 21.8751 2.275 19.1626 3.2375V52.7625Z" fill="white"/>
</svg>
