<svg width="56" height="56" viewBox="0 0 56 56" fill="none" xmlns="http://www.w3.org/2000/svg">
<g clip-path="url(#clip0_90_1155)">
<path d="M37.3349 54.3999L34.0674 45.3403C37.0835 35.3868 37.0835 20.6134 34.0674 10.6594L37.3349 1.60077C48.2084 5.44571 56.0001 15.8105 56.0001 28.001C56.0001 40.1896 48.2084 50.5548 37.3349 54.3999Z" fill="#E63026"/>
<path d="M37.3348 45.3402V54.3999C34.4147 55.4325 31.274 55.9998 27.9998 55.9998C32.3174 55.9998 26.3308 41.367 37.3348 45.3402Z" fill="#E4E4E4"/>
<path d="M27.9997 0.000226021C31.2739 0.000226021 34.4147 0.567456 37.3348 1.60025V10.6589C26.4413 11.7461 27.9997 0.000226021 27.9997 0.000226021Z" fill="#E4E4E4"/>
<path d="M0 28.0006C0 15.7693 7.84464 5.37722 18.7744 1.56325V54.436C7.84464 50.6221 0 40.23 0 28.0006Z" fill="#359846"/>
<path d="M37.3347 45.3403V10.6595C40.3512 20.6134 40.3512 35.387 37.3347 45.3403Z" fill="#EF4C4C"/>
<path d="M37.3348 10.659V45.3402C35.4285 51.6331 32.3174 55.9998 27.9998 55.9998C24.7663 55.9998 21.664 55.4445 18.7744 54.436V1.56301C21.664 0.554573 24.7663 0.000110626 27.9998 0.000110626C32.3174 0.000228882 35.4285 4.36689 37.3348 10.659Z" fill="#F3F4F5"/>
</g>
<defs>
<clipPath id="clip0_90_1155">
<rect width="56" height="56" fill="white" transform="matrix(1 0 0 -1 0 56)"/>
</clipPath>
</defs>
</svg>
