<svg width="54" height="54" viewBox="0 0 54 54" fill="none" xmlns="http://www.w3.org/2000/svg">
<g clip-path="url(#clip0_90_1027)">
<path d="M27.0015 -0.000526428C41.9126 -0.000526428 54.0004 12.0873 54.0004 26.9983C54.0004 41.9094 41.9126 53.9972 27.0015 53.9972C12.0905 53.9972 0.00268555 41.9094 0.00268555 26.9983C0.00268555 12.0873 12.0905 -0.000526428 27.0015 -0.000526428Z" fill="white"/>
<path d="M27.0015 -0.000526428C41.9126 -0.000526428 54.0004 12.0873 54.0004 26.9983C54.0004 41.9094 41.9126 53.9972 27.0015 53.9972C12.0905 53.9972 0.00268555 41.9094 0.00268555 26.9983C0.00268555 12.0873 12.0905 -0.000526428 27.0015 -0.000526428Z" fill="white"/>
<path d="M52.4569 36.0022C52.4539 36.0107 52.4513 36.0179 52.4483 36.0257C48.9927 45.7691 40.1044 52.9376 29.4248 53.8892C33.5571 51.6237 34.7639 44.4462 35.8213 36.0023C36.5435 30.2346 36.5482 23.8795 35.835 18.1047C34.7866 9.61504 33.5747 2.38692 29.4249 0.11203C40.1237 1.06531 49.0248 8.25854 52.4668 18.028C52.4758 18.054 52.4834 18.0796 52.4928 18.1047C53.4648 20.8907 53.9998 23.8825 53.9998 26.9997C53.9998 30.1579 53.4528 33.1865 52.4569 36.0022Z" fill="#EFECEC"/>
<path d="M37.2113 36.0022C36.1545 44.4463 33.5573 51.6236 29.4247 53.8891C28.6253 53.9599 27.817 54 26.9994 54C15.254 54 5.26536 46.4985 1.55133 36.0257C1.54836 36.0181 1.54574 36.0108 1.54278 36.0022C0.546977 33.1865 0 30.1579 0 26.9998C0 23.8821 0.535007 20.8907 1.50698 18.1047C1.51599 18.0795 1.52408 18.054 1.53297 18.028C5.23253 7.52829 15.2348 0.000461578 26.9993 0.000461578C27.817 0.000461578 28.6253 0.0405846 29.4246 0.112179C33.5743 2.38696 36.1765 9.61519 37.2249 18.1048C37.9382 23.88 37.9335 30.2347 37.2113 36.0022Z" fill="#F3F2F2"/>
<path d="M27 16.3929C32.8581 16.3929 37.6071 21.1419 37.6071 27C37.6071 32.8582 32.8581 37.6072 27 37.6072C21.1418 37.6072 16.3928 32.8582 16.3928 27C16.3928 21.1419 21.1418 16.3929 27 16.3929Z" fill="#EC1C24"/>
</g>
<defs>
<clipPath id="clip0_90_1027">
<rect width="54" height="54" fill="white" transform="matrix(1 0 0 -1 0 54)"/>
</clipPath>
</defs>
</svg>
