<svg width="56" height="56" viewBox="0 0 56 56" fill="none" xmlns="http://www.w3.org/2000/svg">
<path d="M28 54.25C42.4975 54.25 54.25 42.4975 54.25 28C54.25 13.5025 42.4975 1.75 28 1.75C13.5025 1.75 1.75 13.5025 1.75 28C1.75 42.4975 13.5025 54.25 28 54.25Z" fill="#F5F5F5"/>
<path d="M20.475 29.4875C22.925 31.15 26.3375 30.45 28 28C29.6625 25.55 32.9875 24.85 35.525 26.5125C37.8875 28.0875 38.5875 31.15 37.275 33.5125C40.1625 28.6125 38.85 22.225 33.95 18.9875C28.9625 15.6625 22.225 16.975 18.9 21.9625C18.8125 22.1375 18.725 22.3125 18.6375 22.4C17.4125 24.9375 18.2 27.9125 20.475 29.4875Z" fill="#F43E50"/>
<path d="M35.5249 26.5125C33.0749 24.85 29.6624 25.55 27.9999 28C26.3374 30.45 23.0124 31.15 20.4749 29.4875C18.1124 27.9125 17.4124 24.85 18.7249 22.4875C15.7499 27.3875 17.1499 33.775 22.0499 37.0125C27.0374 40.3375 33.7749 39.025 37.0999 34.0375C37.1874 33.8625 37.2749 33.6875 37.3624 33.6C38.5874 31.0625 37.7999 28.0875 35.5249 26.5125Z" fill="#426EC1"/>
<path d="M6.8251 20.3875L12.8626 11.375L12.2501 10.9375L11.6376 10.5875L5.6001 19.6L6.2126 19.95L6.8251 20.3875Z" fill="#3E4347"/>
<path d="M8.4875 21.5251L9.1 21.8751L15.05 12.8626L14.525 12.5126L13.9125 12.0751L7.875 21.0876L8.4875 21.5251Z" fill="#3E4347"/>
<path d="M16.1001 13.5625L10.1501 22.575L10.7626 23.0125L11.3751 23.3625L17.3251 14.35L16.7126 14L16.1001 13.5625Z" fill="#3E4347"/>
<path d="M42.4377 37.1876L43.0502 37.6251L45.8502 33.4251L45.2377 32.9876L44.6252 32.6376L41.8252 36.8376L42.4377 37.1876Z" fill="#3E4347"/>
<path d="M49.175 35.6125L46.375 39.8125L46.9875 40.25L47.6 40.6L50.4 36.4L49.7875 36.05L49.175 35.6125Z" fill="#3E4347"/>
<path d="M45.3251 39.1125L48.1251 34.9125L47.5126 34.475L46.9001 34.125L44.1001 38.325L44.7126 38.675L45.3251 39.1125Z" fill="#3E4347"/>
<path d="M42.0875 37.8001L41.475 37.4501L38.675 41.6501L39.2875 42.0001L39.9 42.4376L42.7 38.2376L42.0875 37.8001Z" fill="#3E4347"/>
<path d="M44.2752 39.2875L43.7502 38.9375L40.9502 43.1375L41.4752 43.4875L42.0877 43.925L44.8877 39.725L44.2752 39.2875Z" fill="#3E4347"/>
<path d="M45.9377 40.425L43.1377 44.625L43.7502 45.0625L44.3627 45.4125L47.1627 41.2125L46.5502 40.775L45.9377 40.425Z" fill="#3E4347"/>
<path d="M6.2126 36.05L5.6001 36.4L11.6376 45.4125L12.2501 45.0625L12.8626 44.625L6.8251 35.6125L6.2126 36.05Z" fill="#3E4347"/>
<path d="M11.725 39.2875L11.1125 39.725L13.9125 43.925L14.525 43.4875L15.05 43.1375L12.25 38.9375L11.725 39.2875Z" fill="#3E4347"/>
<path d="M10.7626 32.9876L10.1501 33.4251L16.1001 42.4376L16.7126 42.0001L17.3251 41.6501L11.3751 32.6376L10.7626 32.9876Z" fill="#3E4347"/>
<path d="M7.875 34.9125L10.675 39.1125L11.2875 38.675L11.9 38.325L9.1 34.125L8.4875 34.475L7.875 34.9125Z" fill="#3E4347"/>
<path d="M46.5502 15.225L47.1627 14.7875L44.3627 10.5875L43.7502 10.9375L43.1377 11.375L45.9377 15.575L46.5502 15.225Z" fill="#3E4347"/>
<path d="M42.0875 18.2L42.7 17.7625L39.9 13.5625L39.2875 14L38.675 14.35L41.475 18.55L42.0875 18.2Z" fill="#3E4347"/>
<path d="M46.375 16.1875L49.175 20.3875L49.7875 19.95L50.4 19.6L47.6 15.4L46.9875 15.75L46.375 16.1875Z" fill="#3E4347"/>
<path d="M47.5127 21.5251L48.1252 21.0876L42.0877 12.0751L41.4752 12.5126L40.9502 12.8626L46.9002 21.8751L47.5127 21.5251Z" fill="#3E4347"/>
<path d="M45.2377 23.0125L45.8502 22.575L43.0502 18.375L42.4377 18.8125L41.8252 19.1625L44.6252 23.3625L45.2377 23.0125Z" fill="#3E4347"/>
</svg>
