<svg width="56" height="56" viewBox="0 0 56 56" fill="none" xmlns="http://www.w3.org/2000/svg">
<g clip-path="url(#clip0_90_851)">
<path d="M55.8762 30.6189H0.126465V30.6197H55.8762V30.6189Z" fill="#C42126"/>
<path d="M52.9702 15.3336H3.03003V15.3344H52.9702V15.3336Z" fill="#C42126"/>
<path d="M54.9543 20.428H1.04419V20.4288H54.9543V20.428Z" fill="#C42126"/>
<path d="M12.0345 50.9971H43.9662L43.9679 50.9954H12.0327L12.0345 50.9971Z" fill="#C42126"/>
<path d="M28 0C27.45 0 26.9044 0.0198616 26.3628 0.0508363H29.6375C29.0954 0.0198616 28.5499 0 28 0Z" fill="#C42126"/>
<path d="M55.8832 25.5234H0.115723V25.5243H55.8832V25.5234Z" fill="#C42126"/>
<path d="M36.2757 10.2393H49.6459C48.0578 8.306 46.2121 6.59459 44.1673 5.14575H34.1274C34.9582 6.60736 35.6726 8.33201 36.2757 10.2393Z" fill="#E7E7E7"/>
<path d="M34.1273 5.14565H44.1671C40.0166 2.20435 35.0336 0.36242 29.6372 0.0507812H28.7751C31.3151 0.370459 32.4817 2.25022 34.1273 5.14565Z" fill="#DC3027"/>
<path d="M54.956 20.4284C54.4581 18.6529 53.7905 16.9494 52.97 15.3348H37.5881C37.8998 16.9702 38.1457 18.6785 38.3277 20.4284H54.956Z" fill="#E7E7E7"/>
<path d="M36.7229 15.334H52.9694C52.0436 13.513 50.9314 11.8042 49.6457 10.2396H35.4536C35.9541 11.8237 36.379 13.5325 36.7229 15.334Z" fill="#DC3027"/>
<path d="M38.917 30.6176H55.874C55.9545 29.756 56 28.8828 56 28.0004C56 27.1652 55.9563 26.3407 55.8846 25.5237H38.921C38.9762 27.2178 38.9753 28.9244 38.917 30.6176Z" fill="#E7E7E7"/>
<path d="M55.8849 25.5229C55.7315 23.7734 55.4163 22.0713 54.956 20.4293H37.6135C37.7877 22.0973 37.9027 23.8039 37.9589 25.5229H55.8849Z" fill="#DC3027"/>
<path d="M37.2957 40.8069H52.8967C53.7288 39.1941 54.4069 37.4893 54.9154 35.7125H38.0499C37.8642 37.4651 37.6121 39.1729 37.2957 40.8069Z" fill="#E7E7E7"/>
<path d="M54.9157 35.7122C55.3856 34.0707 55.7119 32.3686 55.8741 30.6187H38.3883C38.3286 32.3389 38.2102 34.045 38.0325 35.7122H54.9157Z" fill="#DC3027"/>
<path d="M43.9678 50.9953C46.0421 49.5523 47.914 47.8391 49.5273 45.9017H36.3901C35.776 47.817 35.0469 49.5389 34.2012 50.9953H43.9678Z" fill="#E7E7E7"/>
<path d="M35.8958 45.9014H49.5272C50.8279 44.3386 51.9571 42.6298 52.8965 40.807H37.181C36.8322 42.6098 36.4029 44.3194 35.8958 45.9014Z" fill="#DC3027"/>
<path d="M26.9852 55.9801C26.9286 55.9784 26.8721 55.9758 26.8154 55.974C26.8721 55.9757 26.9287 55.9784 26.9852 55.9801Z" fill="#DC3027"/>
<path d="M28 56C33.9361 56 39.4364 54.147 43.9663 50.9971H33.8327C32.0342 54.0957 30.8475 56 28 56Z" fill="#DC3027"/>
<path d="M27.9997 56C27.6597 56 27.3219 55.992 26.9851 55.9801C27.3255 55.9916 27.6636 56 27.9997 56Z" fill="#C42126"/>
<path d="M35.0545 5.14575H11.8333C9.78818 6.59459 7.94282 8.30588 6.35425 10.2393H37.2023C36.5993 8.33201 35.8853 6.60736 35.0545 5.14575Z" fill="#F3F4F5"/>
<path d="M11.8333 5.14565H35.0545C33.4085 2.25022 31.3151 0.370459 28.7752 0.0507812H26.3626C20.9663 0.36242 15.9833 2.20435 11.8333 5.14565Z" fill="#E73625"/>
<path d="M1.04443 20.4284H39.2107C39.0285 18.6781 38.7827 16.9702 38.4711 15.3348H3.03036C2.20977 16.9495 1.54227 18.6529 1.04443 20.4284Z" fill="#F3F4F5"/>
<path d="M6.35428 10.2393C5.06954 11.8038 3.95635 13.5125 3.03101 15.3336H38.4713C38.1277 13.5325 37.7029 11.8238 37.2024 10.2393H6.35428Z" fill="#E73625"/>
<path d="M0.000244141 28.0004C0.000244141 28.8828 0.0462333 29.756 0.126271 30.6176H39.5529C39.6113 28.9243 39.6121 27.2182 39.5569 25.524H0.115631C0.043987 26.3407 0.000244141 27.1652 0.000244141 28.0004Z" fill="#F3F4F5"/>
<path d="M0.115723 25.5229H39.5566C39.5004 23.8036 39.385 22.0975 39.2112 20.4293H1.04414C0.58389 22.0717 0.268705 23.7734 0.115723 25.5229Z" fill="#E73625"/>
<path d="M39.1971 35.7122H1.08472C1.5932 37.4894 2.2718 39.1937 3.10339 40.8066H38.4428C38.7594 39.1729 39.0109 37.4651 39.1971 35.7122Z" fill="#F3F4F5"/>
<path d="M1.08466 35.7122H39.197C39.3744 34.045 39.4932 32.3385 39.5529 30.6187H0.126221C0.288424 32.369 0.615195 34.0707 1.08466 35.7122Z" fill="#E73625"/>
<path d="M12.0326 50.9953H34.9692C35.8149 49.5385 36.5444 47.817 37.1581 45.9017H6.47314C8.08643 47.8391 9.9578 49.5523 12.0326 50.9953Z" fill="#F3F4F5"/>
<path d="M3.10376 40.8069C4.04329 42.6297 5.17233 44.3385 6.47303 45.9013H37.158C37.6647 44.3194 38.0939 42.6098 38.4427 40.8069H3.10376Z" fill="#E73625"/>
<path d="M26.8151 55.9738C26.8718 55.9756 26.9283 55.9782 26.9849 55.98C27.3218 55.9919 27.6596 55.9998 27.9995 55.9998C30.8472 55.9998 33.1691 54.0957 34.968 50.9969H12.0342C16.2603 53.9362 21.3331 55.7453 26.8151 55.9738Z" fill="#E73625"/>
<path d="M27.421 0.0145264C13.0725 0.306421 1.37775 11.3851 0.119141 25.4773H27.4214V0.0145264H27.421Z" fill="#283991"/>
<path d="M5.60265 15.8641L6.02921 17.1776H7.41125L6.2932 17.9898L6.72023 19.3042L5.60265 18.4915L4.48544 19.3042L4.91164 17.9898L3.79395 17.1776H5.17598L5.60265 15.8641Z" fill="#EFEFEF"/>
<path d="M5.60265 20.5045L6.02921 21.8188H7.41125L6.2932 22.631L6.72023 23.9454L5.60265 23.1328L4.48544 23.9454L4.91164 22.631L3.79395 21.8188H5.17598L5.60265 20.5045Z" fill="#EFEFEF"/>
<path d="M10.244 8.90186L10.6707 10.2158H12.0522L10.9345 11.0285L11.3612 12.3419L10.244 11.5302L9.12631 12.3419L9.55298 11.0285L8.43481 10.2158H9.81685L10.244 8.90186Z" fill="#EFEFEF"/>
<path d="M10.244 13.5431L10.6707 14.857H12.0522L10.9345 15.6688L11.3612 16.9832L10.244 16.1714L9.12631 16.9832L9.55298 15.6688L8.43481 14.857H9.81685L10.244 13.5431Z" fill="#EFEFEF"/>
<path d="M10.244 18.1843L10.6707 19.4987H12.0522L10.9345 20.31L11.3612 21.6244L10.244 20.8119L9.12631 21.6244L9.55298 20.31L8.43481 19.4987H9.81685L10.244 18.1843Z" fill="#EFEFEF"/>
<path d="M2.07899 21.6244L1.65196 20.3099L2.76965 19.4982H1.38844L1.35747 19.4023C1.20579 19.8715 1.06876 20.3462 0.942383 20.8264L0.96189 20.8118L2.07899 21.6244Z" fill="#EFEFEF"/>
<path d="M4.48536 14.663L5.60258 13.8504L6.72027 14.663L6.29325 13.3486L7.41094 12.536H6.0289L5.60223 11.2225L5.17556 12.536H4.66625C4.57167 12.6793 4.48016 12.8234 4.38818 12.9688L4.91168 13.3486L4.48536 14.663Z" fill="#EFEFEF"/>
<path d="M10.2439 6.88888L11.3611 7.70061L10.9344 6.38714L12.0516 5.57458H11.2536C10.5759 6.08129 9.92196 6.61756 9.29371 7.18338L9.12524 7.70061L10.2439 6.88888Z" fill="#EFEFEF"/>
<path d="M13.7673 5.38052L14.885 4.56796L16.0022 5.38052L15.5756 4.0661L16.6928 3.25438H15.3112L15.2533 3.07751C14.7851 3.31668 14.3218 3.56554 13.869 3.83036L14.1935 4.06599L13.7673 5.38052Z" fill="#EFEFEF"/>
<path d="M14.8852 6.58167L15.3119 7.89478H16.6935L15.5758 8.70733L16.0025 10.0217L14.8852 9.20907L13.7675 10.0217L14.1942 8.70733L13.0762 7.89478H14.4581L14.8852 6.58167Z" fill="#EFEFEF"/>
<path d="M14.8852 11.2229L15.3119 12.536H16.6935L15.5758 13.3486L16.0025 14.663L14.8852 13.8503L13.7675 14.663L14.1942 13.3486L13.0762 12.536H14.4581L14.8852 11.2229Z" fill="#EFEFEF"/>
<path d="M14.8852 15.8641L15.3119 17.1776H16.6935L15.5758 17.9898L16.0025 19.3042L14.8852 18.4915L13.7675 19.3042L14.1942 17.9898L13.0762 17.1776H14.4581L14.8852 15.8641Z" fill="#EFEFEF"/>
<path d="M14.8852 20.5045L15.3119 21.8188H16.6935L15.5758 22.631L16.0025 23.9454L14.8852 23.1328L13.7675 23.9454L14.1942 22.631L13.0762 21.8188H14.4581L14.8852 20.5045Z" fill="#EFEFEF"/>
<path d="M19.5263 4.26062L19.953 5.57456H21.3346L20.2174 6.38723L20.6436 7.7007L19.5263 6.88898L18.4083 7.7007L18.8353 6.38723L17.7173 5.57456H19.0992L19.5263 4.26062Z" fill="#EFEFEF"/>
<path d="M19.5263 8.90186L19.953 10.2158H21.3346L20.2174 11.0285L20.6436 12.3419L19.5263 11.5302L18.4083 12.3419L18.8353 11.0285L17.7173 10.2158H19.0992L19.5263 8.90186Z" fill="#EFEFEF"/>
<path d="M19.5263 13.5431L19.953 14.857H21.3346L20.2174 15.6688L20.6436 16.9832L19.5263 16.1714L18.4083 16.9832L18.8353 15.6688L17.7173 14.857H19.0992L19.5263 13.5431Z" fill="#EFEFEF"/>
<path d="M19.5263 18.1843L19.953 19.4987H21.3346L20.2174 20.31L20.6436 21.6244L19.5263 20.8119L18.4083 21.6244L18.8353 20.31L17.7173 19.4987H19.0992L19.5263 18.1843Z" fill="#EFEFEF"/>
<path d="M24.1677 1.94043L24.5944 3.25437H25.9759L24.8583 4.0661L25.2849 5.38051L24.1677 4.56784L23.0497 5.38051L23.4767 4.0661L22.3586 3.25437H23.7402L24.1677 1.94043Z" fill="#EFEFEF"/>
<path d="M24.1677 6.58167L24.5944 7.89478H25.9759L24.8583 8.70733L25.2849 10.0217L24.1677 9.20907L23.0497 10.0217L23.4767 8.70733L22.3586 7.89478H23.7402L24.1677 6.58167Z" fill="#EFEFEF"/>
<path d="M24.1677 11.2229L24.5944 12.536H25.9759L24.8583 13.3486L25.2849 14.663L24.1677 13.8503L23.0497 14.663L23.4767 13.3486L22.3586 12.536H23.7402L24.1677 11.2229Z" fill="#EFEFEF"/>
<path d="M24.1677 15.8641L24.5944 17.1776H25.9759L24.8583 17.9898L25.2849 19.3042L24.1677 18.4915L23.0497 19.3042L23.4767 17.9898L22.3586 17.1776H23.7402L24.1677 15.8641Z" fill="#EFEFEF"/>
<path d="M24.1677 20.5045L24.5944 21.8188H25.9759L24.8583 22.631L25.2849 23.9454L24.1677 23.1328L23.0497 23.9454L23.4767 22.631L22.3586 21.8188H23.7402L24.1677 20.5045Z" fill="#EFEFEF"/>
</g>
<defs>
<clipPath id="clip0_90_851">
<rect width="56" height="56" fill="white"/>
</clipPath>
</defs>
</svg>
