<svg width="50" height="61" viewBox="0 0 50 61" fill="none" xmlns="http://www.w3.org/2000/svg">
<g filter="url(#filter0_d_348_346)">
<path d="M39.2665 23.5813C39.2419 23.5623 39.2125 23.5481 39.188 23.5291C39.7277 22.5519 39.9534 21.3992 39.7816 20.4457C39.6786 19.8717 39.4382 19.3783 39.0947 18.9846C39.5412 18.1972 39.5903 17.348 39.4186 16.6412C39.0113 14.9714 37.348 13.6669 35.6308 13.6669C35.042 13.6669 34.4827 13.814 33.9822 14.0891C33.3149 13.4866 32.4073 13.1166 31.4063 13.1166C31.2003 13.1166 30.9991 13.1356 30.8029 13.1688C30.7096 13.0075 30.6066 12.8652 30.5036 12.7466C29.8363 11.9592 28.7912 11.5275 27.5597 11.5275C26.7256 11.5275 25.8621 11.7315 25.1408 12.092C24.1743 10.74 22.8544 10 21.3432 10C20.6367 10 19.9253 10.1708 19.2286 10.5076C16.9618 11.6034 16.3926 13.4819 16.481 15.1232C15.5536 15.3557 14.7294 15.9676 14.2632 16.812C13.8953 17.4809 13.7677 18.2304 13.8707 18.9988C12.5264 19.4115 11.4568 20.4077 11.2605 21.5652C11.1427 22.2578 11.3439 23.0879 12.0946 23.7426C11.6334 24.2027 11.4371 24.772 11.5941 25.4029L14.6705 37.8694C12.8257 38.8181 11.7561 40.2128 11.7561 41.8731C11.7561 42.0106 11.7659 42.1862 11.7757 42.3095C11.1378 42.7412 10.6129 43.3816 10.2988 44.1169C9.72479 45.4593 9.98974 46.9062 10.9906 47.8786C11.6874 48.5522 12.7079 48.9317 13.8707 48.9317C14.7784 48.9317 15.6714 48.6993 16.4613 48.2866C16.7508 49.0029 17.2807 49.5437 18.0069 49.833C18.8164 50.1556 19.7879 50.1319 20.568 49.8093C20.9507 50.26 21.5493 50.6537 22.2313 50.8529C22.4717 50.9241 22.8299 51 23.2567 51C24.1595 51 25.3665 50.6537 26.3871 49.1832C26.5097 49.0029 26.598 48.7989 26.6716 48.5807L34.5023 44.7952C35.0224 44.5438 35.4002 44.0837 35.5327 43.5334L39.9485 25.5072C40.1202 24.7862 39.8552 24.0414 39.2665 23.5813ZM13.5027 25.0613L16.6527 26.5224L19.312 39.3684C18.5956 38.6141 17.6781 38.0971 16.6576 37.9358L13.5027 25.0613ZM25.1555 48.3862C24.5373 49.278 23.767 49.6812 22.9231 49.5484C22.1724 49.4298 21.6425 48.927 21.5984 48.7799C21.5984 48.4906 21.4168 48.2344 21.1421 48.1206C20.8673 48.0115 20.5484 48.0731 20.3423 48.2771C20.0136 48.5949 19.204 48.7705 18.5662 48.5143C17.9725 48.2771 17.6732 47.7268 17.6732 46.8825C17.6732 46.4887 17.3445 46.1709 16.9373 46.1709C16.53 46.1709 16.2013 46.4887 16.2013 46.8825C16.2013 46.8445 16.2062 46.8018 16.2111 46.7639C15.4997 47.2667 14.6459 47.5086 13.8658 47.5086C13.1299 47.5086 12.4577 47.2952 12.0259 46.8777C10.6374 45.5352 12.0259 43.0827 13.9885 43.0827C12.6 43.0827 13.0072 39.2877 15.9511 39.2877C17.001 39.2877 17.9038 39.8333 18.522 40.6682C17.6634 41.6027 17.2464 42.7744 17.2169 42.855C17.0894 43.2298 17.2954 43.633 17.683 43.7563C18.0706 43.8797 18.4877 43.6804 18.6153 43.3057C18.8262 42.6937 19.6898 40.948 20.8624 40.948C22.0939 40.948 22.7269 41.5363 23.0409 42.0249C23.5266 42.7886 23.5708 43.8465 23.1488 44.6624C23.036 44.8806 23.0458 45.1462 23.1832 45.355C23.3156 45.5684 23.5511 45.6965 23.8063 45.6965C24.4392 45.6965 24.817 46.1377 25.0231 46.5077C25.4009 47.1955 25.4009 48.0352 25.1555 48.3862ZM24.7876 42.4518C24.6845 42.0391 24.5226 41.6406 24.292 41.2801C23.8259 40.5496 23.1537 40.0373 22.3343 39.7621L21.3825 28.7187L24.7876 30.2984V42.4518ZM28.7127 45.4593L26.7501 46.4081V30.2984L30.1552 28.7187L28.7127 45.4593ZM33.6192 43.0875L31.2248 44.2449L35.0911 26.4844L34.3551 26.7691L38.0349 25.0613L33.6192 43.0875ZM37.6621 23.2018C37.5001 23.2302 37.3382 23.2777 37.1861 23.3488L31.7302 25.882L25.7688 28.0641L13.9934 23.1638C11.3684 22.3194 13.228 20.218 15.2249 20.218C15.4702 20.218 15.7156 20.2512 15.956 20.3176C14.4203 18.088 15.8922 16.442 17.3003 16.442C17.6879 16.442 18.0755 16.5701 18.3896 16.8404C18.3896 16.8404 16.7165 13.3064 19.8811 11.7789C20.3718 11.5417 20.8624 11.4231 21.3383 11.4231C22.7661 11.4231 24.0516 12.4905 24.7876 14.6251C24.7876 13.6716 26.2202 12.9506 27.5499 12.9506C28.8697 12.9506 30.0865 13.6622 29.694 15.5739C30.0669 14.8481 30.7293 14.5397 31.4063 14.5397C32.4956 14.5397 33.6192 15.3509 33.6192 16.5226C34.154 15.4932 34.8997 15.09 35.6308 15.09C37.5934 15.09 39.4235 17.9837 36.563 19.3689C38.8249 19.3689 38.6679 21.7929 37.6621 23.2018ZM33.3149 19.3356C32.4171 19.0083 31.4456 19.0747 30.5526 19.4969C30.3907 18.3252 29.6449 17.5805 28.8305 17.2437C27.9866 16.8926 27.0249 16.9211 26.2595 17.2484C25.6511 15.7399 24.0467 14.8576 22.825 14.8576C21.3187 14.8576 19.1452 16.1241 19.1452 18.4154C19.1452 18.5292 19.1746 18.6383 19.2286 18.7332C18.0559 19.0178 17.1826 20.0425 17.1826 21.2616C17.1826 21.6553 17.5113 21.9732 17.9185 21.9732C18.3258 21.9732 18.6545 21.6553 18.6545 21.2616C18.6545 20.607 19.204 20.0757 19.8811 20.0757C20.5582 20.0757 21.1077 20.607 21.1077 21.2616C21.1077 21.3138 21.0979 21.3612 21.0881 21.4419C21.0489 21.7123 21.1715 21.9826 21.4119 22.1344C21.6474 22.2862 21.9565 22.291 22.197 22.1487C22.3981 22.0301 22.6091 21.9732 22.825 21.9732C23.5021 21.9732 24.0516 22.5045 24.0516 23.1591C24.0516 23.5528 24.3803 23.8706 24.7876 23.8706C25.1948 23.8706 25.5235 23.5528 25.5235 23.1591C25.5235 21.7217 24.3116 20.55 22.825 20.55C22.7121 20.55 22.5993 20.5595 22.4864 20.5738C22.2313 19.6677 21.4806 18.9704 20.5337 18.7427C20.5876 18.6431 20.6171 18.5387 20.6171 18.4201C20.6171 16.8974 22.1773 16.2854 22.825 16.2854C23.5757 16.2854 25.0329 17.0824 25.0329 18.5387C25.0329 18.8565 25.2537 19.1364 25.5677 19.2218C25.8866 19.3072 26.2202 19.1791 26.3969 18.9087C26.6962 18.4438 27.5793 18.2731 28.2515 18.5529C29.0414 18.8802 29.3015 19.6962 28.9826 20.8442C28.8942 21.162 29.0463 21.4988 29.3456 21.6553C29.6449 21.8119 30.0178 21.7455 30.2435 21.5035C31.1414 20.5263 32.1472 20.4314 32.7949 20.6686C33.4671 20.9153 33.8645 21.5367 33.8645 22.3337C33.8645 22.7274 34.1932 23.0452 34.6004 23.0452C35.0077 23.0452 35.3364 22.7274 35.3364 22.3337C35.3364 20.9438 34.5612 19.7958 33.3149 19.3356Z" fill="#CCCCCC"/>
</g>
<defs>
<filter id="filter0_d_348_346" x="0" y="0" width="50" height="61" filterUnits="userSpaceOnUse" color-interpolation-filters="sRGB">
<feFlood flood-opacity="0" result="BackgroundImageFix"/>
<feColorMatrix in="SourceAlpha" type="matrix" values="0 0 0 0 0 0 0 0 0 0 0 0 0 0 0 0 0 0 127 0" result="hardAlpha"/>
<feOffset/>
<feGaussianBlur stdDeviation="5"/>
<feComposite in2="hardAlpha" operator="out"/>
<feColorMatrix type="matrix" values="0 0 0 0 0.35503 0 0 0 0 0.448339 0 0 0 0 0.961538 0 0 0 1 0"/>
<feBlend mode="normal" in2="BackgroundImageFix" result="effect1_dropShadow_348_346"/>
<feBlend mode="normal" in="SourceGraphic" in2="effect1_dropShadow_348_346" result="shape"/>
</filter>
</defs>
</svg>
