<svg width="58" height="59" viewBox="0 0 58 59" fill="none" xmlns="http://www.w3.org/2000/svg">
<g filter="url(#filter0_d_345_623)">
<path d="M29 49C26.3615 49 23.8865 48.4908 21.575 47.4724C19.2635 46.4539 17.2526 45.0671 15.5423 43.3118C13.8321 41.5566 12.4808 39.4928 11.4885 37.1204C10.4962 34.748 10 32.2079 10 29.5C10 26.7921 10.4962 24.252 11.4885 21.8796C12.4808 19.5072 13.8321 17.4434 15.5423 15.6882C17.2526 13.9329 19.2635 12.5461 21.575 11.5276C23.8865 10.5092 26.3615 10 29 10C31.6385 10 34.1135 10.5092 36.425 11.5276C38.7365 12.5461 40.7474 13.9329 42.4577 15.6882C44.1679 17.4434 45.5192 19.5072 46.5115 21.8796C47.5038 24.252 48 26.7921 48 29.5C48 32.2079 47.5038 34.748 46.5115 37.1204C45.5192 39.4928 44.1679 41.5566 42.4577 43.3118C40.7474 45.0671 38.7365 46.4539 36.425 47.4724C34.1135 48.4908 31.6385 49 29 49ZM29 45.9211C30.9564 45.9211 32.7949 45.5889 34.5154 44.9244C36.236 44.2599 37.7924 43.3342 39.1847 42.1474L32.8616 35.6579H37.1077L41.2923 39.9527C42.4488 38.5237 43.3558 36.9264 44.0135 35.1606C44.6712 33.3948 45.0001 31.5079 45.0001 29.5C45.0001 24.95 43.4417 21.0756 40.325 17.8769C37.2084 14.6782 33.4333 13.0789 29 13.0789C27.0436 13.0789 25.2051 13.4164 23.4846 14.0914C21.7641 14.7664 20.2076 15.7039 18.8153 16.9039L25.1192 23.3421H20.8923L16.7077 19.0473C15.5512 20.4763 14.6442 22.0736 13.9865 23.8394C13.3288 25.6052 12.9999 27.4921 12.9999 29.5C12.9999 34.05 14.5583 37.9244 17.675 41.1231C20.7916 44.3218 24.5666 45.9211 29 45.9211ZM15.3846 33.4079L18.25 29.5L15.3846 25.5921H17.9038L19.5 27.7829L21.0961 25.5921H23.6153L20.7692 29.5L23.6153 33.4079H21.0961L19.5 31.2171L17.9038 33.4079H15.3846ZM24.8846 33.4079L27.75 29.5L24.8846 25.5921H27.4038L29 27.7829L30.5962 25.5921H33.1154L30.2692 29.5L33.1154 33.4079H30.5962L29 31.2171L27.4038 33.4079H24.8846ZM34.3847 33.4079L37.25 29.5L34.3847 25.5921H36.9039L38.5 27.7829L40.0962 25.5921H42.6154L39.7693 29.5L42.6154 33.4079H40.0962L38.5 31.2171L36.9039 33.4079H34.3847Z" fill="#CCCCCC"/>
</g>
<defs>
<filter id="filter0_d_345_623" x="0" y="0" width="58" height="59" filterUnits="userSpaceOnUse" color-interpolation-filters="sRGB">
<feFlood flood-opacity="0" result="BackgroundImageFix"/>
<feColorMatrix in="SourceAlpha" type="matrix" values="0 0 0 0 0 0 0 0 0 0 0 0 0 0 0 0 0 0 127 0" result="hardAlpha"/>
<feOffset/>
<feGaussianBlur stdDeviation="5"/>
<feComposite in2="hardAlpha" operator="out"/>
<feColorMatrix type="matrix" values="0 0 0 0 0.35503 0 0 0 0 0.448339 0 0 0 0 0.961538 0 0 0 1 0"/>
<feBlend mode="normal" in2="BackgroundImageFix" result="effect1_dropShadow_345_623"/>
<feBlend mode="normal" in="SourceGraphic" in2="effect1_dropShadow_345_623" result="shape"/>
</filter>
</defs>
</svg>
