<svg width="78" height="68" viewBox="0 0 78 68" fill="none" xmlns="http://www.w3.org/2000/svg">
<g filter="url(#filter0_d_363_356)">
<path d="M61.7092 41.0751C60.3 41.0751 58.9485 41.6371 57.9521 42.6374C56.9556 43.6377 56.3958 44.9944 56.3958 46.409V51.7429C56.3958 53.1575 56.9556 54.5142 57.9521 55.5145C58.9485 56.5148 60.3 57.0768 61.7092 57.0768C63.1184 57.0768 64.4698 56.5148 65.4663 55.5145C66.4627 54.5142 67.0225 53.1575 67.0225 51.7429V46.409C67.0225 44.9944 66.4627 43.6377 65.4663 42.6374C64.4698 41.6371 63.1184 41.0751 61.7092 41.0751ZM63.4803 51.7429C63.4803 52.2144 63.2937 52.6667 62.9615 53.0001C62.6294 53.3335 62.1789 53.5208 61.7092 53.5208C61.2394 53.5208 60.7889 53.3335 60.4568 53.0001C60.1246 52.6667 59.938 52.2144 59.938 51.7429V46.409C59.938 45.9375 60.1246 45.4852 60.4568 45.1518C60.7889 44.8184 61.2394 44.631 61.7092 44.631C62.1789 44.631 62.6294 44.8184 62.9615 45.1518C63.2937 45.4852 63.4803 45.9375 63.4803 46.409V51.7429ZM35.9088 33.9976V23.9966C35.9088 23.4661 35.6989 22.9573 35.3253 22.5822C34.9516 22.2071 34.4448 21.9964 33.9163 21.9964C33.3879 21.9964 32.8811 22.2071 32.5074 22.5822C32.1338 22.9573 31.9239 23.4661 31.9239 23.9966V31.9974H25.9464C25.4179 31.9974 24.9111 32.2081 24.5375 32.5832C24.1638 32.9583 23.9539 33.4671 23.9539 33.9976C23.9539 34.5281 24.1638 35.0368 24.5375 35.4119C24.9111 35.787 25.4179 35.9978 25.9464 35.9978H33.9163C34.4448 35.9978 34.9516 35.787 35.3253 35.4119C35.6989 35.0368 35.9088 34.5281 35.9088 33.9976ZM55.8338 13.9956C55.3053 13.9956 54.7985 14.2063 54.4249 14.5815C54.0512 14.9566 53.8413 15.4653 53.8413 15.9958V20.7443C51.7653 17.5991 48.9799 14.9895 45.7111 13.1273C42.4423 11.2651 38.7823 10.2027 35.028 10.0263C31.2736 9.84983 27.5307 10.5644 24.103 12.1119C20.6752 13.6594 17.6592 15.9964 15.2995 18.9331C12.9399 21.8698 11.3031 25.3236 10.522 29.0142C9.74094 32.7048 9.83755 36.5283 10.804 40.1744C11.7705 43.8205 13.5796 47.1865 16.0845 49.9994C18.5894 52.8122 21.7196 54.9927 25.2211 56.3638C25.4525 56.4534 25.6984 56.4995 25.9464 56.4998C26.4113 56.5005 26.8619 56.338 27.2201 56.0403C27.5782 55.7427 27.8214 55.3286 27.9075 54.8699C27.9936 54.4112 27.9172 53.9368 27.6915 53.5287C27.4658 53.1206 27.105 52.8046 26.6716 52.6354C23.6989 51.4815 21.0453 49.6284 18.9336 47.2319C16.8218 44.8354 15.3136 41.9652 14.5356 38.8625C13.7575 35.7597 13.7323 32.5148 14.462 29.4002C15.1917 26.2856 16.6551 23.3922 18.7293 20.9628C20.8034 18.5335 23.4279 16.6391 26.3823 15.4387C29.3368 14.2383 32.535 13.7669 35.7085 14.0641C38.8819 14.3613 41.9381 15.4184 44.6204 17.1467C47.3026 18.875 49.5328 21.224 51.1235 23.9966H45.8713C45.3429 23.9966 44.8361 24.2073 44.4624 24.5824C44.0887 24.9575 43.8788 25.4663 43.8788 25.9968C43.8788 26.5273 44.0887 27.036 44.4624 27.4111C44.8361 27.7863 45.3429 27.997 45.8713 27.997H51.8488C53.4341 27.997 54.9545 27.3648 56.0755 26.2395C57.1965 25.1141 57.8263 23.5879 57.8263 21.9964V15.9958C57.8263 15.4653 57.6164 14.9566 57.2427 14.5815C56.869 14.2063 56.3622 13.9956 55.8338 13.9956ZM40.3338 41.2104C40.01 41.0758 39.6538 41.0406 39.3102 41.1093C38.9666 41.178 38.6509 41.3475 38.4033 41.5962L33.09 46.9301C32.7674 47.2654 32.5888 47.7145 32.5929 48.1807C32.5969 48.6468 32.7832 49.0928 33.1116 49.4224C33.4399 49.7521 33.8841 49.939 34.3485 49.9431C34.8129 49.9472 35.2603 49.7679 35.5943 49.4441L37.8843 47.1452V55.2988C37.8843 55.7704 38.0709 56.2226 38.4031 56.556C38.7352 56.8895 39.1857 57.0768 39.6554 57.0768C40.1252 57.0768 40.5756 56.8895 40.9078 56.556C41.2399 56.2226 41.4265 55.7704 41.4265 55.2988V42.8532C41.4266 42.5016 41.3228 42.1579 41.1283 41.8655C40.9338 41.5731 40.6573 41.3451 40.3338 41.2104Z" fill="#CCCCCC"/>
</g>
<g filter="url(#filter1_d_363_356)">
<path d="M48.8088 53.4867C49.2865 53.0631 49.8488 52.6359 50.3776 52.2302L50.3797 52.2286C52.3621 50.714 54.6078 48.9982 54.6078 46.3065C54.6078 44.8783 54.0507 43.5086 53.059 42.4987C52.0674 41.4887 50.7224 40.9214 49.32 40.9214C47.9176 40.9214 46.5726 41.4887 45.581 42.4987C44.5893 43.5086 44.0322 44.8783 44.0322 46.3065C44.0322 46.7826 44.2179 47.2392 44.5485 47.5758C44.879 47.9125 45.3273 48.1016 45.7948 48.1016C46.2623 48.1016 46.7106 47.9125 47.0412 47.5758C47.3717 47.2392 47.5574 46.7826 47.5574 46.3065C47.5574 45.8305 47.7431 45.3739 48.0737 45.0372C48.4042 44.7006 48.8525 44.5115 49.32 44.5115C49.7875 44.5115 50.2358 44.7006 50.5663 45.0372C50.8969 45.3739 51.0826 45.8305 51.0826 46.3065C51.0826 47.2041 49.5844 48.3493 48.2624 49.3581L48.2603 49.3597C46.2779 50.8744 44.0322 52.5902 44.0322 55.2818C44.0322 55.7579 44.2179 56.2144 44.5485 56.5511C44.879 56.8877 45.3273 57.0768 45.7948 57.0768H52.8452C53.3127 57.0768 53.761 56.8877 54.0915 56.5511C54.4221 56.2144 54.6078 55.7579 54.6078 55.2818C54.6078 54.8057 54.4221 54.3491 54.0915 54.0125C53.761 53.6758 53.3127 53.4867 52.8452 53.4867H48.8088Z" fill="#C1C3D0"/>
</g>
<defs>
<filter id="filter0_d_363_356" x="0" y="0" width="77.0225" height="67.0767" filterUnits="userSpaceOnUse" color-interpolation-filters="sRGB">
<feFlood flood-opacity="0" result="BackgroundImageFix"/>
<feColorMatrix in="SourceAlpha" type="matrix" values="0 0 0 0 0 0 0 0 0 0 0 0 0 0 0 0 0 0 127 0" result="hardAlpha"/>
<feOffset/>
<feGaussianBlur stdDeviation="5"/>
<feComposite in2="hardAlpha" operator="out"/>
<feColorMatrix type="matrix" values="0 0 0 0 0.35503 0 0 0 0 0.448339 0 0 0 0 0.961538 0 0 0 1 0"/>
<feBlend mode="normal" in2="BackgroundImageFix" result="effect1_dropShadow_363_356"/>
<feBlend mode="normal" in="SourceGraphic" in2="effect1_dropShadow_363_356" result="shape"/>
</filter>
<filter id="filter1_d_363_356" x="34.0322" y="30.9214" width="30.5754" height="36.1553" filterUnits="userSpaceOnUse" color-interpolation-filters="sRGB">
<feFlood flood-opacity="0" result="BackgroundImageFix"/>
<feColorMatrix in="SourceAlpha" type="matrix" values="0 0 0 0 0 0 0 0 0 0 0 0 0 0 0 0 0 0 127 0" result="hardAlpha"/>
<feOffset/>
<feGaussianBlur stdDeviation="5"/>
<feComposite in2="hardAlpha" operator="out"/>
<feColorMatrix type="matrix" values="0 0 0 0 0.35503 0 0 0 0 0.448339 0 0 0 0 0.961538 0 0 0 1 0"/>
<feBlend mode="normal" in2="BackgroundImageFix" result="effect1_dropShadow_363_356"/>
<feBlend mode="normal" in="SourceGraphic" in2="effect1_dropShadow_363_356" result="shape"/>
</filter>
</defs>
</svg>
