<svg width="67" height="67" viewBox="0 0 67 67" fill="none" xmlns="http://www.w3.org/2000/svg">
<g filter="url(#filter0_d_363_358)">
<path d="M37.4193 45.2488C36.7524 45.2488 36.0903 45.3621 35.4612 45.5837V45.2488C35.4612 44.7294 35.6675 44.2312 36.0347 43.8639C36.4019 43.4966 36.9 43.2903 37.4193 43.2903C37.6975 43.2885 37.9727 43.3469 38.2262 43.4615C38.4797 43.5761 38.7054 43.7442 38.8878 43.9542C39.0557 44.1543 39.2619 44.3187 39.4942 44.4378C39.7266 44.557 39.9804 44.6285 40.2408 44.648C40.5012 44.6676 40.7628 44.6349 41.0104 44.5518C41.2579 44.4688 41.4863 44.337 41.6822 44.1643C41.8781 43.9917 42.0375 43.7815 42.151 43.5463C42.2645 43.3111 42.3298 43.0556 42.3431 42.7948C42.3564 42.5339 42.3174 42.2731 42.2284 42.0276C42.1394 41.782 42.0023 41.5568 41.825 41.3651C41.0359 40.4701 39.9931 39.8367 38.8353 39.5491C37.6775 39.2614 36.4597 39.3332 35.3436 39.7548C34.2276 40.1765 33.2664 40.928 32.5879 41.9094C31.9093 42.8908 31.5456 44.0556 31.5451 45.2488V51.1244C31.5455 52.4001 31.961 53.6409 32.7287 54.6595C33.4965 55.6782 34.5748 56.4192 35.8008 56.7706C37.0268 57.1221 38.3339 57.065 39.5245 56.6078C40.7151 56.1506 41.7247 55.3183 42.4006 54.2365C42.9459 53.3584 43.2543 52.354 43.2958 51.3211C43.3373 50.2883 43.1105 49.2624 42.6376 48.3433C42.1416 47.3931 41.3905 46.6 40.4687 46.0534C39.5468 45.5067 38.4908 45.2281 37.4193 45.2488ZM39.0817 52.1605C38.9014 52.4498 38.6487 52.6871 38.3485 52.8487C38.0484 53.0104 37.7113 53.0909 37.3706 53.0823C37.0298 53.0737 36.6972 52.9763 36.4056 52.7996C36.114 52.623 35.8736 52.3733 35.7082 52.0752C35.5427 51.7771 35.4579 51.441 35.4621 51.1C35.4664 50.7591 35.5595 50.4252 35.7324 50.1313C35.9052 49.8374 36.1517 49.5938 36.4476 49.4245C36.7435 49.2551 37.0784 49.166 37.4193 49.1659C37.756 49.1475 38.0915 49.2206 38.39 49.3775C38.6886 49.5344 38.9391 49.7692 39.115 50.057C39.2957 50.3793 39.3878 50.7438 39.382 51.1132C39.3761 51.4827 39.2725 51.8441 39.0817 52.1605ZM51.1258 39.3732C49.5678 39.3732 48.0737 39.9923 46.9721 41.0942C45.8705 42.196 45.2516 43.6905 45.2516 45.2488V51.1244C45.2516 52.6827 45.8705 54.1772 46.9721 55.2791C48.0737 56.381 49.5678 57 51.1258 57C52.6837 57 54.1779 56.381 55.2795 55.2791C56.3811 54.1772 57 52.6827 57 51.1244V45.2488C57 43.6905 56.3811 42.196 55.2795 41.0942C54.1779 39.9923 52.6837 39.3732 51.1258 39.3732ZM53.0839 51.1244C53.0839 51.6438 52.8776 52.142 52.5104 52.5093C52.1431 52.8766 51.6451 53.0829 51.1258 53.0829C50.6065 53.0829 50.1084 52.8766 49.7412 52.5093C49.374 52.142 49.1677 51.6438 49.1677 51.1244V45.2488C49.1677 44.7294 49.374 44.2312 49.7412 43.8639C50.1084 43.4966 50.6065 43.2903 51.1258 43.2903C51.6451 43.2903 52.1431 43.4966 52.5104 43.8639C52.8776 44.2312 53.0839 44.7294 53.0839 45.2488V51.1244ZM33.5032 35.4562H25.6709C25.1516 35.4562 24.6535 35.2498 24.2863 34.8825C23.9191 34.5152 23.7128 34.0171 23.7128 33.4977C23.7128 32.9782 23.9191 32.4801 24.2863 32.1128C24.6535 31.7455 25.1516 31.5391 25.6709 31.5391H31.5451V23.705C31.5451 23.1856 31.7514 22.6874 32.1186 22.3201C32.4858 21.9528 32.9838 21.7465 33.5032 21.7465C34.0225 21.7465 34.5205 21.9528 34.8877 22.3201C35.2549 22.6874 35.4612 23.1856 35.4612 23.705V33.4977C35.4612 34.0171 35.2549 34.5152 34.8877 34.8825C34.5205 35.2498 34.0225 35.4562 33.5032 35.4562ZM57 15.8709V21.7465C57 23.3048 56.3811 24.7993 55.2795 25.9012C54.1779 27.003 52.6837 27.6221 51.1258 27.6221H45.2516C44.7323 27.6221 44.2342 27.4157 43.867 27.0484C43.4998 26.6811 43.2935 26.183 43.2935 25.6635C43.2935 25.1441 43.4998 24.6459 43.867 24.2787C44.2342 23.9114 44.7323 23.705 45.2516 23.705H50.415C48.8482 21.0005 46.6565 18.7108 44.0234 17.0276C41.3902 15.3443 38.3923 14.3165 35.2804 14.0302C32.1686 13.7439 29.0334 14.2074 26.1374 15.3819C23.2415 16.5564 20.6689 18.4077 18.6352 20.7809C16.6014 23.1541 15.1656 25.98 14.448 29.0222C13.7304 32.0644 13.7519 35.2343 14.5106 38.2664C15.2693 41.2986 16.7432 44.1049 18.8089 46.4503C20.8746 48.7957 23.472 50.6121 26.3836 51.7472C26.8676 51.9363 27.2567 52.3099 27.4653 52.786C27.6738 53.262 27.6848 53.8014 27.4958 54.2855C27.3068 54.7696 26.9332 55.1588 26.4573 55.3674C25.9814 55.576 25.4421 55.587 24.9581 55.3979C21.5171 54.0554 18.441 51.9204 15.9794 49.1661C13.5177 46.4119 11.7399 43.116 10.7901 39.5458C9.84036 35.9756 9.74542 32.2318 10.513 28.6181C11.2806 25.0044 12.8891 21.6225 15.208 18.747C17.5268 15.8715 20.4908 13.5832 23.8593 12.0679C27.2279 10.5526 30.9061 9.85296 34.5956 10.0257C38.285 10.1985 41.8818 11.2388 45.0941 13.0622C48.3064 14.8856 51.0437 17.4408 53.0839 20.5204V15.8709C53.0839 15.3515 53.2902 14.8533 53.6574 14.486C54.0246 14.1187 54.5226 13.9124 55.0419 13.9124C55.5612 13.9124 56.0593 14.1187 56.4265 14.486C56.7937 14.8533 57 15.3515 57 15.8709Z" fill="#CCCCCC"/>
</g>
<defs>
<filter id="filter0_d_363_358" x="0" y="0" width="67" height="67" filterUnits="userSpaceOnUse" color-interpolation-filters="sRGB">
<feFlood flood-opacity="0" result="BackgroundImageFix"/>
<feColorMatrix in="SourceAlpha" type="matrix" values="0 0 0 0 0 0 0 0 0 0 0 0 0 0 0 0 0 0 127 0" result="hardAlpha"/>
<feOffset/>
<feGaussianBlur stdDeviation="5"/>
<feComposite in2="hardAlpha" operator="out"/>
<feColorMatrix type="matrix" values="0 0 0 0 0.35503 0 0 0 0 0.448339 0 0 0 0 0.961538 0 0 0 1 0"/>
<feBlend mode="normal" in2="BackgroundImageFix" result="effect1_dropShadow_363_358"/>
<feBlend mode="normal" in="SourceGraphic" in2="effect1_dropShadow_363_358" result="shape"/>
</filter>
</defs>
</svg>
