<svg width="67" height="67" viewBox="0 0 67 67" fill="none" xmlns="http://www.w3.org/2000/svg">
<g filter="url(#filter0_d_363_344)">
<path fill-rule="evenodd" clip-rule="evenodd" d="M46.9771 41.0911C48.0788 39.9893 49.5732 39.3703 51.1313 39.3703C52.6895 39.3703 54.1838 39.9893 55.2856 41.0911C56.3873 42.1928 57.0063 43.6872 57.0063 45.2453V51.1203C57.0063 52.6785 56.3873 54.1728 55.2856 55.2746C54.1838 56.3763 52.6895 56.9953 51.1313 56.9953C49.5732 56.9953 48.0788 56.3763 46.9771 55.2746C45.8753 54.1728 45.2563 52.6785 45.2563 51.1203V45.2453C45.2563 43.6872 45.8753 42.1928 46.9771 41.0911ZM52.5161 52.5051C52.8833 52.1378 53.0896 51.6397 53.0896 51.1203V45.2453C53.0896 44.7259 52.8833 44.2278 52.5161 43.8606C52.1488 43.4933 51.6507 43.287 51.1313 43.287C50.6119 43.287 50.1138 43.4933 49.7466 43.8606C49.3793 44.2278 49.173 44.7259 49.173 45.2453V51.1203C49.173 51.6397 49.3793 52.1378 49.7466 52.5051C50.1138 52.8723 50.6119 53.0786 51.1313 53.0786C51.6507 53.0786 52.1488 52.8723 52.5161 52.5051ZM25.673 35.4536H33.5063C34.0257 35.4536 34.5238 35.2473 34.8911 34.8801C35.2583 34.5128 35.4646 34.0147 35.4646 33.4953V23.7036C35.4646 23.1843 35.2583 22.6862 34.8911 22.3189C34.5238 21.9516 34.0257 21.7453 33.5063 21.7453C32.9869 21.7453 32.4888 21.9516 32.1216 22.3189C31.7543 22.6862 31.548 23.1843 31.548 23.7036V31.537H25.673C25.1536 31.537 24.6555 31.7433 24.2882 32.1106C23.921 32.4778 23.7146 32.9759 23.7146 33.4953C23.7146 34.0147 23.921 34.5128 24.2882 34.8801C24.6555 35.2473 25.1536 35.4536 25.673 35.4536ZM57.0063 21.7453V15.8703C57.0063 15.3509 56.8 14.8528 56.4327 14.4856C56.0655 14.1183 55.5674 13.912 55.048 13.912C54.5286 13.912 54.0305 14.1183 53.6632 14.4856C53.296 14.8528 53.0896 15.3509 53.0896 15.8703V20.5194C51.0492 17.4401 48.3115 14.8851 45.0988 13.0619C41.8861 11.2386 38.2888 10.1984 34.5989 10.0257C30.9089 9.85298 27.2302 10.5526 23.8612 12.0677C20.4922 13.5829 17.5278 15.8709 15.2087 18.7461C12.8895 21.6214 11.2808 25.0029 10.5131 28.6162C9.74538 32.2296 9.84034 35.9731 10.7902 39.5429C11.7401 43.1126 13.5182 46.4082 15.9802 49.1622C18.4421 51.9162 21.5187 54.051 24.9601 55.3934C25.4442 55.5824 25.9835 55.5715 26.4595 55.3629C26.9355 55.1543 27.3091 54.7651 27.4981 54.2811C27.6872 53.797 27.6762 53.2577 27.4676 52.7817C27.259 52.3057 26.8699 51.9321 26.3858 51.7431C23.4738 50.608 20.8761 48.7919 18.8101 46.4467C16.7441 44.1015 15.27 41.2955 14.5112 38.2636C13.7524 35.2317 13.7309 32.0622 14.4486 29.0203C15.1663 25.9784 16.6023 23.1527 18.6363 20.7798C20.6704 18.4069 23.2432 16.5557 26.1396 15.3813C29.036 14.2069 32.1715 13.7435 35.2838 14.0298C38.3961 14.3161 41.3944 15.3438 44.028 17.0269C46.6615 18.71 48.8535 20.9994 50.4204 23.7036H45.2563C44.7369 23.7036 44.2388 23.91 43.8716 24.2772C43.5043 24.6445 43.298 25.1426 43.298 25.662C43.298 26.1814 43.5043 26.6795 43.8716 27.0467C44.2388 27.414 44.7369 27.6203 45.2563 27.6203H51.1313C52.6895 27.6203 54.1838 27.0013 55.2856 25.8996C56.3873 24.7978 57.0063 23.3035 57.0063 21.7453Z" fill="#CCCCCC"/>
<path d="M37.4301 51.1209C38.0971 51.121 38.7593 51.0077 39.3884 50.7861V51.1209C39.3884 51.6403 39.1821 52.1384 38.8148 52.5057C38.4476 52.8729 37.9495 53.0793 37.4301 53.0793C37.1519 53.0811 36.8766 53.0227 36.623 52.9081C36.3695 52.7935 36.1438 52.6254 35.9613 52.4154C35.7934 52.2154 35.5872 52.051 35.3548 51.9318C35.1225 51.8127 34.8686 51.7412 34.6082 51.7217C34.3478 51.7021 34.0861 51.7348 33.8385 51.8179C33.591 51.9009 33.3625 52.0327 33.1666 52.2053C32.9707 52.378 32.8113 52.5881 32.6978 52.8233C32.5843 53.0584 32.5189 53.3139 32.5056 53.5747C32.4923 53.8355 32.5313 54.0964 32.6203 54.3419C32.7093 54.5874 32.8465 54.8126 33.0238 55.0043C33.813 55.8992 34.8559 56.5325 36.0139 56.8201C37.1718 57.1077 38.3898 57.036 39.506 56.6144C40.6222 56.1928 41.5835 55.4414 42.2621 54.46C42.9408 53.4787 43.3046 52.3141 43.3051 51.1209V45.2459C43.3047 43.9704 42.8891 42.7297 42.1213 41.7112C41.3534 40.6927 40.2749 39.9517 39.0488 39.6003C37.8226 39.2488 36.5154 39.306 35.3246 39.7631C34.1338 40.2202 33.1241 41.0525 32.4481 42.1341C31.9028 43.0122 31.5943 44.0165 31.5528 45.0492C31.5113 46.082 31.7381 47.1078 32.2111 48.0268C32.7071 48.9769 33.4583 49.7699 34.3803 50.3165C35.3023 50.8631 36.3585 51.1417 37.4301 51.1209ZM35.7675 44.21C35.9478 43.9207 36.2006 43.6834 36.5007 43.5218C36.8009 43.3601 37.138 43.2796 37.4788 43.2882C37.8196 43.2968 38.1523 43.3943 38.4439 43.5709C38.7355 43.7475 38.9759 43.9972 39.1414 44.2953C39.3069 44.5933 39.3918 44.9294 39.3875 45.2703C39.3833 45.6112 39.2901 45.9451 39.1172 46.2389C38.9444 46.5328 38.6978 46.7764 38.4019 46.9457C38.106 47.115 37.771 47.2041 37.4301 47.2043C37.0933 47.2227 36.7578 47.1495 36.4592 46.9927C36.1606 46.8358 35.9101 46.601 35.7342 46.3132C35.5534 45.991 35.4613 45.6266 35.4672 45.2571C35.473 44.8877 35.5766 44.5264 35.7675 44.21Z" fill="#CCCCCC"/>
</g>
<defs>
<filter id="filter0_d_363_344" x="0" y="0" width="67.0063" height="66.9951" filterUnits="userSpaceOnUse" color-interpolation-filters="sRGB">
<feFlood flood-opacity="0" result="BackgroundImageFix"/>
<feColorMatrix in="SourceAlpha" type="matrix" values="0 0 0 0 0 0 0 0 0 0 0 0 0 0 0 0 0 0 127 0" result="hardAlpha"/>
<feOffset/>
<feGaussianBlur stdDeviation="5"/>
<feComposite in2="hardAlpha" operator="out"/>
<feColorMatrix type="matrix" values="0 0 0 0 0.35503 0 0 0 0 0.448339 0 0 0 0 0.961538 0 0 0 1 0"/>
<feBlend mode="normal" in2="BackgroundImageFix" result="effect1_dropShadow_363_344"/>
<feBlend mode="normal" in="SourceGraphic" in2="effect1_dropShadow_363_344" result="shape"/>
</filter>
</defs>
</svg>
