<svg width="41" height="47" viewBox="0 0 41 47" fill="none" xmlns="http://www.w3.org/2000/svg">
<g filter="url(#filter0_d_346_523)">
<path d="M29.6875 14.6875H13.75C13.1875 14.6875 12.8125 14.3125 12.8125 13.75C12.8125 13.1875 13.1875 12.8125 13.75 12.8125H29.6875C30.25 12.8125 30.625 13.1875 30.625 13.75C30.625 14.3125 30.25 14.6875 29.6875 14.6875Z" fill="#CCCCCC"/>
<path d="M29.6875 15.625H21.25V27.8125L18.4375 26.875L15.625 27.8125V15.625H13.75C12.7188 15.625 11.875 14.7812 11.875 13.75C11.875 12.7188 12.7188 11.875 13.75 11.875H29.6875C30.25 11.875 30.625 11.5 30.625 10.9375C30.625 10.375 30.25 10 29.6875 10H13.75C11.6875 10 10 11.6875 10 13.75V32.5C10 34.5625 11.6875 36.25 13.75 36.25H29.6875C30.25 36.25 30.625 35.875 30.625 35.3125V16.5625C30.625 16 30.25 15.625 29.6875 15.625Z" fill="#CCCCCC"/>
</g>
<defs>
<filter id="filter0_d_346_523" x="0" y="0" width="40.625" height="46.25" filterUnits="userSpaceOnUse" color-interpolation-filters="sRGB">
<feFlood flood-opacity="0" result="BackgroundImageFix"/>
<feColorMatrix in="SourceAlpha" type="matrix" values="0 0 0 0 0 0 0 0 0 0 0 0 0 0 0 0 0 0 127 0" result="hardAlpha"/>
<feOffset/>
<feGaussianBlur stdDeviation="5"/>
<feComposite in2="hardAlpha" operator="out"/>
<feColorMatrix type="matrix" values="0 0 0 0 0.35503 0 0 0 0 0.448339 0 0 0 0 0.961538 0 0 0 1 0"/>
<feBlend mode="normal" in2="BackgroundImageFix" result="effect1_dropShadow_346_523"/>
<feBlend mode="normal" in="SourceGraphic" in2="effect1_dropShadow_346_523" result="shape"/>
</filter>
</defs>
</svg>
