<svg width="81" height="90" viewBox="0 0 81 90" fill="none" xmlns="http://www.w3.org/2000/svg">
<path d="M24.7091 43.195C24.0895 46.0288 21.5616 48.1572 18.5447 48.1572C17.7404 48.1572 17.0884 48.8091 17.0884 49.6136C17.0884 50.4181 17.7404 51.0699 18.5447 51.0699C23.1613 51.0699 26.996 47.6607 27.6648 43.2277C30.4913 42.922 33.1005 41.6626 35.1204 39.6009C35.6833 39.0263 35.6738 38.1041 35.0992 37.5414C34.5249 36.9789 33.6027 36.9878 33.0397 37.5624C31.2534 39.3858 28.8642 40.3899 26.3121 40.3899C21.119 40.3899 16.8942 36.165 16.8942 30.972C16.8942 30.1675 16.2421 29.5156 15.4378 29.5156C14.6335 29.5156 13.9814 30.1675 13.9814 30.972C13.9814 37.2276 18.6649 42.4063 24.7091 43.195Z" fill="#3A52D6"/>
<path d="M30.8754 55.8275C30.8754 55.023 30.2233 54.3711 29.419 54.3711C22.6199 54.3711 17.0884 59.9026 17.0884 66.7017C17.0884 66.772 17.0909 66.8425 17.0921 66.913C16.5505 66.84 15.999 66.7988 15.4378 66.7988C14.6335 66.7988 13.9814 67.4507 13.9814 68.2552C13.9814 69.0597 14.6335 69.7116 15.4378 69.7116C20.6309 69.7116 24.8557 73.9364 24.8557 79.1294C24.8557 79.9339 25.5078 80.5858 26.3121 80.5858C27.1164 80.5858 27.7684 79.9339 27.7684 79.1294C27.7684 73.962 24.5718 69.5296 20.0534 67.6985C20.0188 67.3685 20.0011 67.0347 20.0011 66.7017C20.0011 61.5087 24.226 57.2838 29.419 57.2838C30.2233 57.2838 30.8754 56.632 30.8754 55.8275Z" fill="#3A52D6"/>
<path d="M80.586 43.3999C80.586 40.0842 79.2617 36.9422 76.9208 34.6314C77.2915 33.4453 77.4791 32.2185 77.4791 30.9722C77.4791 24.977 73.1775 19.97 67.4992 18.869C67.9332 17.7872 68.1583 16.6275 68.1583 15.4376C68.1583 11.6399 65.8508 8.37182 62.5646 6.95933C57.0896 2.59875 51.1016 0 46.5069 0C43.9528 0 41.6878 1.25598 40.293 3.1815C38.8982 1.25598 36.6332 0 34.0791 0C29.4844 0 23.4963 2.59875 18.0214 6.95933C14.7352 8.37182 12.4277 11.6399 12.4277 15.4376C12.4277 16.6275 12.6528 17.7872 13.0868 18.869C7.40847 19.97 3.10693 24.977 3.10693 30.9722C3.10693 32.2185 3.29432 33.4451 3.66521 34.6314C1.32433 36.9422 0 40.0842 0 43.3999C0 45.9919 0.805666 48.3984 2.17738 50.3857C0.751877 52.4463 0 54.8501 0 57.3811C0 61.8644 2.44418 65.9722 6.31406 68.1381C6.24745 68.6919 6.21386 69.2507 6.21386 69.8088C6.21386 75.8565 10.1587 81.2033 15.8822 83.0255C18.3719 87.2863 22.9068 89.9068 27.8653 89.9068C33.3014 89.9068 38.015 86.7647 40.293 82.2028C42.571 86.7647 47.2846 89.9068 52.7207 89.9068C57.6792 89.9068 62.2141 87.2863 64.7038 83.0255C70.4273 81.2031 74.3721 75.8563 74.3721 69.8088C74.3721 69.2507 74.3385 68.6919 74.2719 68.1381C78.1418 65.9722 80.586 61.8644 80.586 57.3811C80.586 54.8501 79.8341 52.4463 78.4086 50.3857C79.7803 48.3984 80.586 45.9919 80.586 43.3999ZM27.8653 86.994C23.7818 86.994 20.0609 84.7427 18.1544 81.1188C17.9654 80.7598 17.6357 80.4959 17.244 80.3904C12.4646 79.1042 9.12661 74.7529 9.12661 69.8088C9.12661 69.069 9.20117 68.328 9.34817 67.606C9.48448 66.9367 9.13709 66.2623 8.51279 65.9846C5.1109 64.4723 2.91275 61.0951 2.91275 57.3811C2.91275 55.6919 3.35082 54.0773 4.18678 52.6471C6.36086 54.5639 9.21127 55.7305 12.3306 55.7305C13.1349 55.7305 13.787 55.0787 13.787 54.2742C13.787 53.4697 13.1349 52.8178 12.3306 52.8178C7.13759 52.8178 2.91275 48.593 2.91275 43.3999C2.91275 40.6045 4.1462 37.9698 6.29697 36.1722C6.78243 35.7664 6.9504 35.0935 6.71252 34.5073C6.2527 33.3741 6.01968 32.1847 6.01968 30.9722C6.01968 25.7792 10.2445 21.5543 15.4376 21.5543C20.6306 21.5543 24.8554 25.7792 24.8554 30.9722C24.8554 31.7767 25.5075 32.4286 26.3118 32.4286C27.1161 32.4286 27.7682 31.7767 27.7682 30.9722C27.7682 24.4395 22.6608 19.0798 16.2296 18.6697C15.6467 17.6953 15.3405 16.5873 15.3405 15.4376C15.3405 12.8415 16.9165 10.6073 19.1616 9.63944C19.2484 9.61362 19.3335 9.57983 19.4156 9.53711C20.1112 9.27263 20.8644 9.12661 21.6514 9.12661C24.0898 9.12661 26.2666 10.49 27.3324 12.685C27.6839 13.4087 28.5554 13.7105 29.2787 13.3588C30.0023 13.0075 30.304 12.1362 29.9525 11.4127C28.7358 8.90718 26.433 7.10632 23.781 6.46843C27.4981 4.20037 31.1575 2.91275 34.0791 2.91275C36.7024 2.91275 38.8366 5.04682 38.8366 7.67023V26.5159C37.528 25.4778 35.8753 24.8554 34.0791 24.8554C33.2748 24.8554 32.6228 25.5073 32.6228 26.3118C32.6228 27.1163 33.2748 27.7682 34.0791 27.7682C36.7024 27.7682 38.8366 29.9023 38.8366 32.5257V67.5328C37.0259 65.1966 34.4731 63.4334 31.4703 62.6266C30.6937 62.4186 29.8947 62.8784 29.6859 63.6552C29.4772 64.4321 29.9378 65.231 30.7145 65.4395C35.4967 66.7244 38.8366 71.0763 38.8366 76.0227C38.8366 82.0723 33.9149 86.994 27.8653 86.994ZM72.0732 65.9848C71.4489 66.2625 71.1015 66.9367 71.2378 67.6062C71.3848 68.3282 71.4594 69.0692 71.4594 69.809C71.4594 74.7531 68.1214 79.1044 63.3419 80.3906C62.9503 80.4961 62.6204 80.76 62.4316 81.119C60.5251 84.7427 56.8042 86.994 52.7207 86.994C46.6711 86.994 41.7494 82.0723 41.7494 76.0227C41.7494 75.6132 41.7303 75.2071 41.6948 74.805C41.7294 74.6805 41.7494 74.5498 41.7494 74.4143V26.3118C41.7494 23.6884 43.8836 21.5543 46.5069 21.5543C47.3112 21.5543 47.9632 20.9025 47.9632 20.0979C47.9632 19.2934 47.3112 18.6416 46.5069 18.6416C44.7107 18.6416 43.058 19.2639 41.7494 20.302V7.67023C41.7494 5.04682 43.8836 2.91275 46.5069 2.91275C49.4285 2.91275 53.0879 4.20037 56.805 6.46843C54.153 7.10613 51.8502 8.90718 50.6334 11.4127C50.282 12.1364 50.5837 13.0077 51.3073 13.3588C52.0308 13.7103 52.9021 13.4087 53.2535 12.685C54.3194 10.49 56.4962 9.12661 58.9346 9.12661C59.7216 9.12661 60.475 9.27263 61.1704 9.53711C61.2523 9.57983 61.3374 9.61342 61.4238 9.63925C63.6693 10.6071 65.2455 12.8413 65.2455 15.4376C65.2455 16.5873 64.9393 17.6953 64.3564 18.6697C57.9252 19.0798 52.8178 24.4395 52.8178 30.9722C52.8178 31.7767 53.4699 32.4286 54.2742 32.4286C55.0785 32.4286 55.7305 31.7767 55.7305 30.9722C55.7305 25.7792 59.9554 21.5543 65.1484 21.5543C70.3415 21.5543 74.5663 25.7792 74.5663 30.9722C74.5663 32.1847 74.3333 33.3741 73.8737 34.5073C73.6358 35.0937 73.8037 35.7664 74.2892 36.1722C76.4398 37.9698 77.6732 40.6045 77.6732 43.3999C77.6732 48.593 73.4484 52.8178 68.2554 52.8178C67.451 52.8178 66.799 53.4697 66.799 54.2742C66.799 55.0787 67.451 55.7305 68.2554 55.7305C71.3747 55.7305 74.2251 54.5639 76.3992 52.6471C77.2354 54.0773 77.6732 55.6919 77.6732 57.3811C77.6732 61.0951 75.4751 64.4723 72.0732 65.9848Z" fill="#3A52D6"/>
<path d="M65.148 46.604C62.1312 46.604 59.6033 44.4755 58.9836 41.6418C65.0278 40.8531 69.7113 35.6744 69.7113 29.4188C69.7113 28.6143 69.0592 27.9624 68.2549 27.9624C67.4506 27.9624 66.7985 28.6143 66.7985 29.4188C66.7985 34.6118 62.5737 38.8367 57.3807 38.8367C54.8285 38.8367 52.4393 37.8325 50.653 36.0092C50.0902 35.4348 49.1681 35.4252 48.5935 35.9882C48.0189 36.5511 48.0094 37.4731 48.5723 38.0477C50.5922 40.1093 53.2014 41.3688 56.028 41.6744C56.6967 46.1075 60.5315 49.5167 65.148 49.5167C65.9523 49.5167 66.6044 48.8649 66.6044 48.0604C66.6044 47.2559 65.9523 46.604 65.148 46.604Z" fill="#3A52D6"/>
<path d="M60.4883 63.6919C59.9271 63.6919 59.3757 63.733 58.8341 63.8061C58.8353 63.7356 58.8378 63.6651 58.8378 63.5948C58.8378 56.7957 53.3063 51.2642 46.5072 51.2642C45.7028 51.2642 45.0508 51.916 45.0508 52.7205C45.0508 53.525 45.7028 54.1769 46.5072 54.1769C51.7002 54.1769 55.925 58.4017 55.925 63.5948C55.925 63.9276 55.9074 64.2616 55.8728 64.5915C51.3544 66.4227 48.1577 70.8551 48.1577 76.0225C48.1577 76.827 48.8098 77.4789 49.6141 77.4789C50.4184 77.4789 51.0705 76.827 51.0705 76.0225C51.0705 70.8295 55.2953 66.6046 60.4883 66.6046C61.2926 66.6046 61.9447 65.9528 61.9447 65.1483C61.9447 64.3438 61.2926 63.6919 60.4883 63.6919Z" fill="#3A52D6"/>
</svg>
