<svg width="64" height="90" viewBox="0 0 64 90" fill="none" xmlns="http://www.w3.org/2000/svg">
<path d="M62.1758 13.8251H54.6656V9.56563C54.6656 8.69888 53.963 7.99636 53.0962 7.99636H41.7422C40.7736 3.40996 36.6926 0 31.8727 0C27.0527 0 22.9718 3.40996 22.0032 7.99631H10.6491C9.78236 7.99631 9.07979 8.69883 9.07979 9.56558V13.825H1.56932C0.702572 13.825 0 14.5276 0 15.3943V88.1072C0 88.9739 0.702572 89.6765 1.56932 89.6765H62.1758C63.0426 89.6765 63.7452 88.9739 63.7452 88.1072V15.3944C63.7452 14.5276 63.0426 13.8251 62.1758 13.8251ZM12.2185 11.135H23.3709C24.2009 11.135 24.887 10.4889 24.9374 9.66063C25.159 6.00348 28.2052 3.1387 31.8727 3.1387C35.5401 3.1387 38.5864 6.00348 38.808 9.66063C38.8584 10.4889 39.5445 11.135 40.3745 11.135H51.5269V13.8251V16.9637V20.7003H12.2185V16.9637V13.8251V11.135ZM60.6065 86.5378H3.13875V16.9637H9.07979V22.2697C9.07979 23.1365 9.78236 23.839 10.6491 23.839H53.0962C53.963 23.839 54.6656 23.1364 54.6656 22.2697V16.9637H60.6065V86.5378Z" fill="#3A52D6"/>
<path d="M20.0669 34.0502L13.6103 40.5071L10.7231 37.6198C10.1101 37.0072 9.11657 37.0072 8.50356 37.6198C7.89074 38.2328 7.89074 39.2264 8.50356 39.8394L12.5005 43.8363C12.8069 44.1426 13.2085 44.2959 13.6103 44.2959C14.012 44.2959 14.4136 44.1426 14.7201 43.8363L22.2865 36.2699C22.8993 35.6569 22.8993 34.6633 22.2865 34.0503C21.6736 33.4377 20.68 33.4377 20.0669 34.0502Z" fill="#3A52D6"/>
<path d="M28.126 37.374C27.2592 37.374 26.5566 38.0766 26.5566 38.9433C26.5566 39.8101 27.2592 40.5127 28.126 40.5127H54.1322C54.999 40.5127 55.7016 39.8101 55.7016 38.9433C55.7016 38.0766 54.999 37.374 54.1322 37.374H28.126Z" fill="#3A52D6"/>
<path d="M20.0669 51.8271L13.6103 58.284L10.7231 55.3967C10.1101 54.7841 9.11657 54.7841 8.50356 55.3967C7.89074 56.0096 7.89074 57.0032 8.50356 57.6163L12.5005 61.6132C12.8069 61.9195 13.2085 62.0727 13.6103 62.0727C14.012 62.0727 14.4136 61.9195 14.7201 61.6132L22.2865 54.0467C22.8993 53.4338 22.8993 52.4403 22.2865 51.8271C21.6736 51.2145 20.68 51.2145 20.0669 51.8271Z" fill="#3A52D6"/>
<path d="M54.1322 55.1509H28.126C27.2592 55.1509 26.5566 55.8534 26.5566 56.7202C26.5566 57.587 27.2592 58.2896 28.126 58.2896H54.1322C54.999 58.2896 55.7016 57.587 55.7016 56.7202C55.7016 55.8534 54.999 55.1509 54.1322 55.1509Z" fill="#3A52D6"/>
<path d="M20.0669 69.604L13.6103 76.0609L10.7231 73.1735C10.1101 72.5609 9.11657 72.5609 8.50356 73.1735C7.89074 73.7865 7.89074 74.7801 8.50356 75.3931L12.5005 79.39C12.8069 79.6963 13.2085 79.8495 13.6103 79.8495C14.012 79.8495 14.4136 79.6963 14.7201 79.39L22.2865 71.8236C22.8993 71.2105 22.8993 70.2169 22.2865 69.604C21.6736 68.9914 20.68 68.9914 20.0669 69.604Z" fill="#3A52D6"/>
<path d="M54.1322 72.9277H28.126C27.2592 72.9277 26.5566 73.6303 26.5566 74.4971C26.5566 75.3639 27.2592 76.0664 28.126 76.0664H54.1322C54.999 76.0664 55.7016 75.3639 55.7016 74.4971C55.7016 73.6303 54.999 72.9277 54.1322 72.9277Z" fill="#3A52D6"/>
</svg>
