<svg width="243" height="218" viewBox="0 0 243 218" fill="none" xmlns="http://www.w3.org/2000/svg">
<g filter="url(#filter0_d_645_321)">
<path d="M159.678 193.944C188.574 176.665 207.922 145.074 207.922 108.965C207.922 54.3104 163.619 10 108.965 10C54.3034 10 10 54.3104 10 108.965C10 163.619 54.3034 207.929 108.965 207.929H233V193.944L159.678 193.944ZM148.715 60.9999C158.971 55.0791 172.078 58.5909 177.998 68.8467C183.919 79.1026 180.407 92.2164 170.151 98.1373C159.896 104.051 146.788 100.54 140.868 90.2904C134.941 80.0281 138.459 66.9207 148.715 60.9999ZM140.861 127.122C146.789 116.866 159.896 113.354 170.152 119.275C180.408 125.202 183.919 138.309 177.999 148.565C172.078 158.821 158.971 162.333 148.708 156.412C138.459 150.491 134.941 137.377 140.861 127.122ZM108.965 28.9872C120.806 28.9872 130.402 38.5828 130.402 50.4244C130.402 62.2661 120.806 71.8751 108.965 71.8751C97.1229 71.8751 87.5138 62.2656 87.5138 50.4244C87.5138 38.5832 97.1229 28.9872 108.965 28.9872ZM118.86 108.965C118.86 114.436 114.429 118.86 108.965 118.86C103.493 118.86 99.0693 114.436 99.0693 108.965C99.0693 103.493 103.493 99.0693 108.965 99.0693C114.429 99.0693 118.86 103.493 118.86 108.965ZM39.9234 68.8467C45.8442 58.5909 58.9581 55.0795 69.2139 60.9999C79.4697 66.9203 82.9811 80.0281 77.0607 90.2904C71.1399 100.539 58.026 104.058 47.7702 98.1373C37.5213 92.2164 34.0026 79.1026 39.9234 68.8467ZM69.2209 156.412C58.9581 162.333 45.8512 158.821 39.9234 148.565C34.0095 138.309 37.5209 125.196 47.7702 119.268C58.026 113.347 71.1399 116.865 77.0607 127.121C82.9815 137.377 79.4697 150.491 69.2209 156.412ZM87.5138 166.981C87.5138 155.139 97.1233 145.537 108.965 145.537C120.806 145.537 130.402 155.139 130.402 166.981C130.402 178.822 120.806 188.424 108.965 188.424C97.1229 188.424 87.5138 178.822 87.5138 166.981Z" fill="#CCCCCC"/>
</g>
<defs>
<filter id="filter0_d_645_321" x="0" y="0" width="243" height="217.929" filterUnits="userSpaceOnUse" color-interpolation-filters="sRGB">
<feFlood flood-opacity="0" result="BackgroundImageFix"/>
<feColorMatrix in="SourceAlpha" type="matrix" values="0 0 0 0 0 0 0 0 0 0 0 0 0 0 0 0 0 0 127 0" result="hardAlpha"/>
<feOffset/>
<feGaussianBlur stdDeviation="5"/>
<feComposite in2="hardAlpha" operator="out"/>
<feColorMatrix type="matrix" values="0 0 0 0 0.35503 0 0 0 0 0.448339 0 0 0 0 0.961538 0 0 0 1 0"/>
<feBlend mode="normal" in2="BackgroundImageFix" result="effect1_dropShadow_645_321"/>
<feBlend mode="normal" in="SourceGraphic" in2="effect1_dropShadow_645_321" result="shape"/>
</filter>
</defs>
</svg>
