<svg width="99" height="100" viewBox="0 0 99 100" fill="none" xmlns="http://www.w3.org/2000/svg">
<g clip-path="url(#clip0_182_225)">
<path d="M33.7822 65.8748L56.051 56.6139L65.2194 34.1201L42.9506 43.3811L33.7822 65.8748ZM49.5 45.3107C52.0616 45.3107 54.1406 47.4107 54.1406 49.9982C54.1406 52.5857 52.0616 54.6857 49.5 54.6857C46.9384 54.6857 44.8594 52.5857 44.8594 49.9982C44.8594 47.4107 46.9384 45.3107 49.5 45.3107Z" fill="#3A52D6"/>
<path d="M49.5 51.561C50.3543 51.561 51.0469 50.8615 51.0469 49.9985C51.0469 49.1356 50.3543 48.436 49.5 48.436C48.6457 48.436 47.9531 49.1356 47.9531 49.9985C47.9531 50.8615 48.6457 51.561 49.5 51.561Z" fill="#3A52D6"/>
<path d="M49.5 0C22.1621 0 0 22.3859 0 50C0 77.6141 22.1621 100 49.5 100C76.8379 100 99 77.6141 99 50C99 22.3859 76.8379 0 49.5 0ZM49.5 93.7484C25.5791 93.7484 6.1875 74.1609 6.1875 49.9984C6.1875 25.8359 25.5791 6.24844 49.5 6.24844C73.4209 6.24844 92.8125 25.8359 92.8125 49.9984C92.8125 74.1609 73.4209 93.7484 49.5 93.7484Z" fill="#3A52D6"/>
<path d="M80.4379 49.9985C80.4379 49.1345 81.1293 48.436 81.9848 48.436H89.6805C89.3046 38.397 85.326 29.2923 79.0086 22.4032L76.8476 24.586C76.2428 25.1985 75.2651 25.197 74.6603 24.586C74.0555 23.9751 74.0555 22.9876 74.6603 22.3767L76.8213 20.1938C69.9996 13.8126 60.9859 9.79385 51.0473 9.4126V17.186C51.0473 18.0501 50.3558 18.7485 49.5004 18.7485C48.645 18.7485 47.9535 18.0501 47.9535 17.186V9.4126C38.0148 9.79229 29.0012 13.811 22.181 20.1923L24.342 22.3751C24.9484 22.986 24.9468 23.9735 24.342 24.5845C23.7372 25.1954 22.7596 25.1954 22.1547 24.5845L19.9937 22.4017C13.6763 29.2907 9.69775 38.3954 9.32186 48.4345H17.016C17.8714 48.4345 18.5629 49.1329 18.5629 49.997C18.5629 50.861 17.8714 51.5595 17.016 51.5595H9.32031C9.6962 61.5985 13.6748 70.7032 19.9922 77.5923L22.1532 75.4095C22.758 74.797 23.7356 74.7985 24.3405 75.4095C24.9453 76.0204 24.9453 77.0079 24.3405 77.6189L22.1795 79.8017C29.0012 86.1845 38.0148 90.2032 47.9535 90.5845V82.811C47.9535 81.947 48.645 81.2485 49.5004 81.2485C50.3558 81.2485 51.0473 81.947 51.0473 82.811V90.5845C60.9859 90.2048 69.9996 86.186 76.8197 79.8048L74.6588 77.622C74.0524 77.011 74.0539 76.0235 74.6588 75.4126C75.2636 74.8017 76.2412 74.8017 76.846 75.4126L79.007 77.5954C85.3245 70.7063 89.303 61.6017 89.6789 51.5626H81.9848C81.1293 51.561 80.4379 50.8626 80.4379 49.9985ZM69.4937 31.8438L58.6656 58.4063C58.5078 58.7907 58.2047 59.097 57.8241 59.2563L31.5273 70.1939C31.337 70.2735 31.1359 70.311 30.9379 70.311C30.5357 70.311 30.1397 70.1517 29.8442 69.8532C29.4034 69.4079 29.2704 68.736 29.507 68.1532L40.3352 41.5907C40.4929 41.2063 40.7961 40.9001 41.1767 40.7407L67.4735 29.8032C68.0505 29.5657 68.7157 29.6985 69.1565 30.1438C69.5974 30.5892 69.7304 31.261 69.4937 31.8438Z" fill="#3A52D6"/>
</g>
<defs>
<clipPath id="clip0_182_225">
<rect width="99" height="100" fill="white"/>
</clipPath>
</defs>
</svg>
