<svg width="245" height="245" viewBox="0 0 245 245" fill="none" xmlns="http://www.w3.org/2000/svg">
<g filter="url(#filter0_d_765_305)">
<path d="M122.385 21.4204C119.43 21.4204 116.474 22.0827 114.185 23.4072L41.0902 65.6888C36.5108 68.3379 36.5108 72.5268 41.0902 75.1759L114.185 117.458C118.764 120.107 126.006 120.107 130.585 117.458L203.679 75.1759C208.259 72.5273 208.259 68.3379 203.679 65.6893L130.585 23.4077C128.295 22.0822 125.34 21.4204 122.385 21.4204ZM122.828 61.0678C125.833 61.0941 128.757 61.6451 131.237 62.6519C133.717 63.6586 135.641 65.0766 136.771 66.7287C137.901 68.3807 138.185 70.1936 137.588 71.941C136.992 73.6883 135.541 75.2926 133.416 76.5535C132.001 77.4071 130.314 78.0859 128.455 78.5508C126.595 79.0157 124.598 79.2575 122.58 79.2623C120.562 79.2671 118.562 79.0348 116.696 78.5788C114.83 78.1227 113.134 77.452 111.707 76.6052C110.28 75.7585 109.15 74.7524 108.381 73.6452C107.612 72.5379 107.221 71.3513 107.229 70.1538C107.237 68.9563 107.644 67.7715 108.428 66.6679C109.211 65.5643 110.355 64.5636 111.793 63.7236C113.24 62.8655 114.962 62.1883 116.857 61.7321C118.752 61.2759 120.783 61.0501 122.828 61.0678H122.828ZM36.2093 83.1853C33.4564 83.1111 31.585 85.2601 31.585 89.0615V164.521C31.585 169.81 35.2073 176.084 39.7867 178.729L110.095 219.33C114.674 221.974 118.297 219.883 118.297 214.595V139.133C118.297 133.845 114.674 127.572 110.095 124.927L39.7867 84.3266C38.4995 83.5825 37.2865 83.213 36.2093 83.1843V83.1853ZM208.845 83.1863C207.768 83.215 206.556 83.5834 205.268 84.3275L134.958 124.928C130.378 127.573 126.756 133.847 126.756 139.135V214.597C126.756 219.885 130.378 221.975 134.958 219.33L205.269 178.731C209.848 176.086 213.469 169.813 213.469 164.524V89.0624C213.469 85.2621 211.598 83.1135 208.845 83.1872V83.1863ZM42.7301 93.6791C44.3679 93.5655 46.2283 94.0795 48.1234 95.1691C50.0184 96.2587 51.8809 97.8854 53.5227 99.8848C55.1646 101.884 56.5275 104.185 57.4739 106.556C58.4202 108.927 58.9165 111.283 58.9125 113.386C58.9142 114.959 58.6369 116.356 58.0966 117.497C57.5562 118.638 56.7634 119.501 55.7635 120.036C54.7635 120.571 53.576 120.768 52.2689 120.615C50.9618 120.463 49.5607 119.964 48.1457 119.147C46.7308 118.33 45.3297 117.211 44.0226 115.854C42.7155 114.498 41.5281 112.93 40.5281 111.24C39.5282 109.55 38.7354 107.772 38.1951 106.007C37.6548 104.242 37.3776 102.525 37.3793 100.954C37.3754 98.8547 37.8677 97.0776 38.8068 95.8008C39.7459 94.5239 41.0989 93.7923 42.7301 93.6791ZM148.731 124.622C150.362 124.735 151.715 125.467 152.654 126.743C153.594 128.02 154.086 129.797 154.082 131.897C154.079 135.069 152.943 138.764 150.924 142.17C148.905 145.576 146.169 148.414 143.316 150.061C140.462 151.708 137.726 152.03 135.707 150.955C133.688 149.88 132.552 147.497 132.549 144.329C132.545 142.225 133.041 139.869 133.988 137.499C134.934 135.128 136.297 132.827 137.939 130.828C139.58 128.828 141.443 127.201 143.338 126.112C145.233 125.022 147.093 124.508 148.731 124.622H148.731ZM69.5265 138.339C71.1643 138.225 73.0247 138.739 74.9198 139.829C76.8148 140.919 78.6773 142.545 80.3191 144.545C81.961 146.544 83.3239 148.845 84.2703 151.216C85.2166 153.586 85.7129 155.942 85.7089 158.046C85.7055 161.214 84.5696 163.597 82.5508 164.672C80.532 165.747 77.7954 165.426 74.9421 163.778C72.0889 162.131 69.3523 159.293 67.3336 155.887C65.3148 152.481 64.179 148.786 64.1757 145.614C64.1718 143.515 64.6641 141.737 65.6032 140.461C66.5423 139.184 67.8953 138.452 69.5265 138.339ZM202.326 152.398C203.957 152.511 205.31 153.243 206.249 154.52C207.188 155.797 207.68 157.574 207.676 159.673C207.673 162.845 206.537 166.54 204.518 169.946C202.499 173.352 199.763 176.19 196.909 177.838C194.056 179.485 191.32 179.806 189.301 178.732C187.282 177.657 186.146 175.273 186.143 172.105C186.139 170.002 186.635 167.646 187.581 165.275C188.527 162.904 189.89 160.603 191.532 158.604C193.174 156.604 195.037 154.978 196.932 153.888C198.827 152.798 200.688 152.284 202.326 152.398ZM96.3248 183.34C97.9626 183.227 99.823 183.741 101.718 184.83C103.613 185.92 105.475 187.547 107.117 189.546C108.759 191.545 110.122 193.847 111.068 196.217C112.014 198.588 112.511 200.944 112.507 203.047C112.508 204.62 112.231 206.017 111.691 207.158C111.15 208.299 110.358 209.162 109.358 209.697C108.358 210.232 107.17 210.429 105.863 210.276C104.556 210.124 103.155 209.625 101.74 208.808C100.325 207.991 98.9239 206.872 97.6168 205.515C96.3097 204.159 95.1223 202.591 94.1224 200.901C93.1224 199.211 92.3297 197.433 91.7894 195.668C91.2491 193.903 90.9718 192.186 90.9735 190.615C90.9696 188.516 91.4619 186.738 92.401 185.462C93.3402 184.185 94.6936 183.453 96.3248 183.34Z" fill="#CCCCCC"/>
</g>
<defs>
<filter id="filter0_d_765_305" x="21.585" y="11.4204" width="201.884" height="219.054" filterUnits="userSpaceOnUse" color-interpolation-filters="sRGB">
<feFlood flood-opacity="0" result="BackgroundImageFix"/>
<feColorMatrix in="SourceAlpha" type="matrix" values="0 0 0 0 0 0 0 0 0 0 0 0 0 0 0 0 0 0 127 0" result="hardAlpha"/>
<feOffset/>
<feGaussianBlur stdDeviation="5"/>
<feComposite in2="hardAlpha" operator="out"/>
<feColorMatrix type="matrix" values="0 0 0 0 0.35503 0 0 0 0 0.448339 0 0 0 0 0.961538 0 0 0 1 0"/>
<feBlend mode="normal" in2="BackgroundImageFix" result="effect1_dropShadow_765_305"/>
<feBlend mode="normal" in="SourceGraphic" in2="effect1_dropShadow_765_305" result="shape"/>
</filter>
</defs>
</svg>
