<svg width="50" height="50" viewBox="0 0 50 50" fill="none" xmlns="http://www.w3.org/2000/svg">
<g filter="url(#filter0_d_346_473)">
<path d="M40 25C40 33.2843 33.2843 40 25 40C16.7157 40 10 33.2843 10 25C10 16.7157 16.7157 10 25 10C33.2843 10 40 16.7157 40 25ZM27.8125 16.5625C27.8125 17.0803 28.2322 17.5 28.75 17.5C30.3219 17.5 31.8423 18.2809 32.599 19.7943C32.8305 20.2574 33.3937 20.4451 33.8568 20.2135C34.3199 19.982 34.5076 19.4188 34.276 18.9557C33.1577 16.7191 30.9281 15.625 28.75 15.625C28.2322 15.625 27.8125 16.0447 27.8125 16.5625ZM23.125 22.1875C23.125 20.6342 22.2855 19.375 21.25 19.375C20.2145 19.375 19.375 20.6342 19.375 22.1875C19.375 23.7408 20.2145 25 21.25 25C22.2855 25 23.125 23.7408 23.125 22.1875ZM18.4375 34.375C19.9908 34.375 21.25 32.9759 21.25 31.25C21.25 29.9263 19.5956 26.9566 18.8245 25.6444C18.6485 25.3449 18.2265 25.3449 18.0505 25.6444C17.2794 26.9566 15.625 29.9263 15.625 31.25C15.625 32.9759 16.8842 34.375 18.4375 34.375ZM25 30.995C26.7174 30.995 28.0133 31.7588 29.2193 32.5439C29.6161 32.8022 30.013 32.4147 29.7469 32.0232C28.6891 30.4667 26.8257 28.1824 25 28.1824C24.006 28.1824 23.0009 28.8595 22.1206 29.7276C22.276 30.0623 22.4234 30.4004 22.5541 30.7309C22.6392 30.9462 22.7273 31.1823 22.8081 31.4302C23.4676 31.1663 24.1866 30.995 25 30.995ZM28.75 25C29.7855 25 30.625 23.7408 30.625 22.1875C30.625 20.6342 29.7855 19.375 28.75 19.375C27.7145 19.375 26.875 20.6342 26.875 22.1875C26.875 23.7408 27.7145 25 28.75 25ZM22.1875 15.625C20.0094 15.625 17.7798 16.7191 16.6615 18.9557C16.4299 19.4188 16.6176 19.982 17.0807 20.2135C17.5438 20.4451 18.107 20.2574 18.3385 19.7943C19.0952 18.2809 20.6156 17.5 22.1875 17.5C22.7053 17.5 23.125 17.0803 23.125 16.5625C23.125 16.0447 22.7053 15.625 22.1875 15.625Z" fill="#CCCCCC"/>
</g>
<defs>
<filter id="filter0_d_346_473" x="0" y="0" width="50" height="50" filterUnits="userSpaceOnUse" color-interpolation-filters="sRGB">
<feFlood flood-opacity="0" result="BackgroundImageFix"/>
<feColorMatrix in="SourceAlpha" type="matrix" values="0 0 0 0 0 0 0 0 0 0 0 0 0 0 0 0 0 0 127 0" result="hardAlpha"/>
<feOffset/>
<feGaussianBlur stdDeviation="5"/>
<feComposite in2="hardAlpha" operator="out"/>
<feColorMatrix type="matrix" values="0 0 0 0 0.35503 0 0 0 0 0.448339 0 0 0 0 0.961538 0 0 0 1 0"/>
<feBlend mode="normal" in2="BackgroundImageFix" result="effect1_dropShadow_346_473"/>
<feBlend mode="normal" in="SourceGraphic" in2="effect1_dropShadow_346_473" result="shape"/>
</filter>
</defs>
</svg>
