<svg width="64" height="62" viewBox="0 0 64 62" fill="none" xmlns="http://www.w3.org/2000/svg">
<g filter="url(#filter0_d_645_310)">
<path d="M30.5978 10.8717C31.1714 9.70944 32.8286 9.70944 33.4022 10.8717L38.9892 22.1922C39.217 22.6537 39.6573 22.9736 40.1666 23.0476L52.6594 24.8629C53.942 25.0493 54.4542 26.6255 53.5261 27.5302L44.4862 36.3419C44.1176 36.7012 43.9494 37.2188 44.0364 37.726L46.1705 50.1685C46.3896 51.4459 45.0488 52.42 43.9016 51.8169L32.7277 45.9424C32.2721 45.7029 31.7279 45.7029 31.2723 45.9424L20.0984 51.8169C18.9512 52.42 17.6104 51.4459 17.8295 50.1685L19.9636 37.726C20.0506 37.2188 19.8824 36.7012 19.5138 36.3419L10.4739 27.5302C9.54584 26.6255 10.058 25.0493 11.3406 24.8629L23.8334 23.0476C24.3427 22.9736 24.783 22.6537 25.0108 22.1922L30.5978 10.8717Z" fill="#CCCCCC"/>
</g>
<defs>
<filter id="filter0_d_645_310" x="0" y="0" width="64" height="62" filterUnits="userSpaceOnUse" color-interpolation-filters="sRGB">
<feFlood flood-opacity="0" result="BackgroundImageFix"/>
<feColorMatrix in="SourceAlpha" type="matrix" values="0 0 0 0 0 0 0 0 0 0 0 0 0 0 0 0 0 0 127 0" result="hardAlpha"/>
<feOffset/>
<feGaussianBlur stdDeviation="5"/>
<feComposite in2="hardAlpha" operator="out"/>
<feColorMatrix type="matrix" values="0 0 0 0 0.35503 0 0 0 0 0.448339 0 0 0 0 0.961538 0 0 0 1 0"/>
<feBlend mode="normal" in2="BackgroundImageFix" result="effect1_dropShadow_645_310"/>
<feBlend mode="normal" in="SourceGraphic" in2="effect1_dropShadow_645_310" result="shape"/>
</filter>
</defs>
</svg>
