<svg width="73" height="72" viewBox="0 0 73 72" fill="none" xmlns="http://www.w3.org/2000/svg">
<path d="M0 4.49701C0 2.01338 2.01629 0 4.50351 0H67.5526C70.0398 0 72.0561 2.01338 72.0561 4.49701V67.4551C72.0561 69.9388 70.0398 71.9521 67.5526 71.9521H4.50351C2.01629 71.9521 0 69.9388 0 67.4551V4.49701ZM18.014 4.49701V31.4791H54.0421V4.49701H18.014ZM54.0421 40.4731H18.014V67.4551H54.0421V40.4731ZM4.50351 4.49701V13.491H13.5105V4.49701H4.50351ZM13.5105 17.988H4.50351V26.982H13.5105V17.988ZM4.50351 31.4791V40.4731H13.5105V31.4791H4.50351ZM13.5105 44.9701H4.50351V53.9641H13.5105V44.9701ZM4.50351 58.4611V67.4551H13.5105V58.4611H4.50351ZM67.5526 4.49701H58.5456V13.491H67.5526V4.49701ZM58.5456 17.988V26.982H67.5526V17.988H58.5456ZM67.5526 31.4791H58.5456V40.4731H67.5526V31.4791ZM58.5456 44.9701V53.9641H67.5526V44.9701H58.5456ZM67.5526 58.4611H58.5456V67.4551H67.5526V58.4611Z" fill="#3A52D6"/>
<rect x="18.0146" y="29.1235" width="36.0281" height="15.4183" fill="#000A1C"/>
<path d="M37.7519 33.4654C37.9795 32.7775 38.9454 32.7776 39.1731 33.4654L40.5112 37.5084C41.1076 39.3106 42.5117 40.7248 44.3011 41.3256L48.3155 42.6733C48.9984 42.9025 48.9984 43.8754 48.3155 44.1047L44.3011 45.4524C42.5118 46.0531 41.1076 47.4673 40.5112 49.2695L39.1731 53.3126C38.9455 54.0004 37.9795 54.0004 37.7519 53.3126L36.4137 49.2695C35.8172 47.4673 34.4131 46.0531 32.6238 45.4524L28.6094 44.1047C27.9265 43.8754 27.9265 42.9025 28.6094 42.6733L32.6238 41.3255C34.4131 40.7248 35.8172 39.3106 36.4137 37.5085L37.7519 33.4654Z" fill="#3A52D6"/>
<path d="M29.4125 19.2808C29.5491 18.8681 30.1286 18.8681 30.2652 19.2808L31.0681 21.7066C31.426 22.788 32.2684 23.6365 33.3421 23.9969L35.7507 24.8055C36.1604 24.9431 36.1604 25.5268 35.7507 25.6644L33.3421 26.473C32.2684 26.8335 31.426 27.682 31.0681 28.7633L30.2652 31.1892C30.1286 31.6018 29.5491 31.6018 29.4125 31.1892L28.6096 28.7633C28.2517 27.682 27.4093 26.8335 26.3356 26.473L23.927 25.6644C23.5173 25.5268 23.5173 24.9431 23.927 24.8055L26.3356 23.9969C27.4093 23.6365 28.2517 22.788 28.6096 21.7067L29.4125 19.2808Z" fill="#3A52D6"/>
<path d="M43.2628 11.3418C43.3539 11.0667 43.7403 11.0667 43.8313 11.3418L44.3666 12.9591C44.6052 13.68 45.1668 14.2456 45.8826 14.4859L47.4883 15.025C47.7615 15.1167 47.7615 15.5059 47.4883 15.5976L45.8826 16.1367C45.1668 16.3769 44.6052 16.9426 44.3666 17.6635L43.8313 19.2808C43.7403 19.5559 43.3539 19.5559 43.2628 19.2808L42.7276 17.6635C42.489 16.9426 41.9274 16.377 41.2116 16.1367L39.6059 15.5976C39.3327 15.5059 39.3327 15.1167 39.6059 15.025L41.2116 14.4859C41.9274 14.2456 42.489 13.68 42.7276 12.9591L43.2628 11.3418Z" fill="#3A52D6"/>
<path d="M26.5534 53.3126C26.6334 53.0709 26.9728 53.0709 27.0528 53.3126L27.523 54.7332C27.7325 55.3664 28.2259 55.8633 28.8546 56.0744L30.2651 56.5479C30.505 56.6285 30.505 56.9703 30.2651 57.0509L28.8546 57.5244C28.2259 57.7355 27.7325 58.2324 27.523 58.8656L27.0528 60.2862C26.9728 60.5278 26.6334 60.5278 26.5534 60.2862L26.0833 58.8656C25.8737 58.2324 25.3803 57.7355 24.7516 57.5244L23.3411 57.0509C23.1012 56.9703 23.1012 56.6285 23.3411 56.5479L24.7516 56.0744C25.3803 55.8633 25.8737 55.3664 26.0833 54.7332L26.5534 53.3126Z" fill="#3A52D6"/>
</svg>
