<svg width="50" height="50" viewBox="0 0 50 50" fill="none" xmlns="http://www.w3.org/2000/svg">
<g filter="url(#filter0_d_346_483)">
<path d="M25 40C33.2843 40 40 33.2843 40 25C40 16.7157 33.2843 10 25 10C16.7157 10 10 16.7157 10 25C10 33.2843 16.7157 40 25 40ZM22.1655 23.125C21.7333 22.0041 20.9253 21.25 20 21.25C19.0746 21.25 18.2667 22.0041 17.8344 23.125C17.6217 22.5734 17.5 21.933 17.5 21.25C17.5 19.1789 18.6193 17.5 20 17.5C21.3807 17.5 22.5 19.1789 22.5 21.25C22.5 21.933 22.3783 22.5734 22.1655 23.125ZM32.1655 23.125C31.7333 22.0041 30.9253 21.25 30 21.25C29.0746 21.25 28.2667 22.0041 27.8344 23.125C27.6217 22.5734 27.5 21.933 27.5 21.25C27.5 19.1789 28.6193 17.5 30 17.5C31.3807 17.5 32.5 19.1789 32.5 21.25C32.5 21.933 32.3783 22.5734 32.1655 23.125ZM15.0541 26.417C15.2185 26.2628 15.4791 26.1624 15.772 26.1965C18.1509 26.4737 22.0885 26.875 25 26.875C27.9116 26.875 31.8492 26.4737 34.2281 26.1965C34.521 26.1624 34.7816 26.2628 34.946 26.417C35.1 26.5614 35.1681 26.7447 35.1268 26.9596C34.9567 27.8441 34.6736 28.6885 34.2929 29.477C33.7998 29.5439 33.2118 29.6187 32.5512 29.6934C30.5008 29.9256 27.7649 30.1562 25 30.1562C22.2351 30.1562 19.4993 29.9256 17.4489 29.6934C16.7883 29.6187 16.2003 29.5439 15.7071 29.477C15.3265 28.6885 15.0434 27.8441 14.8733 26.9596C14.832 26.7447 14.9001 26.5614 15.0541 26.417ZM25 35.3125C21.7837 35.3125 18.9105 33.8396 17.0191 31.5315L17.238 31.5566C19.3285 31.7932 22.1399 32.0312 25 32.0312C27.8601 32.0312 30.6715 31.7932 32.7621 31.5566L32.981 31.5315C31.0896 33.8396 28.2164 35.3125 25 35.3125Z" fill="#CCCCCC"/>
</g>
<defs>
<filter id="filter0_d_346_483" x="0" y="0" width="50" height="50" filterUnits="userSpaceOnUse" color-interpolation-filters="sRGB">
<feFlood flood-opacity="0" result="BackgroundImageFix"/>
<feColorMatrix in="SourceAlpha" type="matrix" values="0 0 0 0 0 0 0 0 0 0 0 0 0 0 0 0 0 0 127 0" result="hardAlpha"/>
<feOffset/>
<feGaussianBlur stdDeviation="5"/>
<feComposite in2="hardAlpha" operator="out"/>
<feColorMatrix type="matrix" values="0 0 0 0 0.35503 0 0 0 0 0.448339 0 0 0 0 0.961538 0 0 0 1 0"/>
<feBlend mode="normal" in2="BackgroundImageFix" result="effect1_dropShadow_346_483"/>
<feBlend mode="normal" in="SourceGraphic" in2="effect1_dropShadow_346_483" result="shape"/>
</filter>
</defs>
</svg>
