<svg width="50" height="50" viewBox="0 0 50 50" fill="none" xmlns="http://www.w3.org/2000/svg">
<g filter="url(#filter0_d_346_493)">
<path d="M40 25C40 33.2843 33.2843 40 25 40C16.7157 40 10 33.2843 10 25C10 16.7157 16.7157 10 25 10C33.2843 10 40 16.7157 40 25ZM23.125 20.3125C23.125 18.7592 22.2855 17.5 21.25 17.5C20.2145 17.5 19.375 18.7592 19.375 20.3125C19.375 21.8658 20.2145 23.125 21.25 23.125C22.2855 23.125 23.125 21.8658 23.125 20.3125ZM30.625 20.3125C30.625 18.7592 29.7855 17.5 28.75 17.5C27.7145 17.5 26.875 18.7592 26.875 20.3125C26.875 21.8658 27.7145 23.125 28.75 23.125C29.7855 23.125 30.625 21.8658 30.625 20.3125ZM25 34.375C27.0711 34.375 28.75 32.6961 28.75 30.625C28.75 28.5539 27.0711 26.875 25 26.875C22.9289 26.875 21.25 28.5539 21.25 30.625C21.25 32.6961 22.9289 34.375 25 34.375Z" fill="#CCCCCC"/>
</g>
<defs>
<filter id="filter0_d_346_493" x="0" y="0" width="50" height="50" filterUnits="userSpaceOnUse" color-interpolation-filters="sRGB">
<feFlood flood-opacity="0" result="BackgroundImageFix"/>
<feColorMatrix in="SourceAlpha" type="matrix" values="0 0 0 0 0 0 0 0 0 0 0 0 0 0 0 0 0 0 127 0" result="hardAlpha"/>
<feOffset/>
<feGaussianBlur stdDeviation="5"/>
<feComposite in2="hardAlpha" operator="out"/>
<feColorMatrix type="matrix" values="0 0 0 0 0.35503 0 0 0 0 0.448339 0 0 0 0 0.961538 0 0 0 1 0"/>
<feBlend mode="normal" in2="BackgroundImageFix" result="effect1_dropShadow_346_493"/>
<feBlend mode="normal" in="SourceGraphic" in2="effect1_dropShadow_346_493" result="shape"/>
</filter>
</defs>
</svg>
