<svg width="32" height="31" viewBox="0 0 32 31" fill="none" xmlns="http://www.w3.org/2000/svg">
<rect y="6.50586" width="29.1193" height="22.6484" rx="4" fill="#CCCCCC"/>
<rect x="3.23535" y="9.74121" width="22.6484" height="16.1774" rx="4" fill="#030E21"/>
<rect x="10.4038" y="13.9326" width="20.2875" height="5.26822" rx="1.5" fill="#CCCCCC" stroke="#030E21"/>
<rect x="10.4038" y="24.6094" width="20.2875" height="5.26822" rx="1.5" fill="#CCCCCC" stroke="#030E21"/>
<rect x="10.4038" y="19.3135" width="20.2875" height="5.26822" rx="1.5" fill="#CCCCCC" stroke="#030E21"/>
<rect x="23.6987" y="21.2285" width="4.44049" height="1.45283" rx="0.726417" fill="#030E21"/>
<rect x="23.6987" y="15.7676" width="4.44049" height="1.45283" rx="0.726417" fill="#030E21"/>
<rect x="23.6987" y="26.5137" width="4.44049" height="1.45283" rx="0.726417" fill="#030E21"/>
<path d="M8.91336 2.00166C9.2141 1.67481 9.72141 1.64963 10.0531 1.94507L14.7438 6.12388C15.2482 6.57325 15.2656 7.35616 14.7816 7.82749C14.3076 8.28914 13.5446 8.2635 13.1027 7.77106L8.90657 3.09578C8.62658 2.78381 8.62951 2.31014 8.91336 2.00166Z" fill="#CCCCCC"/>
<path d="M20.5144 2.00166C20.2136 1.67481 19.7063 1.64963 19.3747 1.94507L14.684 6.12388C14.1796 6.57325 14.1622 7.35616 14.6461 7.82749C15.1201 8.28914 15.8831 8.2635 16.3251 7.77106L20.5212 3.09578C20.8012 2.78381 20.7982 2.31014 20.5144 2.00166Z" fill="#CCCCCC"/>
<circle cx="8.56986" cy="1.46976" r="1.46976" fill="#CCCCCC"/>
<circle cx="1.46976" cy="1.46976" r="1.46976" transform="matrix(-1 0 0 1 22.3276 0)" fill="#CCCCCC"/>
</svg>
