<svg width="50" height="50" viewBox="0 0 50 50" fill="none" xmlns="http://www.w3.org/2000/svg">
<g filter="url(#filter0_d_346_463)">
<path d="M40 25C40 33.2843 33.2843 40 25 40C16.7157 40 10 33.2843 10 25C10 16.7157 16.7157 10 25 10C33.2843 10 40 16.7157 40 25ZM23.125 21.7188C23.125 20.4243 22.2855 19.375 21.25 19.375C20.2145 19.375 19.375 20.4243 19.375 21.7188C19.375 23.0132 20.2145 24.0625 21.25 24.0625C22.2855 24.0625 23.125 23.0132 23.125 21.7188ZM28.75 24.0625C29.7855 24.0625 30.625 23.0132 30.625 21.7188C30.625 20.4243 29.7855 19.375 28.75 19.375C27.7145 19.375 26.875 20.4243 26.875 21.7188C26.875 23.0132 27.7145 24.0625 28.75 24.0625ZM31.5625 32.5C32.9561 32.5 34.113 31.4864 34.3361 30.1562L34.337 30.1507C34.362 30 34.375 29.8453 34.375 29.6875C34.375 29.5278 34.3617 29.3712 34.3361 29.2188C34.113 27.8886 32.9561 26.875 31.5625 26.875H18.4375C17.0439 26.875 15.887 27.8886 15.6639 29.2188L15.663 29.2243C15.638 29.375 15.625 29.5297 15.625 29.6875C15.625 29.8472 15.6383 30.0038 15.6639 30.1562C15.887 31.4864 17.0439 32.5 18.4375 32.5H31.5625ZM16.6216 30.1562C16.8297 30.965 17.5638 31.5625 18.4375 31.5625H18.9062V30.1562H16.6216ZM33.3784 30.1562C33.1703 30.965 32.4362 31.5625 31.5625 31.5625H31.0938V30.1562H33.3784ZM31.5625 27.8125C32.4362 27.8125 33.1703 28.41 33.3784 29.2188H31.0938V27.8125H31.5625ZM16.6216 29.2188C16.8297 28.41 17.5638 27.8125 18.4375 27.8125H18.9062V29.2188H16.6216ZM19.8438 31.5625H21.7188V30.1562H19.8438V31.5625ZM24.5312 31.5625H22.6562V30.1562H24.5312V31.5625ZM27.3438 31.5625H25.4688V30.1562H27.3438V31.5625ZM30.1562 31.5625H28.2812V30.1562H30.1562V31.5625ZM28.2812 27.8125H30.1562V29.2188H28.2812V27.8125ZM25.4688 27.8125H27.3438V29.2188H25.4688V27.8125ZM22.6562 27.8125H24.5312V29.2188H22.6562V27.8125ZM19.8438 27.8125H21.7188V29.2188H19.8438V27.8125Z" fill="#CCCCCC"/>
</g>
<defs>
<filter id="filter0_d_346_463" x="0" y="0" width="50" height="50" filterUnits="userSpaceOnUse" color-interpolation-filters="sRGB">
<feFlood flood-opacity="0" result="BackgroundImageFix"/>
<feColorMatrix in="SourceAlpha" type="matrix" values="0 0 0 0 0 0 0 0 0 0 0 0 0 0 0 0 0 0 127 0" result="hardAlpha"/>
<feOffset/>
<feGaussianBlur stdDeviation="5"/>
<feComposite in2="hardAlpha" operator="out"/>
<feColorMatrix type="matrix" values="0 0 0 0 0.35503 0 0 0 0 0.448339 0 0 0 0 0.961538 0 0 0 1 0"/>
<feBlend mode="normal" in2="BackgroundImageFix" result="effect1_dropShadow_346_463"/>
<feBlend mode="normal" in="SourceGraphic" in2="effect1_dropShadow_346_463" result="shape"/>
</filter>
</defs>
</svg>
