<svg width="102" height="103" viewBox="0 0 102 103" fill="none" xmlns="http://www.w3.org/2000/svg">
<path d="M95.0193 14.2269C94.5767 13.6055 93.9293 13.1638 93.1932 12.9809C92.4571 12.798 91.6806 12.886 91.003 13.2291L86.8274 15.3213L88.8993 11.1047C89.2458 10.4211 89.3388 9.6349 89.1616 8.88808C88.9844 8.14125 88.5486 7.48303 87.9328 7.03226C87.3171 6.58148 86.5621 6.36787 85.8041 6.42998C85.046 6.4921 84.335 6.82586 83.7993 7.37098L71.0493 20.246C70.7539 20.5467 70.5202 20.9034 70.3615 21.2956C70.2029 21.6878 70.1225 22.1077 70.1249 22.5313V27.6491L48.7368 49.2147C48.438 49.514 48.2009 49.87 48.0391 50.2622C47.8773 50.6544 47.7939 51.0751 47.7939 51.5C47.7939 51.925 47.8773 52.3457 48.0391 52.7379C48.2009 53.1301 48.438 53.4861 48.7368 53.7854C49.0331 54.087 49.3857 54.3265 49.7741 54.4899C50.1625 54.6533 50.5791 54.7375 50.9999 54.7375C51.4207 54.7375 51.8373 54.6533 52.2258 54.4899C52.6142 54.3265 52.9667 54.087 53.263 53.7854L74.6193 32.1875H79.6874C80.1069 32.19 80.5228 32.1088 80.9111 31.9486C81.2995 31.7884 81.6527 31.5524 81.9505 31.2541L94.7005 18.3791C95.2323 17.8374 95.5562 17.1225 95.6145 16.3621C95.6729 15.6016 95.462 14.8449 95.0193 14.2269Z" fill="#3A52D6"/>
<path d="M41.7244 49.2147C41.8356 48.717 41.9958 48.2318 42.2025 47.7662C42.1855 47.714 42.1855 47.6576 42.2025 47.6053C42.665 46.5077 43.3364 45.5125 44.1788 44.6762L53.1356 35.6316C52.4293 35.5099 51.716 35.4347 51 35.4062C47.8479 35.4063 44.7665 36.3501 42.1456 38.1185C39.5247 39.8869 37.4819 42.4004 36.2757 45.3412C35.0694 48.2819 34.7538 51.5179 35.3687 54.6397C35.9837 57.7616 37.5016 60.6292 39.7305 62.88C41.9594 65.1307 44.7992 66.6635 47.8908 67.2845C50.9823 67.9055 54.1868 67.5868 57.099 66.3687C60.0112 65.1506 62.5003 63.0878 64.2516 60.4412C66.0028 57.7946 66.9375 54.683 66.9375 51.5C66.9122 50.7555 66.8376 50.0135 66.7144 49.2791L57.7575 58.3238C56.9352 59.1665 55.9616 59.8438 54.8888 60.3194H54.6975C54.2365 60.5281 53.756 60.6899 53.2631 60.8022H52.9125C51.6505 61.0623 50.3495 61.0623 49.0875 60.8022H48.7369C48.244 60.6899 47.7635 60.5281 47.3025 60.3194H47.1431C44.9675 59.3476 43.2286 57.5917 42.2663 55.3947C42.2492 55.3424 42.2492 55.286 42.2663 55.2337C42.0595 54.7682 41.8993 54.283 41.7881 53.7853V53.4312C41.5305 52.1569 41.5305 50.8431 41.7881 49.5687L41.7244 49.2147Z" fill="#3A52D6"/>
<path d="M63.3356 25.396C59.4936 23.5045 55.2743 22.5246 51 22.5313C45.3262 22.5313 39.7797 24.2303 35.0621 27.4134C30.3445 30.5965 26.6675 35.1208 24.4962 40.4142C22.3249 45.7075 21.7568 51.5322 22.8637 57.1516C23.9706 62.7709 26.7029 67.9327 30.7149 71.984C34.7269 76.0354 39.8385 78.7944 45.4034 79.9122C50.9682 81.0299 56.7363 80.4562 61.9782 78.2637C67.2202 76.0711 71.7006 72.3581 74.8528 67.5942C78.005 62.8303 79.6875 57.2295 79.6875 51.5C79.6941 47.1838 78.7238 42.9232 76.8506 39.0435L72.0056 43.9682C73.7025 48.7866 73.7256 54.0447 72.0711 58.8781C70.4166 63.7116 67.1829 67.8329 62.9016 70.5647C58.6203 73.2965 53.546 74.4763 48.5127 73.9101C43.4794 73.344 38.7866 71.0656 35.2055 67.4494C31.6244 63.8332 29.3681 59.0944 28.8075 54.0117C28.2468 48.9291 29.4151 43.8051 32.1204 39.4818C34.8257 35.1585 38.907 31.8931 43.6935 30.2224C48.4801 28.5517 53.6871 28.575 58.4588 30.2885L63.3356 25.396Z" fill="#3A52D6"/>
<path d="M86.445 35.7925C85.5319 36.6983 84.448 37.4098 83.2575 37.8847C85.0886 42.1868 86.0426 46.8174 86.0625 51.5C86.0625 58.5027 84.0061 65.3481 80.1534 71.1707C76.3007 76.9932 70.8247 81.5313 64.4179 84.2111C58.011 86.8909 50.9611 87.5921 44.1597 86.2259C37.3582 84.8598 31.1107 81.4877 26.2071 76.536C21.3035 71.5844 17.9641 65.2756 16.6112 58.4074C15.2583 51.5393 15.9527 44.4203 18.6065 37.9506C21.2603 31.481 25.7543 25.9513 31.5203 22.0608C37.2863 18.1703 44.0653 16.0938 51 16.0938C55.6306 16.0833 60.216 17.0138 64.4831 18.8297C64.9535 17.6276 65.658 16.533 66.555 15.611L68.5631 13.551C63.0664 10.9561 57.0677 9.62586 51 9.65627C42.8045 9.65627 34.7929 12.1104 27.9786 16.7082C21.1642 21.3061 15.8531 27.8412 12.7168 35.4871C9.58045 43.1331 8.75985 51.5464 10.3587 59.6633C11.9576 67.7802 15.9041 75.2361 21.6993 81.088C27.4944 86.94 34.8779 90.9252 42.916 92.5397C50.9541 94.1543 59.2857 93.3257 66.8575 90.1586C74.4292 86.9915 80.9008 81.6283 85.454 74.7472C90.0072 67.866 92.4375 59.7759 92.4375 51.5C92.4377 45.3655 91.0877 39.3077 88.485 33.7647L86.445 35.7925Z" fill="#3A52D6"/>
</svg>
