<svg width="99" height="99" viewBox="0 0 99 99" fill="none" xmlns="http://www.w3.org/2000/svg">
<circle cx="49.5" cy="49.5" r="49.5" transform="matrix(-1 0 0 1 99 0)" fill="white"/>
<g clip-path="url(#clip0_32_97)">
<path d="M46.4332 68.6934C46.6242 71.4429 49.2298 73.5667 52.038 72.8646L52.8047 72.6737C53.5078 72.5088 54.1541 72.1591 54.6767 71.6608C55.1993 71.1624 55.5793 70.5335 55.7774 69.839C56.4237 67.442 57.3431 62.46 55.9596 56.5909C56.361 56.6496 56.7948 56.6996 57.2609 56.7407C59.3553 56.9316 62.1636 56.9493 64.6516 56.1209C66.1732 55.6127 67.5715 54.1234 68.1766 52.3844C68.4786 51.5424 68.5738 50.6402 68.4542 49.7537C68.3345 48.8673 68.0036 48.0226 67.4893 47.2908C67.6596 46.9441 67.7918 46.5799 67.8946 46.2274C68.1208 45.4343 68.2266 44.5589 68.2266 43.7129C68.2266 42.861 68.1208 41.9915 67.8946 41.1955C67.7813 40.785 67.6237 40.388 67.4246 40.0116C67.9211 38.8748 67.7389 37.6029 67.4158 36.6365C67.083 35.684 66.5989 34.7913 65.9823 33.9927C66.1409 33.5433 66.2056 33.0733 66.2056 32.6268C66.193 31.6846 65.937 30.7617 65.4624 29.9478C64.4813 28.2235 62.5337 26.8223 59.7812 26.8223H49.5C47.7228 26.8223 46.3569 27.0573 45.1936 27.4597C44.1931 27.8254 43.2372 28.3034 42.3443 28.8844L42.2032 28.9696C40.7227 29.8743 39.2687 30.7615 36.1285 31.0934C33.8784 31.3313 31.875 33.1496 31.875 35.6318V47.3818C31.875 49.8816 33.8872 51.5913 35.8612 52.1288C38.3551 52.8103 40.4848 54.4406 42.1239 56.2707C43.7689 58.1096 44.8088 60.0307 45.176 61.0823C45.7606 62.7714 46.2217 65.6061 46.4332 68.6934Z" fill="#CC0000"/>
</g>
<defs>
<clipPath id="clip0_32_97">
<rect width="47" height="47" fill="white" transform="translate(26 26)"/>
</clipPath>
</defs>
</svg>
