<svg width="37" height="47" viewBox="0 0 37 47" fill="none" xmlns="http://www.w3.org/2000/svg">
<path d="M14.5582 41.8711C14.7492 44.6206 17.3548 46.7444 20.163 46.0424L20.9297 45.8514C21.6328 45.6866 22.2791 45.3369 22.8017 44.8385C23.3243 44.3401 23.7043 43.7112 23.9024 43.0168C24.5487 40.6198 25.4681 35.6377 24.0846 29.7686C24.486 29.8274 24.9198 29.8773 25.3859 29.9184C27.4803 30.1094 30.2886 30.127 32.7766 29.2986C34.2982 28.7904 35.6965 27.3011 36.3016 25.5621C36.6036 24.7202 36.6988 23.8179 36.5792 22.9315C36.4595 22.045 36.1286 21.2003 35.6143 20.4685C35.7846 20.1219 35.9168 19.7576 36.0196 19.4051C36.2458 18.612 36.3516 17.7366 36.3516 16.8906C36.3516 16.0387 36.2458 15.1692 36.0196 14.3732C35.9063 13.9627 35.7487 13.5658 35.5496 13.1894C36.0461 12.0526 35.8639 10.7806 35.5408 9.81419C35.208 8.86172 34.7239 7.96904 34.1073 7.17044C34.2659 6.721 34.3306 6.251 34.3306 5.8045C34.318 4.86236 34.062 3.93948 33.5874 3.1255C32.6063 1.40119 30.6587 0 27.9062 0H17.625C15.8478 0 14.4819 0.235 13.3186 0.637438C12.3181 1.00317 11.3622 1.48111 10.4693 2.06212L10.3282 2.14731C8.84775 3.05206 7.39369 3.93919 4.2535 4.27112C2.00338 4.50906 0 6.32737 0 8.80956V20.5596C0 23.0594 2.01219 24.769 3.98619 25.3066C6.48013 25.9881 8.60981 27.6184 10.2489 29.4484C11.8939 31.2873 12.9338 33.2084 13.301 34.2601C13.8856 35.9491 14.3467 38.7838 14.5582 41.8711Z" fill="#CC0000"/>
</svg>
