<svg width="99" height="99" viewBox="0 0 99 99" fill="none" xmlns="http://www.w3.org/2000/svg">
<circle cx="49.5" cy="49.5" r="49.5" transform="matrix(-1 0 0 1 99 0)" fill="white"/>
<path d="M45.4332 30.1259C45.6242 27.3794 48.2297 25.2556 51.038 25.9547L51.8047 26.1486C53.1647 26.4893 54.3721 27.4881 54.7774 28.9832C55.4237 31.3802 56.3431 36.3593 54.9596 42.2314C55.3922 42.1718 55.826 42.1218 56.2609 42.0816C58.3553 41.8906 61.1636 41.8701 63.6516 42.6984C65.1733 43.2066 66.5715 44.6989 67.1766 46.4379C67.7171 48.0006 67.6466 49.8512 66.4893 51.5286C66.6577 51.8811 66.7928 52.2365 66.8946 52.5949C67.1208 53.388 67.2266 54.2604 67.2266 55.1094C67.2266 55.9583 67.1208 56.8307 66.8946 57.6239C66.7801 58.0204 66.6303 58.4258 66.4246 58.8106C66.9211 59.9474 66.7389 61.2164 66.4158 62.1829C66.0833 63.1364 65.5992 64.0301 64.9823 64.8296C65.1409 65.2761 65.2056 65.7461 65.2056 66.1955C65.2056 67.0914 64.9441 68.0314 64.4624 68.8745C63.4813 70.5959 61.5337 72 58.7813 72L48.5 72C46.7228 72 45.3569 71.7621 44.1936 71.3596C43.1932 70.9948 42.2373 70.5179 41.3443 69.9379L41.2033 69.8497C39.7228 68.9479 38.2687 68.0608 35.1285 67.7289C32.8784 67.488 30.875 65.6726 30.875 63.1875L30.875 51.4375C30.875 48.9406 32.8872 47.231 34.8612 46.6934C37.3551 46.0119 39.4848 44.3816 41.1239 42.5516C42.7689 40.7097 43.8088 38.7916 44.176 37.737C44.7606 36.0479 45.2217 33.2162 45.4332 30.1289L45.4332 30.1259Z" fill="#41B900"/>
</svg>
