<svg width="37" height="47" viewBox="0 0 37 47" fill="none" xmlns="http://www.w3.org/2000/svg">
<path d="M14.5582 4.30562C14.7492 1.55906 17.3547 -0.564757 20.163 0.134368L20.9297 0.328243C22.2897 0.668992 23.4971 1.66774 23.9024 3.16293C24.5487 5.55993 25.4681 10.539 24.0846 16.4111C24.5172 16.3515 24.951 16.3015 25.3859 16.2612C27.4803 16.0703 30.2886 16.0497 32.7766 16.8781C34.2983 17.3863 35.6965 18.8786 36.3016 20.6176C36.8421 22.1803 36.7716 24.0309 35.6143 25.7082C35.7827 26.0607 35.9178 26.4162 36.0196 26.7746C36.2458 27.5677 36.3516 28.4401 36.3516 29.2891C36.3516 30.138 36.2458 31.0104 36.0196 31.8036C35.9051 32.2001 35.7553 32.6055 35.5496 32.9903C36.0461 34.1271 35.8639 35.3961 35.5408 36.3626C35.2083 37.3161 34.7242 38.2097 34.1073 39.0092C34.2659 39.4557 34.3306 39.9257 34.3306 40.3752C34.3306 41.2711 34.0691 42.2111 33.5874 43.0542C32.6063 44.7756 30.6587 46.1797 27.9063 46.1797L17.625 46.1797C15.8478 46.1797 14.4819 45.9418 13.3186 45.5393C12.3182 45.1745 11.3623 44.6976 10.4693 44.1176L10.3283 44.0294C8.84776 43.1276 7.39369 42.2405 4.25351 41.9086C2.00338 41.6677 6.968e-06 39.8523 6.53349e-06 37.3672L4.47905e-06 25.6172C4.04248e-06 23.1203 2.01219 21.4107 3.98619 20.8731C6.48013 20.1916 8.60981 18.5613 10.2489 16.7312C11.8939 14.8894 12.9338 12.9712 13.301 11.9167C13.8856 10.2276 14.3467 7.39587 14.5582 4.30856L14.5582 4.30562Z" fill="#41B900"/>
</svg>
