<svg width="32" height="32" viewBox="0 0 32 32" fill="none" xmlns="http://www.w3.org/2000/svg">
<g clip-path="url(#clip0_204_789)">
<path d="M15.5101 29.0814C11.9108 29.0814 8.45884 27.6516 5.91372 25.1065C3.3686 22.5614 1.93876 19.1094 1.93876 15.5101C1.93876 11.9108 3.3686 8.45884 5.91372 5.91372C8.45884 3.3686 11.9108 1.93876 15.5101 1.93876C19.1094 1.93876 22.5614 3.3686 25.1065 5.91372C27.6516 8.45884 29.0814 11.9108 29.0814 15.5101C29.0814 19.1094 27.6516 22.5614 25.1065 25.1065C22.5614 27.6516 19.1094 29.0814 15.5101 29.0814ZM15.5101 31.0202C19.6236 31.0202 23.5687 29.3861 26.4774 26.4774C29.3861 23.5687 31.0202 19.6236 31.0202 15.5101C31.0202 11.3966 29.3861 7.45151 26.4774 4.5428C23.5687 1.6341 19.6236 0 15.5101 0C11.3966 0 7.45151 1.6341 4.5428 4.5428C1.6341 7.45151 0 11.3966 0 15.5101C0 19.6236 1.6341 23.5687 4.5428 26.4774C7.45151 29.3861 11.3966 31.0202 15.5101 31.0202Z" fill="#CCCCCC"/>
<path d="M17.3127 12.773L12.8729 13.3295L12.7139 14.0662L13.5864 14.2271C14.1564 14.3628 14.2688 14.5683 14.1447 15.1364L12.7139 21.86C12.3378 23.5991 12.9175 24.4172 14.2804 24.4172C15.3371 24.4172 16.5643 23.9287 17.1207 23.2579L17.2913 22.4513C16.9036 22.7926 16.3375 22.9283 15.9613 22.9283C15.4282 22.9283 15.2343 22.5541 15.372 21.8949L17.3127 12.773ZM17.4484 8.7249C17.4484 9.23909 17.2441 9.73222 16.8805 10.0958C16.5169 10.4594 16.0238 10.6637 15.5096 10.6637C14.9954 10.6637 14.5023 10.4594 14.1387 10.0958C13.7751 9.73222 13.5709 9.23909 13.5709 8.7249C13.5709 8.2107 13.7751 7.71757 14.1387 7.35398C14.5023 6.99039 14.9954 6.78613 15.5096 6.78613C16.0238 6.78613 16.5169 6.99039 16.8805 7.35398C17.2441 7.71757 17.4484 8.2107 17.4484 8.7249Z" fill="#CCCCCC"/>
</g>
<defs>
<clipPath id="clip0_204_789">
<rect width="31.0202" height="31.0202" fill="white"/>
</clipPath>
</defs>
</svg>
