<svg width="139" height="71" viewBox="0 0 139 71" fill="none" xmlns="http://www.w3.org/2000/svg">
<g clip-path="url(#clip0_78_107)">
<path d="M38.8794 11.3834C41.3004 8.31468 42.9496 4.20921 42.5088 0C38.9716 0.176384 34.645 2.36278 32.1332 5.43262C29.8866 8.05694 27.8991 12.3476 28.4114 16.3702C32.3997 16.7228 36.3676 14.3601 38.8794 11.3834Z" fill="#F0F0F0"/>
<path d="M42.467 17.1578C36.6844 16.8051 31.7734 20.4754 29.0157 20.4754C26.2489 20.4754 22.0232 17.3341 17.4506 17.417C11.5041 17.5052 5.98832 20.9109 2.96378 26.3226C-3.24948 37.1356 1.32175 53.1948 7.3621 62.007C10.2942 66.3717 13.8314 71.1716 18.4861 70.9953C22.8844 70.8189 24.6171 68.1241 29.9588 68.1241C35.3106 68.1241 36.8588 70.9953 41.5134 70.913C46.3526 70.8248 49.367 66.5483 52.2991 62.1837C55.6619 57.2177 57.0461 52.4178 57.1281 52.148C57.0409 52.0599 47.8188 48.4781 47.7264 37.748C47.6392 28.7595 54.9752 24.488 55.3236 24.2288C51.1816 18.0291 44.7123 17.3341 42.467 17.1578Z" fill="#F0F0F0"/>
<path d="M79.2727 8.88574V20.7355H88.6948V28.5629H79.2727V56.4407C79.2727 60.7537 81.1502 62.7544 85.2704 62.7544C86.305 62.7544 87.9964 62.6076 88.6538 62.5194V70.3883C87.5262 70.6233 85.2704 70.8144 83.0663 70.8144C73.3161 70.8144 69.5226 67.0199 69.5226 57.4406V28.5674H62.2944V20.74H69.5226V8.89026L79.2727 8.88574Z" fill="#F0F0F0"/>
<path d="M121.686 70.4231H111.331L93.9326 20.7428H104.226L116.437 60.6676H116.67L128.881 20.7428H139L121.686 70.4231Z" fill="#F0F0F0"/>
</g>
<defs>
<clipPath id="clip0_78_107">
<rect width="139" height="71" fill="white"/>
</clipPath>
</defs>
</svg>
