<svg width="163" height="88" viewBox="0 0 163 88" fill="none" xmlns="http://www.w3.org/2000/svg">
<path d="M73.6858 59.4826C73.7756 59.4949 73.7951 59.4984 73.8825 59.5097C75.3443 59.7075 76.7807 59.9696 77.8802 60.4588C78.8991 60.9065 79.4964 61.4732 80.0418 62.4833C80.871 64.015 80.925 66.1609 80.1757 67.785C79.6159 68.9935 78.387 70.0068 77.2652 70.5439C76.1001 71.1061 74.9523 71.3737 73.6358 71.5233C71.3333 71.7756 68.8466 71.3009 66.7748 70.3035C65.549 69.7078 64.0522 68.6819 63.2972 67.3602C62.7419 66.3919 62.7596 65.1321 63.4351 64.2118C64.5119 62.745 66.8181 62.4221 68.5551 62.4833C69.8794 62.5344 72.2638 62.9418 73.5212 63.387C73.8697 63.5123 75.155 64.0107 75.3793 64.2392C75.5373 64.3982 75.6397 64.6292 75.5687 64.8428C75.2815 65.7173 73.1461 66.1783 72.5295 66.2709C70.8789 66.5226 70.0224 65.9008 68.1458 65.1634C67.68 64.9818 67.0591 64.7804 66.5849 64.7368C65.7329 64.656 64.7039 64.8935 64.5413 65.8191C64.4604 66.2961 65.0225 66.7423 65.4512 66.9298C66.4578 67.3602 67.2761 67.5149 68.2669 67.5282C71.1936 67.5761 74.4827 67.0965 76.8766 65.4085C77.2043 65.1757 77.5262 64.835 77.5296 64.4055C77.54 63.5382 76.0122 63.0078 76.0122 63.0078C74.3997 62.3387 71.4202 62.0131 69.8852 61.8872C68.2745 61.7485 65.7401 61.5409 65.1316 61.4517C64.5051 61.3627 63.8245 61.2369 63.2819 60.9949C62.7369 60.7499 62.2037 60.2014 62.0455 59.5947C61.7648 58.5009 62.1229 57.1589 62.7332 56.2851C64.3327 53.9964 68.0796 53.1272 70.8787 52.782C73.5879 52.4465 77.9678 52.4499 80.6288 53.8572C81.0396 54.0764 81.2495 54.2803 81.1636 54.7174C80.9903 55.538 80.3706 56.0669 79.6195 56.2987C78.8315 56.5483 77.2014 56.6455 76.4855 56.6904C73.2773 56.8694 69.4004 56.7755 66.3447 57.6049C66.1053 57.6729 65.6917 57.7839 65.5573 57.9333C65.079 58.45 66.4451 58.5977 66.7378 58.6568C66.8248 58.6775 66.8416 58.6804 66.9324 58.6902L73.6858 59.4826ZM54.6003 45.2451C54.6003 45.2451 55.1221 44.4662 55.5593 43.8753C56.3555 42.7991 57.7963 41.3066 58.8813 40.3826C59.2132 40.1004 59.6045 39.7808 59.6045 39.7808C59.6045 39.7808 58.9925 39.8438 58.6456 39.9143C57.8224 40.0738 56.6153 40.8723 56.0122 41.3882C55.0169 42.2361 53.9225 43.6145 54.4177 44.8393C54.4896 45.0123 54.6003 45.2451 54.6003 45.2451ZM60.133 46.7187C61.7053 46.6107 63.178 46.1602 64.5492 45.4033C65.8939 44.6544 67.8718 43.1941 67.6667 41.4774C67.6043 40.9217 67.2388 40.5022 66.7774 40.3064C66.1776 40.0478 65.8649 40.0895 65.0988 40.3161C64.5422 40.4781 64.2915 40.5765 63.7659 40.8758C62.2235 41.7677 60.0366 43.6764 58.8493 45.1997C58.5753 45.559 58.2978 45.9607 58.0806 46.2361C57.9436 46.4059 57.8372 46.5618 57.8505 46.6033C57.8979 46.776 59.519 46.7602 60.133 46.7187ZM56.1298 49.6451C55.9677 49.8158 55.7961 50.2274 55.6182 50.5255C55.5231 50.6849 55.347 50.8902 55.2305 50.9726C54.8213 51.2721 54.4746 51.286 54.0796 50.94C53.5256 50.4523 53.2052 49.6981 53.1825 48.9644C53.1707 48.6442 53.2258 48.2899 53.165 48.02C53.0642 47.5643 52.606 47.0949 52.359 46.6592C52.0689 46.146 51.8342 45.2511 51.805 44.6733C51.7055 42.8716 52.6597 41.212 53.8993 39.903C55.1476 38.5794 56.7807 37.4793 58.5568 36.7304C60.2357 36.0266 62.696 35.5468 64.5396 36.1823C65.1398 36.387 65.9761 36.8954 66.3963 37.4279C66.4855 37.5384 66.5583 37.658 66.6498 37.7165C66.7318 37.7685 66.9462 37.789 67.1168 37.8202C67.7048 37.9216 68.5514 38.3647 68.8973 38.6598C69.5921 39.2564 69.9727 39.8266 70.1488 40.6542C70.502 42.3193 69.5385 44.1462 68.4412 45.258C66.5621 47.1716 64.7065 48.5171 62.3027 49.4537C61.2469 49.8641 59.6026 50.2476 58.4047 50.1404C58.0327 50.1097 57.6507 50.0121 57.2884 49.9882C57.1035 49.9724 56.4277 49.7989 56.3555 49.7499C56.2659 49.6814 56.1501 49.6218 56.1298 49.6451ZM58.2767 53.3369C58.3499 53.3491 58.4627 53.3818 58.5597 53.4189C59.4024 53.738 59.7491 54.5142 59.9567 55.3668C60.4378 57.3466 60.6431 61.7265 60.7231 63.4409C60.7819 64.7277 60.8142 65.9937 60.8684 67.2657C60.9143 68.3428 61.0007 69.7748 60.7751 70.784C60.6931 71.1469 60.4492 71.569 60.0999 71.7852C59.6998 72.0401 58.7891 72.0595 58.2885 71.9567C57.0547 71.7028 56.6538 70.9132 56.4777 69.6987C56.0591 66.8009 56.2607 61.1136 56.5077 58.7138C56.5898 57.9212 56.8898 55.3815 57.3056 54.3166C57.4476 53.9575 57.75 53.2343 58.2767 53.3369ZM20.7408 58.1583C20.7408 58.1583 18.9045 58.2877 17.6406 58.4273C16.0326 58.5996 13.0113 59.1188 11.2673 59.7386C10.7442 59.925 9.68153 60.3677 9.58918 60.903C9.49212 61.4579 9.83816 61.8918 10.223 62.3407C10.4455 62.6014 11.705 63.8073 12.0582 64.1003C13.5386 65.3304 16.5405 67.2275 18.7514 68.1488C19.511 68.4615 20.7676 68.9093 20.7676 68.9093C20.7676 68.9093 20.6743 65.3484 20.691 61.8407C20.7007 59.9903 20.7408 58.1583 20.7408 58.1583ZM54.4121 59.5755C54.5173 60.5321 54.2703 62.3408 54.2274 62.5794C54.1492 63.1293 53.7326 64.3977 53.6634 64.5525C53.3271 65.3233 52.9955 65.9549 52.6441 66.5849C52.042 67.6635 50.6101 69.3734 49.7601 70.1052C46.5992 72.8244 41.7059 74.3725 37.508 74.8825C34.6595 75.225 31.3864 75.1747 28.3681 74.6189C27.3294 74.4308 25.7836 74.0763 25.7836 74.0763C25.7836 74.0763 25.7886 74.6914 25.7391 75.124C25.7151 75.3214 25.5657 75.8409 25.482 76.0092C25.2626 76.4604 24.9022 76.6932 24.3783 76.7933C23.746 76.9101 23.0753 76.9491 22.491 76.7005C21.5316 76.2987 21.1872 75.4054 21.02 74.3751C20.8848 73.5511 20.7433 72.1188 20.7433 72.1188C20.7433 72.1188 20.0255 71.7805 19.4271 71.4833C17.589 70.5819 15.8432 69.4897 14.3159 68.3665C13.8928 68.0522 12.0749 66.537 11.6737 66.1607C10.5486 65.0977 9.53643 64.0401 8.76645 62.683C8.16786 61.6228 7.99548 60.6819 8.45076 59.5585C9.07856 57.9927 11.3341 56.8138 12.8779 56.142C14.0109 55.6441 17.5341 54.4991 18.9977 54.2869C19.6889 54.1885 20.7611 53.9974 20.827 53.9548C20.854 53.9342 20.8726 53.9168 20.8921 53.8947C20.9259 53.8473 20.9828 52.2974 20.9718 51.7304C20.9575 51.1729 21.3863 47.5115 21.5241 46.7372C21.596 46.3185 21.9146 44.7067 22.2399 44.2836C22.4527 43.9977 22.8289 44.0208 23.1357 44.2085C24.8143 45.2474 25.3242 48.8501 25.449 50.6833C25.5237 51.8002 25.5609 53.4802 25.5609 53.4802C25.5609 53.4802 27.4865 53.4235 28.671 53.4569C29.8221 53.4835 31.0908 53.6643 32.2856 53.8538C33.8152 54.0979 36.7966 54.7452 38.5065 55.6079C39.9145 56.3184 41.2325 57.5154 41.6595 58.7822C42.0562 59.9435 41.9968 60.7471 41.3925 61.7952C40.7131 62.9786 39.4279 63.8582 38.1249 63.9317C37.7372 63.954 36.2777 63.7609 35.8286 63.4149C35.6525 63.277 35.6616 63.028 35.7887 62.8592C35.8369 62.7999 36.5191 62.4389 36.9217 62.2283C37.1119 62.1271 37.2888 62.0028 37.4483 61.8583C37.7828 61.5651 38.0839 61.2424 38.0503 60.8641C38.004 60.373 37.4819 60.0701 36.9842 59.8753C34.6493 58.9521 29.9873 58.1858 27.7345 58.0531C26.8527 58.0016 25.5984 57.9575 25.5984 57.9575L25.8636 70.3388C25.8636 70.3388 26.9006 70.5354 27.7178 70.6672C28.1867 70.7379 30.1735 70.9159 30.7015 70.9289C34.7215 71.0345 39.2083 70.6762 42.8976 68.9436C44.5172 68.185 46.0032 67.2405 47.1281 65.9619C48.6108 64.2701 49.3873 61.9548 49.1818 59.5364C48.9565 56.8952 47.0888 53.7599 45.5974 51.8509C41.6567 46.8072 34.902 42.6582 28.9593 40.2258C22.8922 37.7441 16.8959 36.3164 10.457 36.0773C8.79712 36.0161 5.17783 36.0995 3.3483 36.6031C3.08699 36.6765 2.82356 36.764 2.58091 36.8183C2.38923 36.865 2.08717 36.9913 2.00423 37.058C1.97172 37.0852 1.94118 37.1147 1.91285 37.1462C1.91285 37.1462 2.02566 37.2083 2.13343 37.2536C2.32722 37.3378 3.14298 37.3882 3.56514 37.4651C3.94283 37.5359 4.3361 37.7333 4.49176 38.0087C4.63962 38.2705 4.65812 38.477 4.48137 38.6954C4.06683 39.1971 2.50657 39.1125 1.81953 39.0042C1.10554 38.891 0.21658 38.6736 0.0532986 38.0549C-0.136114 37.3262 0.211711 36.6119 0.587452 35.9515C1.34234 34.6303 2.42364 33.9431 4.00711 33.5127C6.2562 32.8968 9.09609 32.4661 11.2199 32.3854C16.0268 32.2046 20.5763 33.0412 25.2337 34.4485C27.8992 35.2507 31.389 36.5968 33.9439 37.8211C35.7771 38.7009 38.6656 40.3187 40.2882 41.3759C40.7999 41.7121 43.7946 43.9021 44.2598 44.287C45.2303 45.0766 46.4995 46.2116 47.4186 47.1193C49.1969 48.8731 51.4086 51.5614 52.4831 53.6952C52.7417 54.2061 52.942 54.7088 53.2755 55.301C53.3903 55.5039 53.8811 56.7174 53.9627 57.0679C54.0435 57.4147 54.162 57.9246 54.1787 57.9447C54.2024 58.131 54.43 59.1736 54.4121 59.5755ZM114.843 56.8379C112.592 57.3545 106.672 57.6414 106.672 57.6414L105.926 59.9685C105.926 59.9685 108.884 59.7171 111.036 59.9409C111.036 59.9409 111.733 59.8603 111.815 60.7287C111.843 61.5386 111.746 62.4077 111.746 62.4077C111.746 62.4077 111.702 62.9335 110.953 63.0673C110.142 63.2018 104.577 63.416 104.577 63.416L103.676 66.4494C103.676 66.4494 103.341 67.1506 104.091 66.9505C104.789 66.7647 110.619 65.6758 111.379 65.8325C112.193 66.0336 113.093 67.1135 112.833 68.0976C112.523 69.3174 106.703 73.0112 103.159 72.7534C103.159 72.7534 101.297 72.873 99.7227 70.3716C98.2567 67.9879 100.278 63.4745 100.278 63.4745C100.278 63.4745 99.3516 61.3676 100.023 60.6534C100.023 60.6534 100.423 60.2925 101.588 60.211L103.014 57.274C103.014 57.274 101.389 57.3853 100.423 56.1958C99.5224 55.0673 99.4469 54.5486 100.137 54.237C100.875 53.8741 107.641 52.6452 112.297 52.8011C112.297 52.8011 113.915 52.6429 115.318 55.4362C115.319 55.4364 115.999 56.566 114.843 56.8379ZM97.3314 68.1304C96.7348 69.5272 95.1586 71.0179 93.2005 70.0913C91.2676 69.1628 88.1888 62.8912 88.1888 62.8912C88.1888 62.8912 87.02 60.5526 86.7952 60.6129C86.7952 60.6129 86.5427 60.1562 86.3878 62.7117C86.2268 65.2564 86.4188 70.2184 85.3989 70.9995C84.4327 71.7826 83.2628 71.4708 82.6561 70.5559C82.1045 69.6545 81.875 67.5127 82.176 63.7509C82.5296 59.9819 83.4093 55.9719 84.5333 54.7232C85.6557 53.4829 86.5568 54.3833 86.908 54.7099C86.908 54.7099 88.4094 56.0643 90.8852 60.0412L91.3221 60.7768C91.3221 60.7768 93.5721 64.5341 93.8071 64.5253C93.8071 64.5253 93.991 64.698 94.1549 64.574C94.3911 64.5068 94.2958 63.302 94.2958 63.302C94.2958 63.302 93.829 59.2073 91.7764 52.2767C91.7764 52.2767 91.4661 51.4125 91.676 50.6027C91.8844 49.7843 92.7086 50.1685 92.7086 50.1685C92.7086 50.1685 95.8898 51.7604 97.434 56.9153C98.968 62.0717 97.9371 66.7231 97.3314 68.1304ZM131.569 65.0431C130.121 67.5577 126.033 72.8232 120.6 71.58C118.806 75.9102 117.299 80.2906 116.437 86.8452C116.437 86.8452 116.247 88.1189 115.184 87.6765C114.13 87.3093 112.394 85.5652 112.042 83.1523C111.664 79.9827 113.082 74.6247 115.98 68.4809C115.135 67.1135 114.559 65.1599 115.052 62.378C115.052 62.378 115.78 57.2122 120.992 52.5562C120.992 52.5562 121.617 52.019 121.98 52.1845C122.379 52.351 122.194 54.032 121.877 54.8494C121.548 55.6621 119.227 59.6606 119.227 59.6606C119.227 59.6606 117.78 62.362 118.187 64.4927C120.921 60.3093 127.136 51.8735 130.988 54.5337C132.282 55.4551 132.878 57.4593 132.878 59.6189C132.879 61.5159 132.42 63.532 131.569 65.0431ZM130.445 58.4177C130.445 58.4177 130.231 56.7545 128.597 58.5869C127.192 60.1331 124.657 63.0301 122.617 66.965C124.758 66.7258 126.823 65.5698 127.447 64.981C128.462 64.0847 130.827 61.6527 130.445 58.4177ZM161.499 58.0391H151.542C151.343 54.6709 150.935 51.3899 150.292 48.0108C150.261 47.8416 150.171 47.6887 150.038 47.5785C149.905 47.4683 149.738 47.4078 149.565 47.4075H147.269C147.17 47.4077 147.072 47.4298 146.982 47.4722C146.893 47.5146 146.814 47.5762 146.751 47.6527C146.687 47.7294 146.642 47.8192 146.617 47.9155C146.592 48.0119 146.589 48.1125 146.608 48.2101C147.261 51.48 147.674 54.6983 147.878 58.0423H138.298C137.852 58.0423 137.489 58.4021 137.489 58.8445V60.9051C137.489 61.1186 137.575 61.3233 137.726 61.4743C137.878 61.6254 138.084 61.7104 138.298 61.7108H148.015C148.021 62.2194 148.026 62.6747 148.026 63.102C148.026 66.0717 147.897 68.5181 147.597 71.2788C147.585 71.3838 147.596 71.4902 147.629 71.5907C147.662 71.6911 147.716 71.7833 147.788 71.8611C147.858 71.939 147.943 72.0013 148.039 72.044C148.134 72.0867 148.238 72.1088 148.343 72.1089H150.472C150.672 72.1092 150.865 72.0353 151.013 71.9017C151.161 71.768 151.254 71.5841 151.273 71.386C151.564 68.6066 151.689 66.1299 151.689 63.1019C151.689 62.6762 151.684 62.2192 151.678 61.7107H161.499C161.944 61.7107 162.308 61.3484 162.308 60.9049V58.8444C162.307 58.6309 162.222 58.4263 162.071 58.2754C161.919 58.1244 161.713 58.0395 161.499 58.0391Z" fill="#F0F0F0"/>
<path d="M28.3576 30.4268C28.2882 30.5291 28.2435 30.6461 28.2272 30.7684C28.2109 30.8908 28.2233 31.0153 28.2635 31.1321C28.3039 31.249 28.3705 31.3552 28.4581 31.4428C28.5458 31.5303 28.6523 31.5969 28.7696 31.6376L30.5545 32.2354C30.658 32.2686 30.7661 32.2858 30.8749 32.2866C31.0379 32.2869 31.1984 32.2472 31.3423 32.171C31.4863 32.0949 31.6091 31.9846 31.7 31.85C37.5467 23.3016 45.4595 16.184 54.5844 11.2668C64.0047 6.18966 74.6779 3.50409 85.4533 3.50409C98.4684 3.50409 111.026 7.32511 121.77 14.5533C132.253 21.6038 140.394 31.4405 145.314 43.0003C145.385 43.1692 145.505 43.3132 145.659 43.4144C145.812 43.5157 145.992 43.5696 146.177 43.5694H148.308C148.43 43.569 148.55 43.5389 148.657 43.4818C148.764 43.4248 148.856 43.3424 148.924 43.242C148.992 43.1415 149.035 43.0258 149.047 42.9051C149.06 42.7844 149.043 42.6624 148.997 42.55C143.924 30.1207 135.345 19.5253 124.185 11.9131C112.761 4.12003 99.3673 0 85.4533 0C62.451 0 41.1061 11.3749 28.3576 30.4268Z" fill="url(#paint0_linear_78_114)"/>
<defs>
<linearGradient id="paint0_linear_78_114" x1="151.028" y1="28.3286" x2="30.7776" y2="11.9927" gradientUnits="userSpaceOnUse">
<stop stop-color="#101C50"/>
<stop offset="0.236" stop-color="#0D267A"/>
<stop offset="0.497" stop-color="#085AA4"/>
<stop offset="0.655" stop-color="#058BBF"/>
<stop offset="1" stop-color="#B1FFFF"/>
</linearGradient>
</defs>
</svg>
