<svg width="142" height="94" viewBox="0 0 142 94" fill="none" xmlns="http://www.w3.org/2000/svg">
<path d="M57.2893 66.271C57.0625 56.0197 49.805 50.5992 40.9145 50.5992C36.0383 50.5992 31.6384 52.2321 28.6446 55.4073C25.6509 52.2321 21.251 50.5992 16.3749 50.5992C7.48435 50.5992 0.226799 56.0424 0 66.2937C0 66.3163 0 66.339 0 66.3617V89.7447C0 91.8993 1.74632 93.6229 3.87823 93.6229H7.55236C7.91523 93.6229 8.2101 93.3281 8.2101 92.9652V66.339C8.36886 61.2814 11.9523 58.6052 16.3749 58.6052C20.7974 58.6052 24.3809 61.2814 24.5396 66.339V89.722C24.5396 91.8766 26.2859 93.6002 28.4178 93.6002H32.092C32.4549 93.6002 32.7497 93.3054 32.7497 92.9425V66.3163C32.9085 61.2587 36.4919 58.5825 40.9145 58.5825C45.3371 58.5825 48.9205 61.2587 49.0792 66.3163V89.6993C49.0792 91.8539 50.8256 93.5776 52.9575 93.5776H56.6316C56.9945 93.5776 57.2893 93.2827 57.2893 92.9198V66.2937C57.312 66.3163 57.2893 66.2937 57.2893 66.271ZM140.003 51.2569H133.766C132.042 51.2569 130.432 52.1187 129.457 53.5476L122.562 63.7535C121.655 65.0916 119.704 65.0916 118.797 63.7535L111.902 53.5476C110.95 52.1187 109.317 51.2569 107.593 51.2569H101.356C100.971 51.2569 100.744 51.6878 100.948 52.0053L113.241 70.24C114.125 71.5554 114.125 73.2791 113.241 74.5945L100.948 92.8291C100.721 93.1466 100.971 93.5776 101.356 93.5776H107.593C109.317 93.5776 110.927 92.7157 111.902 91.2869L118.797 81.081C119.704 79.7428 121.655 79.7428 122.562 81.081L129.457 91.2869C130.409 92.7157 132.042 93.5776 133.766 93.5776H140.003C140.388 93.5776 140.615 93.1466 140.411 92.8291L128.096 74.6172C127.211 73.3018 127.211 71.5781 128.096 70.2626L140.388 52.028C140.615 51.7105 140.388 51.2569 140.003 51.2569ZM98.1358 51.2569H94.4617C92.6019 51.2569 91.037 52.5723 90.6515 54.3187C87.3856 51.8239 83.2805 50.5538 78.8579 50.5538C68.1077 50.5538 59.3759 58.0382 59.3759 72.1678C59.3759 86.2973 68.085 93.7817 78.8579 93.7817C83.2578 93.7817 87.3175 92.5343 90.5834 90.0849C90.7649 92.058 92.4205 93.6229 94.4617 93.6229H98.1358C98.4987 93.6229 98.7935 93.3281 98.7935 92.9652V51.9146C98.7708 51.5517 98.4987 51.2569 98.1358 51.2569ZM78.8579 85.753C72.4395 85.753 67.2231 81.0583 67.2231 72.1904C67.2231 63.3226 72.4395 58.6279 78.8579 58.6279C85.2763 58.6279 90.4927 63.3226 90.4927 72.1904C90.4927 81.0583 85.2763 85.753 78.8579 85.753Z" fill="url(#paint0_linear_78_141)"/>
<mask id="mask0_78_141" style="mask-type:luminance" maskUnits="userSpaceOnUse" x="0" y="50" width="142" height="44">
<path d="M58.1731 66.271C57.9463 56.0197 50.6888 50.5992 41.7983 50.5992C36.9221 50.5992 32.5222 52.2321 29.5284 55.4073C26.5347 52.2321 22.1348 50.5992 17.2586 50.5992C8.36814 50.5992 1.11059 56.0424 0.883789 66.2937C0.883789 66.3164 0.883789 66.339 0.883789 66.3617V89.7447C0.883789 91.8993 2.63011 93.6229 4.76202 93.6229H8.43614C8.79902 93.6229 9.09389 93.3281 9.09389 92.9652V66.339C9.25265 61.2814 12.8361 58.6052 17.2586 58.6052C21.6812 58.6052 25.2646 61.2814 25.4234 66.339V89.722C25.4234 91.8766 27.1697 93.6002 29.3016 93.6002H32.9758C33.3387 93.6002 33.6335 93.3054 33.6335 92.9425V66.3163C33.7923 61.2587 37.3757 58.5825 41.7983 58.5825C46.2208 58.5825 49.8043 61.2587 49.963 66.3163V89.6993C49.963 91.8539 51.7094 93.5776 53.8413 93.5776H57.5154C57.8783 93.5776 58.1731 93.2827 58.1731 92.9198V66.2937C58.1958 66.3164 58.1731 66.2937 58.1731 66.271ZM140.887 51.2569H134.65C132.926 51.2569 131.316 52.1187 130.34 53.5476L123.446 63.7535C122.539 65.0916 120.588 65.0916 119.681 63.7535L112.786 53.5476C111.834 52.1187 110.201 51.2569 108.477 51.2569H102.24C101.855 51.2569 101.628 51.6878 101.832 52.0053L114.124 70.24C115.009 71.5554 115.009 73.2791 114.124 74.5945L101.832 92.8291C101.605 93.1466 101.855 93.5776 102.24 93.5776H108.477C110.201 93.5776 111.811 92.7157 112.786 91.2869L119.681 81.081C120.588 79.7428 122.539 79.7428 123.446 81.081L130.34 91.2869C131.293 92.7157 132.926 93.5776 134.65 93.5776H140.887C141.272 93.5776 141.499 93.1466 141.295 92.8291L128.98 74.6172C128.095 73.3018 128.095 71.5781 128.98 70.2627L141.272 52.028C141.499 51.7105 141.272 51.2569 140.887 51.2569ZM99.0196 51.2569H95.3455C93.4857 51.2569 91.9208 52.5723 91.5353 54.3187C88.2693 51.8239 84.1643 50.5538 79.7417 50.5538C68.9915 50.5538 60.2597 58.0382 60.2597 72.1678C60.2597 86.2973 68.9688 93.7817 79.7417 93.7817C84.1416 93.7817 88.2013 92.5343 91.4672 90.0849C91.6486 92.058 93.3043 93.6229 95.3455 93.6229H99.0196C99.3825 93.6229 99.6773 93.3281 99.6773 92.9652V51.9146C99.6546 51.5517 99.3825 51.2569 99.0196 51.2569ZM79.7417 85.753C73.3233 85.753 68.1069 81.0583 68.1069 72.1904C68.1069 63.3226 73.3233 58.6279 79.7417 58.6279C86.1601 58.6279 91.3765 63.3226 91.3765 72.1904C91.3765 81.0583 86.1601 85.753 79.7417 85.753Z" fill="white"/>
</mask>
<g mask="url(#mask0_78_141)">
<path d="M34.6996 96.8887C48.5531 96.8887 59.7836 82.2668 59.7836 64.2297C59.7836 46.1926 48.5531 31.5707 34.6996 31.5707C20.8462 31.5707 9.61572 46.1926 9.61572 64.2297C9.61572 82.2668 20.8462 96.8887 34.6996 96.8887Z" fill="url(#paint1_radial_78_141)"/>
</g>
<mask id="mask1_78_141" style="mask-type:luminance" maskUnits="userSpaceOnUse" x="0" y="50" width="142" height="44">
<path d="M58.1731 66.271C57.9463 56.0197 50.6888 50.5992 41.7983 50.5992C36.9221 50.5992 32.5222 52.2321 29.5284 55.4073C26.5347 52.2321 22.1348 50.5992 17.2586 50.5992C8.36814 50.5992 1.11059 56.0424 0.883789 66.2937C0.883789 66.3164 0.883789 66.339 0.883789 66.3617V89.7447C0.883789 91.8993 2.63011 93.6229 4.76202 93.6229H8.43614C8.79902 93.6229 9.09389 93.3281 9.09389 92.9652V66.339C9.25265 61.2814 12.8361 58.6052 17.2586 58.6052C21.6812 58.6052 25.2646 61.2814 25.4234 66.339V89.722C25.4234 91.8766 27.1697 93.6002 29.3016 93.6002H32.9758C33.3387 93.6002 33.6335 93.3054 33.6335 92.9425V66.3163C33.7923 61.2587 37.3757 58.5825 41.7983 58.5825C46.2208 58.5825 49.8043 61.2587 49.963 66.3163V89.6993C49.963 91.8539 51.7094 93.5776 53.8413 93.5776H57.5154C57.8783 93.5776 58.1731 93.2827 58.1731 92.9198V66.2937C58.1958 66.3164 58.1731 66.2937 58.1731 66.271ZM140.887 51.2569H134.65C132.926 51.2569 131.316 52.1187 130.34 53.5476L123.446 63.7535C122.539 65.0916 120.588 65.0916 119.681 63.7535L112.786 53.5476C111.834 52.1187 110.201 51.2569 108.477 51.2569H102.24C101.855 51.2569 101.628 51.6878 101.832 52.0053L114.124 70.24C115.009 71.5554 115.009 73.2791 114.124 74.5945L101.832 92.8291C101.605 93.1466 101.855 93.5776 102.24 93.5776H108.477C110.201 93.5776 111.811 92.7157 112.786 91.2869L119.681 81.081C120.588 79.7428 122.539 79.7428 123.446 81.081L130.34 91.2869C131.293 92.7157 132.926 93.5776 134.65 93.5776H140.887C141.272 93.5776 141.499 93.1466 141.295 92.8291L128.98 74.6172C128.095 73.3018 128.095 71.5781 128.98 70.2627L141.272 52.028C141.499 51.7105 141.272 51.2569 140.887 51.2569ZM99.0196 51.2569H95.3455C93.4857 51.2569 91.9208 52.5723 91.5353 54.3187C88.2693 51.8239 84.1643 50.5538 79.7417 50.5538C68.9915 50.5538 60.2597 58.0382 60.2597 72.1678C60.2597 86.2973 68.9688 93.7817 79.7417 93.7817C84.1416 93.7817 88.2013 92.5343 91.4672 90.0849C91.6486 92.058 93.3043 93.6229 95.3455 93.6229H99.0196C99.3825 93.6229 99.6773 93.3281 99.6773 92.9652V51.9146C99.6546 51.5517 99.3825 51.2569 99.0196 51.2569ZM79.7417 85.753C73.3233 85.753 68.1069 81.0583 68.1069 72.1904C68.1069 63.3226 73.3233 58.6279 79.7417 58.6279C86.1601 58.6279 91.3765 63.3226 91.3765 72.1904C91.3765 81.0583 86.1601 85.753 79.7417 85.753Z" fill="white"/>
</mask>
<g mask="url(#mask1_78_141)">
<path d="M59.6927 127.983C88.2013 127.983 111.312 111.625 111.312 91.4456C111.312 71.2666 88.2013 54.9083 59.6927 54.9083C31.1841 54.9083 8.07324 71.2666 8.07324 91.4456C8.07324 111.625 31.1841 127.983 59.6927 127.983Z" fill="url(#paint2_radial_78_141)"/>
</g>
<mask id="mask2_78_141" style="mask-type:luminance" maskUnits="userSpaceOnUse" x="0" y="50" width="142" height="44">
<path d="M58.1731 66.271C57.9463 56.0197 50.6888 50.5992 41.7983 50.5992C36.9221 50.5992 32.5222 52.2321 29.5284 55.4073C26.5347 52.2321 22.1348 50.5992 17.2586 50.5992C8.36814 50.5992 1.11059 56.0424 0.883789 66.2937C0.883789 66.3164 0.883789 66.339 0.883789 66.3617V89.7447C0.883789 91.8993 2.63011 93.6229 4.76202 93.6229H8.43614C8.79902 93.6229 9.09389 93.3281 9.09389 92.9652V66.339C9.25265 61.2814 12.8361 58.6052 17.2586 58.6052C21.6812 58.6052 25.2646 61.2814 25.4234 66.339V89.722C25.4234 91.8766 27.1697 93.6002 29.3016 93.6002H32.9758C33.3387 93.6002 33.6335 93.3054 33.6335 92.9425V66.3163C33.7923 61.2587 37.3757 58.5825 41.7983 58.5825C46.2208 58.5825 49.8043 61.2587 49.963 66.3163V89.6993C49.963 91.8539 51.7094 93.5776 53.8413 93.5776H57.5154C57.8783 93.5776 58.1731 93.2827 58.1731 92.9198V66.2937C58.1958 66.3164 58.1731 66.2937 58.1731 66.271ZM140.887 51.2569H134.65C132.926 51.2569 131.316 52.1187 130.34 53.5476L123.446 63.7535C122.539 65.0916 120.588 65.0916 119.681 63.7535L112.786 53.5476C111.834 52.1187 110.201 51.2569 108.477 51.2569H102.24C101.855 51.2569 101.628 51.6878 101.832 52.0053L114.124 70.24C115.009 71.5554 115.009 73.2791 114.124 74.5945L101.832 92.8291C101.605 93.1466 101.855 93.5776 102.24 93.5776H108.477C110.201 93.5776 111.811 92.7157 112.786 91.2869L119.681 81.081C120.588 79.7428 122.539 79.7428 123.446 81.081L130.34 91.2869C131.293 92.7157 132.926 93.5776 134.65 93.5776H140.887C141.272 93.5776 141.499 93.1466 141.295 92.8291L128.98 74.6172C128.095 73.3018 128.095 71.5781 128.98 70.2627L141.272 52.028C141.499 51.7105 141.272 51.2569 140.887 51.2569ZM99.0196 51.2569H95.3455C93.4857 51.2569 91.9208 52.5723 91.5353 54.3187C88.2693 51.8239 84.1643 50.5538 79.7417 50.5538C68.9915 50.5538 60.2597 58.0382 60.2597 72.1678C60.2597 86.2973 68.9688 93.7817 79.7417 93.7817C84.1416 93.7817 88.2013 92.5343 91.4672 90.0849C91.6486 92.058 93.3043 93.6229 95.3455 93.6229H99.0196C99.3825 93.6229 99.6773 93.3281 99.6773 92.9652V51.9146C99.6546 51.5517 99.3825 51.2569 99.0196 51.2569ZM79.7417 85.753C73.3233 85.753 68.1069 81.0583 68.1069 72.1904C68.1069 63.3226 73.3233 58.6279 79.7417 58.6279C86.1601 58.6279 91.3765 63.3226 91.3765 72.1904C91.3765 81.0583 86.1601 85.753 79.7417 85.753Z" fill="white"/>
</mask>
<g mask="url(#mask2_78_141)">
<path d="M91.3765 81.1036C106.883 81.1036 119.454 68.5328 119.454 53.0259C119.454 37.5191 106.883 24.9482 91.3765 24.9482C75.8697 24.9482 63.2988 37.5191 63.2988 53.0259C63.2988 68.5328 75.8697 81.1036 91.3765 81.1036Z" fill="url(#paint3_radial_78_141)"/>
</g>
<path d="M50.1912 43.0237H38.6925V26.6262H31.2535V43.0237H19.46V0.725754H31.2308V16.511H38.6698V0.725754H50.1685V43.0237H50.1912ZM102.899 43.2052C114.67 43.2052 124.286 33.4075 124.286 21.4778C124.286 9.36679 114.67 0 102.899 0C90.9696 0 84.9368 8.66371 83.4852 12.2018C83.4852 6.96272 78.2462 0.703076 72.168 0.703076H52.5273V43.0237H70.8072C78.2462 43.0237 83.4852 36.6734 83.4852 31.0941C85.1409 34.5415 90.9923 43.2052 102.899 43.2052ZM69.3557 26.0138C71.0567 26.0138 72.4175 27.6695 72.4175 29.5519C72.4175 31.525 71.0567 33.1807 69.3557 33.1807H63.5043V26.0138H69.3557ZM69.3557 10.1379C71.0567 10.1379 72.4175 11.7935 72.4175 13.676C72.4175 15.5584 71.0567 17.214 69.3557 17.214H63.5043V10.1379H69.3557ZM77.0896 21.4778C78.4503 21.3871 80.673 19.8222 81.5121 18.8923C81.1946 20.0263 81.1946 23.6098 81.5121 24.7437C80.5823 23.3603 78.4503 21.7273 77.0896 21.4778ZM92.1717 21.4778C92.1717 15.513 97.0251 10.7049 102.99 10.7276C108.977 10.7729 113.74 15.6491 113.672 21.6366C113.581 27.5334 108.819 32.2735 102.922 32.2735C96.9798 32.2735 92.1717 27.4653 92.1717 21.4778ZM102.899 29.9601C107.481 29.9601 111.336 26.1953 111.336 21.4778C111.336 16.7604 107.481 13.0409 102.899 13.0409C98.1818 13.0409 94.4169 16.7604 94.4169 21.4778C94.4169 26.1953 98.1818 29.9601 102.899 29.9601Z" fill="#F0F0F0"/>
<defs>
<linearGradient id="paint0_linear_78_141" x1="0.00859567" y1="72.1803" x2="140.479" y2="72.1803" gradientUnits="userSpaceOnUse">
<stop stop-color="#991EEB"/>
<stop offset="0.399" stop-color="#5822B4"/>
<stop offset="0.727" stop-color="#5822B4"/>
<stop offset="1" stop-color="#991EEB"/>
</linearGradient>
<radialGradient id="paint1_radial_78_141" cx="0" cy="0" r="1" gradientUnits="userSpaceOnUse" gradientTransform="translate(34.7095 64.2212) scale(25.0827 32.6523)">
<stop stop-color="#7BA7F2" stop-opacity="0.5"/>
<stop offset="1" stop-color="#7BA7F2" stop-opacity="0"/>
</radialGradient>
<radialGradient id="paint2_radial_78_141" cx="0" cy="0" r="1" gradientUnits="userSpaceOnUse" gradientTransform="translate(59.6832 91.439) scale(51.61 36.545)">
<stop offset="0.2" stop-color="#7BA7F2"/>
<stop offset="1" stop-color="#7BA7F2" stop-opacity="0"/>
</radialGradient>
<radialGradient id="paint3_radial_78_141" cx="0" cy="0" r="1" gradientUnits="userSpaceOnUse" gradientTransform="translate(91.3732 53.0347) scale(28.0716 28.0716)">
<stop stop-color="#7BA7F2"/>
<stop offset="1" stop-color="#7BA7F2" stop-opacity="0"/>
</radialGradient>
</defs>
</svg>
