<svg width="164" height="102" viewBox="0 0 164 102" fill="none" xmlns="http://www.w3.org/2000/svg">
<g clip-path="url(#clip0_78_103)">
<path d="M73.06 52.4473C72.6567 52.2801 71.9956 51.5387 73.0954 49.474L75.6502 44.1367C75.7278 43.9754 75.5413 43.7734 75.4249 43.9105L73.191 46.1555C72.134 47.2583 70.341 50.3579 69.9938 50.9315L67.28 55.4158C67.4815 55.4094 67.6503 55.5678 67.6567 55.7692C67.6586 55.8356 67.6427 55.9012 67.6103 55.9592L65.1298 60.1237C64.5241 61.1565 65.6122 61.8784 65.7597 61.6407C69.6585 55.3637 71.9261 55.8648 71.9261 55.8648L73.2276 52.8523C73.2961 52.7013 73.2292 52.5234 73.0782 52.4549C73.0726 52.4521 73.0664 52.4498 73.06 52.4473ZM81.9238 0C59.633 0 41.5628 18.0537 41.5628 40.3242C41.551 48.9455 44.318 57.3413 49.4537 64.2676C51.1468 63.5371 52.0877 62.4452 52.7597 61.6089L60.2747 52.0065C60.433 51.8041 60.6396 51.6449 60.8758 51.5434L62.007 51.057L74.3636 35.3977L76.1553 33.9963L79.8371 28.8762C79.9322 28.7438 80.0482 28.6272 80.1805 28.5313L81.7869 27.3646C82.1838 27.0764 82.7197 27.0719 83.1212 27.3535L85.0705 28.7205C86.1047 29.4456 86.9429 30.4152 87.5108 31.5429L95.3189 45.2452C95.4463 45.5067 95.6629 45.7141 95.9296 45.8301C97.4609 46.5917 98.3963 46.7263 100.4 48.9014C101.336 49.9154 105.433 54.4942 111.176 61.6103C112.011 62.7519 113.128 63.6568 114.418 64.2364C119.538 57.3154 122.296 48.932 122.284 40.3242C122.284 18.0535 104.214 0 81.9238 0ZM52.4475 42.5467L49.8305 41.6976L48.214 43.9205V41.1733L45.5969 40.324L48.214 39.4747V36.7267L49.8305 38.9501L52.4475 38.1009L50.8306 40.3242L52.4475 42.5467ZM51.8271 51.5382L50.977 54.1517L50.127 51.5382H47.3766L49.6016 49.9228L48.7517 47.3094L50.9769 48.9248L53.2022 47.3094L52.3522 49.9228L54.5775 51.5382H51.8271ZM52.3523 30.7239L53.2024 33.3373L50.977 31.7219L48.7519 33.3373L49.6017 30.7239L47.3768 29.1085H50.1272L50.9772 26.4951L51.8274 29.1085H54.5778L52.3523 30.7239ZM56.769 24.8121L55.1533 22.5887L52.5364 23.4378L54.1531 21.2148L52.5364 18.9915L55.1533 19.8407L56.77 17.6175V20.3656L59.387 21.2133L56.77 22.0628V24.8108L56.769 24.8121ZM63.6477 15.1916L62.7977 17.8052L61.9477 15.1918H59.1971L61.4224 13.5764L60.5725 10.9629L62.7977 12.5779L65.0227 10.9625L64.1728 13.5782L66.3981 15.1936H63.6475L63.6477 15.1916ZM72.3156 10.7789L70.6989 13.0023V10.255L68.0818 9.40585L70.6989 8.55637V5.80839L72.3156 8.03179L74.9314 7.18263L73.3147 9.40585L74.9315 11.6289L72.3156 10.7789ZM83.2991 8.25998L84.1492 10.8734L81.9238 9.25799L79.6985 10.8734L80.5476 8.26113L78.3226 6.64575H81.073L81.9234 4.03237L82.7734 6.64575H85.5238L83.2991 8.25998ZM93.1478 10.255V13.003L91.5318 10.7796L88.915 11.6289L90.5317 9.40585L88.9152 7.18263L91.5321 8.03179L93.1482 5.80839V8.55637L95.7651 9.40585L93.1478 10.255ZM111.399 38.1009L114.016 38.9501L115.632 36.7267V39.4747L118.249 40.324L115.632 41.1733V43.9211L114.016 41.6981L111.399 42.5472L113.018 40.324L111.399 38.1009ZM101.05 17.8058L100.199 15.1923H97.4489L99.6734 13.5769L98.8254 10.9632L101.05 12.5786L103.274 10.9635L102.426 13.5769L104.65 15.1923H101.9L101.05 17.8058ZM107.078 24.8127V22.0649L104.462 21.2154L107.078 20.3677V17.6185L108.695 19.8417L111.312 18.9925L109.695 21.2158L111.312 23.4388L108.695 22.5897L107.078 24.8127ZM112.019 29.1093L112.87 26.496L113.72 29.1093H116.471L114.246 30.7247L115.097 33.3381L112.87 31.7227L110.646 33.3381L111.496 30.7247L109.27 29.1093H112.019ZM113.72 51.5382L112.87 54.1517L112.019 51.5382H109.269L111.496 49.9228L110.645 47.3094L112.869 48.9248L115.096 47.3094L114.246 49.9228L116.47 51.5382H113.72ZM96.5428 63.6284C96.7367 63.3468 97.0517 62.5743 96.4603 61.1429L94.6744 56.3441C94.432 55.7315 94.9628 55.3599 95.319 55.7627C95.319 55.7627 98.6945 59.6515 99.5668 61.2752L101.231 64.0363C102.663 64.1287 106.616 64.2364 110.42 64.2364C110.037 63.8563 109.683 63.4478 109.361 63.0145C102.869 54.9732 98.7522 50.5 98.711 50.4557C97.3954 49.0268 96.7873 48.7522 95.7838 48.2955C95.6385 48.2296 95.4809 48.1584 95.3187 48.0812V49.302C95.3287 49.3845 95.2697 49.4594 95.187 49.4692C95.1203 49.4771 95.0561 49.4397 95.0304 49.3776L85.4864 32.6265L85.4598 32.5735C85.0618 31.7845 84.4752 31.1059 83.752 30.5978L82.8209 29.9439L78.2678 40.4389C78.8118 40.4388 79.2531 40.8794 79.2534 41.4232C79.2536 41.5578 79.226 41.691 79.1724 41.8146L74.9657 51.5377H78.8272C80.3196 51.5377 81.7979 51.828 83.1791 52.3934L84.1969 52.8103C84.1969 52.8103 81.126 59.1231 81.126 62.4471C81.1304 63.0517 81.2149 63.6528 81.3767 64.2353H88.4555L88.1276 62.2427C90.9045 62.8624 93.7138 63.3253 96.5426 63.6294V63.6284H96.5428ZM41.9228 73.8574C41.9228 67.3634 35.032 64.2364 26.8454 64.2364C18.0882 64.2364 10.0531 68.1145 7.10393 74.1278C6.29 75.7299 5.86705 77.5022 5.86934 79.2992C5.83212 80.8531 6.26229 82.3822 7.10393 83.6889C8.36755 85.554 10.6244 86.7262 13.9349 86.7262C17.9981 86.7262 21.2183 84.5007 21.2183 80.6225C21.2183 80.6225 21.278 79.5408 20.0143 79.5408C18.9911 79.5408 18.7199 80.262 18.7502 80.6225C18.9014 83.6593 17.0951 86.0949 13.8748 86.0949C10.2645 86.0949 8.75853 83.0281 8.75853 79.7512C8.75853 73.0461 13.8145 68.5957 19.081 66.6718C21.5422 65.7428 24.1558 65.2833 26.7866 65.3179C32.7452 65.3179 37.6206 67.6034 37.6206 73.7375C37.6206 78.8481 33.3172 83.208 28.1704 83.5991L28.381 82.9078C29.4347 79.149 30.7286 75.0303 32.8347 71.9933C32.9559 71.8118 33.166 71.512 33.4069 71.2117L33.1063 70.8505C32.656 71.1236 32.2235 71.4248 31.8112 71.7523C21.9412 79.4499 21.6414 101.098 8.48891 101.098C8.03595 101.098 7.5838 101.067 7.13493 101.007C4.39679 100.557 2.95129 98.722 2.95129 96.1675C2.95129 95.6564 3.13218 94.9644 3.13218 94.5741C3.15301 93.8479 2.58098 93.2425 1.85446 93.2213C1.84872 93.2212 1.84331 93.2212 1.83789 93.2212H1.68783C0.514413 93.2212 0.0327454 94.152 0.00256942 95.4759C-0.0873026 99.2945 2.74071 101.519 7.10525 101.94C7.58626 101.97 8.06793 102 8.57961 102C18.8412 102 25.131 94.2428 27.8098 84.8317C29.1665 84.6727 30.5061 84.3912 31.8118 83.9906C36.5678 82.666 41.9228 79.4805 41.9228 73.8574ZM139.672 76.1121H136.059L135.247 78.0066L133.832 81.1936H132.148L131.634 82.2762H133.381L131.273 86.9367C129.771 90.2139 127.423 93.4312 126.068 93.4312C125.768 93.4312 125.586 93.3102 125.586 93.0107C125.586 92.7112 125.676 92.4386 126.008 91.5971C126.43 90.6042 127.122 89.1614 127.634 88.1093C128.385 86.5761 129.589 84.2007 129.589 83.0281C129.589 81.8554 128.838 80.9231 127.362 80.9231C125.707 80.9231 124.203 81.9164 122.817 83.3581L123.72 81.1936H120.321L117.551 87.5077C116.439 89.7327 114.18 93.431 112.765 93.431C112.465 93.431 112.344 93.2502 112.344 92.9499C112.373 92.6799 112.444 92.4159 112.554 92.1678C112.675 91.8973 114.331 88.0188 114.331 88.0188L117.34 81.1334H113.669L110.749 87.8379C109.848 89.9129 107.56 93.4307 106.085 93.4307C105.828 93.4558 105.599 93.2681 105.573 93.0105C105.573 93.0105 105.573 93.0105 105.573 93.01V92.8891C105.573 92.5287 105.845 91.8668 106.056 91.3855L107.59 88.0187L110.749 81.1333H107.11L106.385 82.6967C105.845 83.7488 104.941 84.9815 103.497 84.9815C102.804 84.9815 102.475 84.7117 102.324 84.4406C102.114 82.1254 100.638 80.8924 98.4714 80.8924C95.4619 80.8924 93.325 82.6663 91.9096 84.8315C90.9826 86.3238 90.2542 87.9306 89.7439 89.6114C88.4494 91.7468 87.0959 93.4008 86.0122 93.4008C85.7411 93.4008 85.5602 93.2497 85.5602 92.8894C85.5602 92.5286 85.9217 91.7171 86.042 91.4153L88.4196 86.3644C89.0816 84.8017 89.5341 83.7793 89.5341 82.7567C89.5341 81.6741 88.783 80.8918 87.5471 80.8918C85.8316 80.8918 83.9653 81.8847 82.491 83.5076C82.541 83.2501 82.561 82.9875 82.551 82.7255C82.551 81.5226 81.9496 80.891 80.715 80.891C79.1506 80.891 77.5257 81.8241 76.0512 83.507L77.0143 81.1606H73.7033L70.9052 87.4766C69.5812 90.4535 67.4445 93.4008 66.2402 93.4008C65.9698 93.4008 65.789 93.2494 65.789 92.8891C65.789 92.3181 66.4211 90.9048 66.6615 90.3334L70.3635 81.945C70.6342 81.3139 68.8583 80.9224 66.6013 80.9224C64.2842 80.9224 61.9065 82.0655 60.1615 83.5383C58.9278 84.5601 58.0248 85.0717 57.5725 85.0717C57.425 85.1032 57.2797 85.0092 57.2479 84.862C57.2437 84.842 57.2417 84.8217 57.242 84.8014C57.242 84.2901 58.4758 82.8462 58.4758 81.7341C58.4758 81.2231 58.2053 80.892 57.5123 80.892C56.189 80.892 54.6233 82.155 53.4799 83.4775L54.443 81.1619H51.1934L48.395 87.4766C47.0706 90.4535 44.8736 93.5508 43.6699 93.5508C43.3988 93.5508 43.219 93.4008 43.219 93.0394C43.219 92.4682 43.8209 91.0858 44.1517 90.3634L47.8535 81.945C48.1243 81.3139 46.3485 80.9224 44.091 80.9224C40.7505 80.9224 37.5 83.1775 35.7849 85.4928C33.8892 87.9875 32.5956 90.6339 32.5651 92.7991C32.5356 94.5428 33.4372 95.6251 35.2434 95.6251C37.2599 95.6251 38.8855 94.0318 39.8178 92.8287C39.7626 93.0668 39.7221 93.3077 39.6966 93.5507C39.6966 94.7526 40.1783 95.6249 41.6527 95.6249C42.9465 95.6249 44.6621 94.5425 46.0466 92.8286L44.9317 95.3846H48.4523L51.9135 87.5369C53.0597 84.9817 54.3538 83.6593 54.7136 83.6593C54.7964 83.6434 54.8765 83.6975 54.8925 83.7803C54.8942 83.7898 54.8952 83.7996 54.8952 83.8094C54.8952 84.0802 54.3538 84.8027 54.3538 85.463C54.3538 86.1235 54.7138 86.6353 55.6783 86.6353C56.4294 86.6353 57.2725 86.2743 58.0251 85.7927C56.2496 88.199 55.0447 90.7243 55.0447 92.7996C55.0151 94.5434 55.9169 95.6256 57.7234 95.6256C59.6189 95.6256 61.3945 93.8215 62.3575 92.6187C62.3213 92.8981 62.3012 93.1791 62.2975 93.4605C62.2975 94.6338 62.9599 95.6256 64.3139 95.6256C65.8181 95.6256 67.0223 94.6929 68.527 92.8597L67.4125 95.3852H71.0231L74.3331 87.8982C75.7778 84.6509 77.7335 82.9063 78.6966 82.9063C78.9372 82.8816 79.1529 83.0563 79.178 83.2971C79.178 83.2976 79.178 83.2981 79.1782 83.2986V83.3881C79.1385 83.7534 79.0366 84.1093 78.8774 84.4402L74.1268 95.4151H77.8284L81.1993 87.7775C82.643 84.5007 84.2387 82.9063 85.4423 82.9063C85.8033 82.9063 85.9543 83.088 85.9543 83.4778C85.9222 83.8965 85.8097 84.3052 85.6232 84.6819L82.3725 91.5966C82.0732 92.2622 81.8901 92.9736 81.8307 93.7009C81.8307 94.7534 82.4022 95.687 84.0281 95.687C86.1362 95.687 87.7298 94.0935 89.5348 91.7183V92.2291C89.6858 94.1233 90.7388 95.777 93.5373 95.777C96.8475 95.777 99.5273 93.4918 101.151 89.8545C101.765 88.5757 102.162 87.2033 102.326 85.794C102.688 85.9777 103.093 86.0612 103.499 86.0363C104.046 86.0423 104.585 85.9076 105.064 85.6448L104.492 86.8771C103.828 88.2605 103.106 89.7941 102.537 91.0878C102.176 91.8527 101.962 92.6782 101.905 93.5222C101.905 94.8146 102.627 95.7475 104.1 95.7475C105.573 95.7475 107.592 94.3643 109.036 92.4101H109.067C108.971 92.8141 108.92 93.2272 108.915 93.6425C108.915 94.7253 109.247 95.7477 110.751 95.7477C112.498 95.7477 113.851 94.4846 115.176 92.8907L114.061 95.4167H117.703L120.623 88.8019C122.278 85.0737 123.933 82.8191 125.467 82.8191C125.73 82.8098 125.956 83.0073 125.981 83.2699V83.3588C125.981 83.9907 125.077 85.7046 124.265 87.4182C123.511 88.9818 122.94 90.1839 122.549 91.117C122.187 91.9029 121.973 92.7484 121.917 93.6118C121.917 94.7538 122.549 95.626 123.965 95.626C126.07 95.626 128.208 93.5815 129.349 92.0478C129.091 92.783 128.95 93.5536 128.93 94.3323C128.93 96.438 130.192 97.4901 131.968 97.4901C133.148 97.4811 134.295 97.1027 135.249 96.4082C136.633 95.4456 137.747 94.0026 138.68 92.6797L138.048 92.0778C137.176 93.3109 136.211 94.4838 135.218 95.2054C134.694 95.6479 134.037 95.9019 133.352 95.927C132.601 95.927 132.118 95.5357 132.118 94.5744C132.118 93.6133 132.569 92.3189 133.262 90.5747C133.291 90.5453 134.285 88.3198 135.218 86.1858C136 84.3804 136.783 82.6373 136.933 82.2765H139.31L139.792 81.1939H137.445L139.672 76.1121ZM37.0185 93.461C36.5072 93.461 36.146 93.2807 36.146 92.6192C36.1759 90.845 37.6501 87.6882 39.487 85.1622C40.7807 83.4183 42.4658 82.126 44.2716 82.126L41.9841 87.2364C40.2687 91.0857 38.4028 93.461 37.0185 93.461ZM59.5293 93.461C59.0181 93.461 58.657 93.2807 58.6273 92.6192C58.6572 90.845 60.1315 87.6882 61.9678 85.1622C63.2611 83.4183 64.9469 82.126 66.7525 82.126L64.4647 87.2366C62.7198 91.1765 60.9443 93.4612 59.5288 93.4612L59.5293 93.461ZM99.4941 83.5094C99.4044 85.4632 97.6888 90.1831 95.6728 93.0105C94.8611 94.1528 94.1679 94.4831 93.5672 94.4831C92.7237 94.4831 92.4815 93.7912 92.6025 92.7694C92.782 90.9957 94.2576 86.8464 96.3052 83.9899C97.238 82.697 97.8706 82.1557 98.5925 82.1557C99.3147 82.1559 99.5255 82.7575 99.4941 83.5094ZM155.662 81.1934L158.977 73.5462H155.054L151.739 81.1934H143.401L142.01 84.4004H150.351L147.036 92.0476H150.959L154.274 84.4004H162.612L164 81.1934H155.662Z" fill="#0064FF"/>
</g>
<defs>
<clipPath id="clip0_78_103">
<rect width="164" height="102" fill="white"/>
</clipPath>
</defs>
</svg>
