<svg width="113" height="114" viewBox="0 0 113 114" fill="none" xmlns="http://www.w3.org/2000/svg">
<path d="M112.584 63.6736V63.7939C112.462 63.6736 112.402 63.4932 112.462 63.3429V63.1023C112.462 63.1023 112.463 63.0722 112.493 63.0722H112.462V62.7715H112.523C112.523 62.7415 112.493 62.7415 112.493 62.7114C112.432 62.14 112.311 61.5687 112.16 61.0274C111.04 57.0581 108.527 54.442 104.44 53.4196C102.532 52.9686 100.595 52.9084 98.657 53.2091C94.5698 53.8105 91.6331 55.9756 90.2101 59.8246C88.8175 63.4932 88.8478 67.5227 90.2404 71.1912C91.4514 74.5291 93.8735 76.634 97.3551 77.506C99.2019 77.9571 101.14 78.0774 103.047 77.8067C109.405 77.055 112.039 72.2738 112.462 68.1241H112.432V67.7031C112.402 67.5227 112.372 67.3723 112.553 67.252V67.3122C112.553 67.2821 112.584 67.2219 112.614 67.1919V63.7338C112.614 63.7037 112.584 63.7037 112.584 63.6736ZM105.318 69.387C105.136 70.0185 104.863 70.5898 104.47 71.1311C103.804 72.0633 102.744 72.6647 101.594 72.7549C101.018 72.815 100.443 72.815 99.868 72.6948C98.5964 72.4542 97.5368 71.6122 97.0221 70.4395C96.568 69.5073 96.2955 68.4849 96.2046 67.4625C96.0533 65.6884 96.023 63.9142 96.4469 62.1701C96.5982 61.4785 96.901 60.7869 97.2643 60.1855C97.9303 59.1029 99.0808 58.4113 100.352 58.3211C100.928 58.261 101.503 58.261 102.078 58.3812C103.289 58.6218 104.288 59.4036 104.833 60.5162C105.348 61.5687 105.651 62.7415 105.711 63.9142C105.741 64.4555 105.772 64.9967 105.741 65.538C105.832 66.8611 105.681 68.1541 105.318 69.387Z" fill="#F0F0F0"/>
<path d="M77.7972 67.7331C79.5531 67.6128 81.3091 67.282 82.8834 66.4401C84.488 65.6582 85.6082 64.1848 85.9412 62.4407C86.1532 61.3582 86.1532 60.2155 85.911 59.133C85.2752 56.4266 83.5495 54.7427 80.9458 53.8706C79.4926 53.4196 77.9486 53.2392 76.4348 53.2993C71.3485 53.4196 67.4733 55.9756 65.899 61.0274C64.8394 64.3652 64.9907 67.7632 66.0201 71.101C67.0797 74.529 69.5017 76.6039 72.9531 77.5361C74.4366 77.8969 75.9807 78.0473 77.4944 77.9871C79.7045 77.957 81.9146 77.5361 84.0036 76.7542C84.8816 76.4235 85.0935 76.1227 85.0935 75.1906V73.0255C85.0633 72.1535 84.7 71.8528 83.822 72.0632C83.1559 72.2437 82.5201 72.394 81.8541 72.5444C79.8256 73.0255 77.7064 73.1157 75.6476 72.7549C73.5889 72.3639 72.1963 71.1912 71.6513 69.1464C71.4999 68.545 71.3788 67.9436 71.3183 67.3121C71.4697 67.3121 71.621 67.3121 71.7421 67.3723C73.7403 67.7331 75.7687 67.8835 77.7972 67.7331ZM71.4697 62.9218C71.6816 61.7491 71.9541 60.6064 72.6807 59.6442C73.8009 58.1707 75.3449 57.7497 77.1009 57.9301C77.2522 57.9301 77.3733 57.9903 77.5247 57.9903C79.644 58.3211 80.1587 60.005 79.7651 61.6288C79.4623 62.8316 78.4632 63.2827 77.3431 63.4932C76.7375 63.6135 76.1018 63.6736 75.466 63.6435C74.2247 63.6135 73.0137 63.5232 71.8027 63.3428C71.5302 63.3128 71.4091 63.1925 71.4697 62.9218Z" fill="#F0F0F0"/>
<path d="M59.5109 43.2257H55.3027C54.1522 43.2257 53.9403 43.4362 53.9403 44.5789V54.3217C53.9403 54.5322 54.0311 54.7427 53.8797 54.9532C53.6072 54.9231 53.4559 54.7427 53.2439 54.6224C50.0953 52.7881 46.7953 52.4573 43.465 53.9909C41.1338 55.0735 39.6806 57.028 38.7421 59.3435C37.8338 61.5687 37.6219 63.9142 37.6824 66.2897C37.6824 68.5149 38.1971 70.7101 39.1962 72.6947C40.3467 74.8899 42.0118 76.5738 44.4338 77.2955C47.7338 78.3179 50.8219 77.8067 53.6375 75.7318C53.8494 75.6115 53.9705 75.4011 54.243 75.3409C54.3944 75.6717 54.5155 76.0325 54.576 76.3934C54.6971 76.8745 55.121 77.2053 55.6357 77.2053H56.3623C57.4522 77.2053 58.5118 77.2354 59.5715 77.2053C60.4192 77.2053 60.6614 76.9346 60.6917 76.0626V44.3684C60.6614 43.4362 60.4192 43.2257 59.5109 43.2257ZM53.9705 65.3575V70.8304C54.0311 71.1912 53.8192 71.522 53.4861 71.6723C52.0329 72.4842 50.3678 72.815 48.7329 72.5744C47.3402 72.4241 46.1292 71.5821 45.4935 70.3492C45.009 69.387 44.7366 68.3646 44.6457 67.3121C44.4035 65.4177 44.5549 63.4932 45.0091 61.6589C45.1604 61.1477 45.3421 60.6666 45.6146 60.1854C46.2503 59.0127 47.4614 58.2609 48.7935 58.1707C50.3981 58.0204 52.0027 58.3211 53.4559 58.9826C53.8192 59.1029 54.0311 59.4637 54.0008 59.8546C53.9403 61.719 53.9705 63.5232 53.9705 65.3575Z" fill="#F0F0F0"/>
<path d="M33.3535 65.538V76.3634C33.2929 76.9648 33.0204 77.2354 32.4149 77.2655C30.7801 77.2955 29.1755 77.2955 27.5406 77.2655C26.9351 77.2655 26.6626 76.9648 26.6021 76.3934C26.5718 76.213 26.5718 76.0025 26.5718 75.8221V55.0134C26.6021 54.0812 26.8443 53.8105 27.7828 53.8105H32.1424C33.081 53.8105 33.3535 54.0812 33.3535 55.0134V65.538Z" fill="#F0F0F0"/>
<path d="M29.9926 43.0153C30.5981 42.9552 31.2036 43.0755 31.7788 43.316C32.9596 43.7671 33.777 44.8496 33.8375 46.1126C34.0797 48.849 32.233 50.2322 29.7807 50.1721C29.4476 50.1721 29.1146 50.1119 28.7816 50.0518C26.9045 49.6007 25.9357 48.1574 26.1173 46.0825C26.2687 44.4286 27.5706 43.1957 29.3568 43.0454C29.5687 43.0153 29.7807 42.9853 29.9926 43.0153Z" fill="#F0F0F0"/>
<path d="M11.9183 70.9507C12.1 70.3493 12.2816 69.7779 12.4633 69.1765C13.856 64.5156 15.2486 59.8847 16.6413 55.2238L16.8229 54.6826C16.9743 54.1413 17.489 53.8105 18.0339 53.8105H22.6358C23.7863 53.8105 24.0285 54.1413 23.6349 55.2238L21.8184 60.005C19.7899 65.2373 17.7615 70.4996 15.733 75.7319C15.6725 75.9123 15.5816 76.0927 15.5211 76.2731C15.3092 76.9046 14.6734 77.3256 14.0073 77.2654C12.6752 77.2354 11.3431 77.2354 10.011 77.2654C9.07245 77.2955 8.5275 76.8745 8.19447 76.0326C7.43759 74.0479 6.65043 72.0332 5.89355 70.0485C4.07703 65.3275 2.23024 60.6064 0.413724 55.8553C0.232072 55.4945 0.110965 55.0735 0.0201393 54.6826C-0.0706866 54.0812 0.141239 53.7805 0.746745 53.7805C2.47244 53.7504 4.19813 53.7805 5.89355 53.7805C6.62015 53.7805 6.95318 54.2616 7.13483 54.8931C7.46786 56.0357 7.80089 57.2085 8.16419 58.3512C9.40548 62.5309 10.6165 66.7408 11.8578 70.9206C11.8275 70.9507 11.8578 70.9507 11.9183 70.9507Z" fill="#F0F0F0"/>
<path d="M99.5775 23.0829C101.724 23.4808 103.927 23.5092 106.073 23.1682C107.332 22.9977 108.534 22.6282 109.65 22.0313C110.937 21.2924 111.882 20.2693 112.282 18.8482C113.284 15.2672 111.739 11.6578 107.99 10.3221C106.159 9.72522 104.213 9.52627 102.296 9.78206C97.7748 10.2936 94.8275 12.7662 93.4827 17.0577C92.5384 19.9851 92.6529 22.9692 93.4254 25.925C94.4269 29.7049 96.945 31.9501 100.751 32.7459C102.925 33.2291 105.129 33.1438 107.303 32.8028C108.448 32.6038 109.593 32.3196 110.68 31.8933C111.338 31.6375 111.681 31.2396 111.653 30.5007C111.624 29.8186 111.653 29.1081 111.653 28.3976C111.653 27.5449 111.309 27.2892 110.48 27.4881C109.65 27.6871 108.849 27.8576 108.019 28.0281C106.245 28.3976 104.413 28.3976 102.639 28.0849C100.207 27.6018 98.6332 25.5271 98.7763 22.9692C99.0338 22.9977 99.32 23.0261 99.5775 23.0829ZM98.8622 18.7346C98.948 18.0525 99.1483 17.3988 99.4058 16.7735C100.264 14.6988 102.067 13.9883 103.898 14.102C104.413 14.1304 104.928 14.2441 105.415 14.443C106.159 14.7557 106.645 15.4378 106.731 16.2335C106.817 16.7167 106.788 17.2283 106.645 17.7114C106.302 18.7346 105.472 19.1609 104.471 19.3598C103.87 19.5019 103.24 19.5588 102.611 19.5019C101.495 19.5019 100.35 19.4167 99.2341 19.2461C98.8049 19.1893 98.8049 19.1893 98.8622 18.7346Z" fill="#00A8E1"/>
<path d="M74.5118 12.2546C75.2272 11.8283 75.9711 11.3736 76.7437 10.9757C78.7467 9.95254 80.9786 9.44097 83.2392 9.55465C84.8702 9.63991 86.3581 10.0946 87.5027 11.2883C88.59 12.3967 88.9906 13.7609 89.1051 15.2388C89.1337 15.5514 89.1337 15.864 89.1337 16.2051V30.927C89.1337 32.2059 88.962 32.3764 87.6744 32.3764H84.1834C83.9545 32.3764 83.7256 32.3764 83.4967 32.348C83.1533 32.3196 82.8672 32.0354 82.8099 31.6943C82.7527 31.3817 82.7527 31.0691 82.7527 30.7564V17.5977C82.7813 17.0577 82.7241 16.5461 82.581 16.0346C82.3521 15.1535 81.5509 14.5283 80.6353 14.4714C78.947 14.3577 77.2588 14.6988 75.7136 15.4093C75.4847 15.4661 75.3416 15.6935 75.3702 15.9209V30.8701C75.3702 31.1543 75.3702 31.4101 75.313 31.6943C75.313 32.0922 74.9982 32.3764 74.5976 32.3764C74.1684 32.4048 73.7392 32.4048 73.2814 32.4048H70.2483C69.1895 32.4048 68.9606 32.149 68.9606 31.0975V17.6545C68.9606 17.1714 68.932 16.6598 68.8176 16.1767C68.6173 15.2104 67.7874 14.5283 66.8146 14.4714C65.0977 14.3577 63.3522 14.6988 61.8071 15.4377C61.5782 15.4946 61.4351 15.7503 61.4923 15.9777V31.1259C61.4923 32.1775 61.2634 32.4048 60.2047 32.4048H56.3704C55.3689 32.4048 55.1113 32.1206 55.1113 31.1543V11.4304C55.1113 11.203 55.1399 10.9757 55.1972 10.7483C55.3116 10.4073 55.655 10.2083 55.9984 10.2083H59.5752C60.0902 10.2083 60.405 10.521 60.5767 11.0041C60.7197 11.402 60.8056 11.7715 60.9486 12.1978C61.2348 12.1978 61.4065 11.9988 61.6068 11.8851C63.1806 10.9188 64.8402 10.0946 66.7001 9.7536C68.1308 9.46939 69.5615 9.46939 70.9922 9.7536C72.3371 10.0378 73.5389 10.8336 74.3115 11.9704C74.3687 12.0557 74.426 12.1125 74.4832 12.1693C74.4546 12.1978 74.4832 12.1978 74.5118 12.2546Z" fill="#00A8E1"/>
<path d="M43.3792 21.2356V11.1463C43.4078 10.4642 43.6653 10.2084 44.3521 10.18C45.84 10.1516 47.328 10.1516 48.8159 10.18C49.474 10.18 49.6743 10.379 49.7316 11.0326C49.7602 11.2884 49.7602 11.5158 49.7602 11.7716V30.6997C49.7602 31.0123 49.7316 31.325 49.703 31.6376C49.6743 32.007 49.3882 32.2628 49.0162 32.2913C48.8445 32.3197 48.7015 32.3197 48.5298 32.3197H44.5524C44.4093 32.3197 44.2949 32.3197 44.1518 32.2913C43.7512 32.2628 43.4078 31.9502 43.3792 31.5523C43.3506 31.3249 43.3506 31.0976 43.3506 30.8702C43.3792 27.7155 43.3792 24.4756 43.3792 21.2356Z" fill="#00A8E1"/>
<path d="M46.6985 0.00544544C47.1563 -0.0229752 47.6141 0.0622867 48.0434 0.20439C49.5885 0.715961 50.3897 2.05173 50.2467 3.78539C50.1322 5.26326 49.0163 6.45693 47.5283 6.68429C46.8988 6.79798 46.2407 6.79798 45.6111 6.68429C43.9801 6.37167 42.7783 5.178 42.8928 3.13171C43.0645 1.11385 44.4094 0.00544544 46.6985 0.00544544Z" fill="#00A8E1"/>
<path d="M32.2197 13.3347C32.42 13.2778 32.5917 13.1642 32.7062 12.9936C33.2212 12.4821 33.7649 11.9989 34.3372 11.5442C35.8251 10.4074 37.6851 9.83895 39.545 9.98105C40.289 10.0095 40.5465 10.2368 40.6037 10.9474C40.6609 11.9137 40.6323 12.9084 40.6323 13.8747C40.6609 14.2726 40.6323 14.642 40.5751 15.0399C40.4606 15.5515 40.2603 15.7504 39.7453 15.8073C39.3447 15.8357 38.9727 15.8073 38.5721 15.7789C36.655 15.6083 34.795 15.9778 32.9923 16.5746C32.5917 16.7167 32.5917 17.0009 32.5917 17.3136V30.9555C32.5917 31.2113 32.5917 31.4386 32.5631 31.6944C32.5345 32.0639 32.2484 32.3481 31.8764 32.3481C31.6761 32.3765 31.4472 32.3765 31.2469 32.3765H27.527C27.3267 32.3765 27.0978 32.3765 26.8975 32.3481C26.5255 32.3197 26.2394 32.007 26.2107 31.6376C26.1821 31.4102 26.1821 31.1828 26.1821 30.9555V11.6295C26.1821 10.3221 26.3252 10.18 27.6415 10.18H30.3884C31.1324 10.18 31.4758 10.4358 31.6761 11.1463C31.8764 11.8568 32.0481 12.5673 32.2197 13.3347Z" fill="#00A8E1"/>
<path d="M21.9471 18.9051C21.8327 17.4272 21.4321 15.9778 20.8312 14.642C19.658 12.1979 17.8553 10.4074 15.1083 9.7821C11.9608 9.1 9.12795 9.7821 6.55267 11.6863C6.38098 11.8568 6.18068 11.9989 5.95177 12.1126C5.89454 12.0842 5.83731 12.0557 5.83731 12.0273C5.75147 11.7431 5.69424 11.4589 5.6084 11.1747C5.37948 10.4642 5.09334 10.2084 4.32075 10.2084C3.46233 10.2084 2.57528 10.2368 1.71686 10.2084C1.05873 10.18 0.457828 10.2652 0 10.7768C0 20.724 0 30.6997 0.0286143 40.6185C0.4006 41.2153 0.972885 41.329 1.63101 41.3006C2.66113 41.2721 3.69124 41.3006 4.72135 41.3006C6.52405 41.3006 6.52405 41.3006 6.52405 39.5385V31.4386C6.52405 31.2397 6.43821 31.0123 6.63851 30.8418C8.06922 31.9502 9.81469 32.6323 11.6174 32.8028C14.1354 33.0586 16.4246 32.4333 18.3417 30.7281C19.7438 29.4492 20.774 27.8008 21.3176 25.9819C22.0902 23.6514 22.1474 21.2925 21.9471 18.9051ZM15.1083 24.7882C14.908 25.6692 14.4502 26.465 13.7921 27.0618C13.0481 27.6871 12.1324 28.0566 11.1596 28.0566C9.70024 28.1418 8.26952 27.8292 6.98188 27.1471C6.66712 27.005 6.46682 26.6924 6.49544 26.3513V21.2072C6.49544 19.502 6.52405 17.7967 6.49544 16.0915C6.46682 15.6936 6.69574 15.3525 7.06772 15.2104C8.64151 14.4715 10.2725 14.1305 11.9894 14.4715C13.1912 14.642 14.2213 15.4094 14.7077 16.5178C15.1369 17.4272 15.3945 18.422 15.4517 19.4167C15.6234 21.2356 15.6234 23.0545 15.1083 24.7882Z" fill="#00A8E1"/>
<path d="M54.5034 113.179V113.071C54.6113 112.936 54.8002 112.855 54.9621 112.882C55.7445 112.855 56.5 112.855 57.2825 112.882C57.4443 112.882 57.6332 112.936 57.7411 113.071V113.179H54.5034Z" fill="#D1EFFA"/>
<path d="M57.7413 113.071C56.6621 113.044 55.5828 113.044 54.5036 113.071C53.0197 112.99 51.5357 112.936 50.0518 112.828C46.1125 112.531 42.2003 111.937 38.369 111.047C25.1214 107.971 13.4926 101.793 3.34775 92.808C2.40342 91.9715 1.51305 91.1082 0.595698 90.2448C0.37985 90.0559 0.190985 89.7861 0.0830617 89.5163C-0.078824 89.1385 0.00211805 88.7338 0.271927 88.437C0.541737 88.1403 0.973432 88.0323 1.35116 88.1942C1.59399 88.3021 1.83682 88.4101 2.05267 88.545C11.7388 94.5347 22.3153 98.9056 33.4045 101.496C37.1279 102.359 40.8782 103.034 44.6556 103.519C50.0787 104.194 55.5559 104.437 61.006 104.248C63.9469 104.167 66.8609 103.897 69.7748 103.519C76.574 102.656 83.2923 101.118 89.7947 98.9596C93.2212 97.8264 96.5669 96.5313 99.8316 95.0204C100.317 94.7506 100.911 94.6696 101.45 94.8045C102.341 95.0204 102.88 95.9377 102.665 96.8281C102.638 96.936 102.584 97.0709 102.53 97.1789C102.314 97.5836 102.017 97.9343 101.639 98.2041C98.5365 100.632 95.1909 102.764 91.6564 104.545C84.9921 107.917 77.8691 110.319 70.5303 111.695C66.2943 112.45 62.0313 112.909 57.7413 113.071Z" fill="#00A8E1"/>
<path d="M104.121 86.7642C105.902 86.8181 107.656 86.926 109.383 87.3847C109.868 87.5196 110.327 87.6815 110.786 87.8974C111.406 88.1402 111.811 88.7338 111.892 89.3813C112 90.1368 112.027 90.9192 111.973 91.7017C111.622 96.3154 110.192 100.767 107.818 104.733C106.954 106.163 105.902 107.459 104.688 108.592C104.445 108.835 104.148 109.023 103.825 109.131C103.312 109.266 102.988 108.996 102.961 108.484C102.988 108.214 103.042 107.944 103.15 107.674C104.094 105.138 105.012 102.629 105.74 100.012C106.172 98.5818 106.469 97.1248 106.658 95.6409C106.712 95.1013 106.739 94.5617 106.685 94.022C106.658 93.1047 106.064 92.3222 105.174 92.0524C104.337 91.7826 103.474 91.6207 102.584 91.5668C100.101 91.4588 97.6191 91.5668 95.1638 91.8905L91.8991 92.2953C91.5483 92.3222 91.2246 92.2953 91.0357 91.9715C90.8469 91.6477 90.9278 91.3239 91.1167 91.0002C91.3325 90.7034 91.6023 90.4336 91.9261 90.2447C93.9227 88.8147 96.1621 87.9513 98.5364 87.3847C100.371 87.007 102.233 86.8181 104.121 86.7642Z" fill="#00A8E1"/>
</svg>
